<?xml version="1.0" encoding="UTF-8" standalone="no"?>
<!-- Created with Inkscape (http://www.inkscape.org/) -->

<svg
   xmlns:dc="http://purl.org/dc/elements/1.1/"
   xmlns:cc="http://creativecommons.org/ns#"
   xmlns:rdf="http://www.w3.org/1999/02/22-rdf-syntax-ns#"
   xmlns:svg="http://www.w3.org/2000/svg"
   xmlns="http://www.w3.org/2000/svg"
   xmlns:sodipodi="http://sodipodi.sourceforge.net/DTD/sodipodi-0.dtd"
   xmlns:inkscape="http://www.inkscape.org/namespaces/inkscape"
   width="14.698543mm"
   height="12.189279mm"
   viewBox="0 0 14.698543 12.189279"
   version="1.1"
   id="svg8110"
   inkscape:version="0.92.4 (5da689c313, 2019-01-14)"
   sodipodi:docname="Camera.svg">
  <defs
     id="defs8104" />
  <sodipodi:namedview
     id="base"
     pagecolor="#ffffff"
     bordercolor="#666666"
     borderopacity="1.0"
     inkscape:pageopacity="0.0"
     inkscape:pageshadow="2"
     inkscape:zoom="6.3997589"
     inkscape:cx="29.22194"
     inkscape:cy="-4.0134957"
     inkscape:document-units="mm"
     inkscape:current-layer="g8084"
     showgrid="false"
     inkscape:window-width="1920"
     inkscape:window-height="1016"
     inkscape:window-x="0"
     inkscape:window-y="584"
     inkscape:window-maximized="1"
     fit-margin-top="0"
     fit-margin-left="0"
     fit-margin-right="0"
     fit-margin-bottom="0" />
  <metadata
     id="metadata8107">
    <rdf:RDF>
      <cc:Work
         rdf:about="">
        <dc:format>image/svg+xml</dc:format>
        <dc:type
           rdf:resource="http://purl.org/dc/dcmitype/StillImage" />
        <dc:title></dc:title>
      </cc:Work>
    </rdf:RDF>
  </metadata>
  <g
     inkscape:label="Layer 1"
     inkscape:groupmode="layer"
     id="layer1"
     transform="translate(-103.89693,-157.83418)">
    <g
       id="g8084"
       transform="translate(-84.935282,-1.1782004)">
      <g
         id="g1343">
        <path
           sodipodi:nodetypes="ccczzzczcczzcccccccc"
           inkscape:connector-curvature="0"
           id="path8040"
           d="m 188.8936,163.52716 c 3.26004,-1.44891 9.78013,-4.34673 9.78013,-4.34673 0,0 1.21666,1.99223 1.12217,3.2364 -0.67721,0.14174 -2.61543,0.99748 -3.06519,1.33477 -0.44975,0.33728 -0.42371,0.59354 -0.19489,1.31701 0.22882,0.72347 1.55241,0.6663 2.26159,0.58638 0.70918,-0.0799 1.43072,-0.20752 1.43072,-0.20752 0,0 0.49752,-0.7594 1.15648,-0.96352 0.65896,-0.20412 0.94292,0.0512 2.01385,0.0355 v 6.47284 c -0.47051,0.17128 -1.70771,0.0704 -2.11437,-0.51974 -0.40665,-0.59015 0.16432,-1.15057 -0.20072,-1.59454 -0.36504,-0.44396 -1.74815,-0.5788 -1.74815,-0.5788 l -0.95088,-0.98038 c -1.33055,-0.0145 -1.54855,0.3732 -2.78095,-0.21798 -0.45326,-0.0743 -0.82649,-1.15151 -1.27842,-0.79721 -1.00725,0.46045 -2.2212,0.87957 -3.22845,1.34002 0.10521,-1.22518 1.03077,-2.5163 -0.001,-3.30152 -0.36936,-0.30684 -1.77786,-0.59224 -2.20178,-0.81497 z"
           style="fill:none;fill-rule:evenodd;stroke:#000000;stroke-width:0.26458332px;stroke-linecap:butt;stroke-linejoin:miter;stroke-opacity:1" />
        <path
           style="fill:none;fill-rule:evenodd;stroke:#ff0000;stroke-width:0.26458332px;stroke-linecap:butt;stroke-linejoin:miter;stroke-opacity:1"
           d="m 194.32497,166.30363 c 0,0 -0.0495,-0.91863 0.23085,-1.20304 0.28031,-0.28441 1.98,-1.10689 1.98,-1.10689"
           id="path8042"
           inkscape:connector-curvature="0"
           sodipodi:nodetypes="czc" />
        <path
           sodipodi:nodetypes="czcc"
           inkscape:connector-curvature="0"
           id="path8044"
           d="m 198.38434,167.31882 c 1.24259,0.004 1.82484,0.093 2.44614,0.0954 0.62129,0.002 1.11625,-1.34662 1.11625,-1.34662 l -1.67726,-0.5788"
           style="fill:none;fill-rule:evenodd;stroke:#ff0000;stroke-width:0.26458332px;stroke-linecap:butt;stroke-linejoin:miter;stroke-opacity:1" />
        <g
           transform="rotate(90,194.22248,163.36949)"
           id="g8067">
          <g
             id="g8073"
             transform="translate(1.5875,-1.5875)">
            <path
               style="fill:none;fill-rule:evenodd;stroke:#ff0000;stroke-width:0.26458332px;stroke-linecap:butt;stroke-linejoin:miter;stroke-opacity:1"
               d="m 192.83739,163.40152 0.7015,1.65267"
               id="path8046"
               inkscape:connector-curvature="0" />
            <path
               inkscape:connector-curvature="0"
               id="path8048"
               d="m 192.17922,163.6809 0.7015,1.65266"
               style="fill:none;fill-rule:evenodd;stroke:#ff0000;stroke-width:0.26458332px;stroke-linecap:butt;stroke-linejoin:miter;stroke-opacity:1" />
            <path
               style="fill:none;fill-rule:evenodd;stroke:#ff0000;stroke-width:0.26458332px;stroke-linecap:butt;stroke-linejoin:miter;stroke-opacity:1"
               d="m 191.52106,163.96026 0.7015,1.65266"
               id="path8050"
               inkscape:connector-curvature="0" />
            <path
               inkscape:connector-curvature="0"
               id="path8052"
               d="m 190.86289,164.23963 0.7015,1.65267"
               style="fill:none;fill-rule:evenodd;stroke:#ff0000;stroke-width:0.26458332px;stroke-linecap:butt;stroke-linejoin:miter;stroke-opacity:1" />
          </g>
        </g>
      </g>
    </g>
  </g>
</svg>
