<?xml version="1.0" encoding="UTF-8" standalone="no"?>
<!-- Created with Inkscape (http://www.inkscape.org/) -->

<svg
   xmlns:dc="http://purl.org/dc/elements/1.1/"
   xmlns:cc="http://creativecommons.org/ns#"
   xmlns:rdf="http://www.w3.org/1999/02/22-rdf-syntax-ns#"
   xmlns:svg="http://www.w3.org/2000/svg"
   xmlns="http://www.w3.org/2000/svg"
   xmlns:sodipodi="http://sodipodi.sourceforge.net/DTD/sodipodi-0.dtd"
   xmlns:inkscape="http://www.inkscape.org/namespaces/inkscape"
   width="176.1093mm"
   height="173.32777mm"
   viewBox="0 0 176.1093 173.32778"
   version="1.1"
   id="svg8"
   inkscape:version="0.92.4 (5da689c313, 2019-01-14)"
   sodipodi:docname="Tower_2.svg">
  <defs
     id="defs2" />
  <sodipodi:namedview
     id="base"
     pagecolor="#ffffff"
     bordercolor="#666666"
     borderopacity="1.0"
     inkscape:pageopacity="0.0"
     inkscape:pageshadow="2"
     inkscape:zoom="1.2868321"
     inkscape:cx="332.80497"
     inkscape:cy="327.54855"
     inkscape:document-units="mm"
     inkscape:current-layer="layer1"
     showgrid="false"
     inkscape:window-width="1920"
     inkscape:window-height="1016"
     inkscape:window-x="0"
     inkscape:window-y="584"
     inkscape:window-maximized="1"
     inkscape:measure-start="-153.453,977.834"
     inkscape:measure-end="-153.453,1166.81"
     fit-margin-top="0"
     fit-margin-left="0"
     fit-margin-right="0"
     fit-margin-bottom="0"
     showborder="false"
     borderlayer="false"
     inkscape:showpageshadow="true" />
  <metadata
     id="metadata5">
    <rdf:RDF>
      <cc:Work
         rdf:about="">
        <dc:format>image/svg+xml</dc:format>
        <dc:type
           rdf:resource="http://purl.org/dc/dcmitype/StillImage" />
        <dc:title></dc:title>
      </cc:Work>
    </rdf:RDF>
  </metadata>
  <g
     inkscape:label="Layer 1"
     inkscape:groupmode="layer"
     id="layer1"
     transform="translate(182.20885,13.947154)">
    <path
       style="opacity:1;fill:none;fill-opacity:1;fill-rule:nonzero;stroke:#002000;stroke-width:0.26458332;stroke-linejoin:round;stroke-miterlimit:4;stroke-dasharray:none;stroke-opacity:1"
       d="m -119.15431,-10.689373 3.6e-4,43.749879 0.85506,0.855055 7.65711,-7.657114 1.41449,1.414491 -7.65748,7.65675 0.85579,0.855784 h 43.74951 l 0.85542,-0.85542 -7.65711,-7.657114 1.41449,-1.414493 7.65675,7.657481 0.85578,-0.855785 1e-5,-43.749515 -0.85579,-0.855785 -7.65675,7.6574814 -1.41449,-1.4144913 7.65711,-7.6571161 -0.85505,-0.855056 -43.74988,-3.63e-4 -0.85579,0.855784 7.65748,7.656749 -1.41449,1.4144932 -7.65711,-7.6571152 z"
       id="rect4485"
       inkscape:connector-curvature="0" />
    <flowRoot
       xml:space="preserve"
       id="flowRoot16926"
       style="font-style:normal;font-variant:normal;font-weight:normal;font-stretch:normal;font-size:29.33333397px;line-height:125%;font-family:sans-serif;-inkscape-font-specification:'sans-serif, Normal';font-variant-ligatures:normal;font-variant-caps:normal;font-variant-numeric:normal;font-feature-settings:normal;text-align:center;letter-spacing:0px;word-spacing:0px;writing-mode:lr-tb;text-anchor:middle;fill:#000000;fill-opacity:1;stroke:none;stroke-width:1px;stroke-linecap:butt;stroke-linejoin:miter;stroke-opacity:1"
       transform="matrix(0.26458333,0,0,0.26458333,-198.44877,-32.336086)"><flowRegion
         id="flowRegion16928"><rect
           id="rect16930"
           width="1155.6212"
           height="1165.0166"
           x="-164.41766"
           y="323.76532" /></flowRegion><flowPara
         id="flowPara16932" /></flowRoot>    <g
       id="g4280"
       transform="translate(-33.538093)">
      <path
         sodipodi:nodetypes="ccccccccc"
         inkscape:connector-curvature="0"
         id="rect16934"
         d="m -129.69131,70.362631 21.9253,-20.638768 v 28.774003 h -10.82876 v 6.000136 l 10.82876,-1.36e-4 v 74.750464 h -40.77246 z"
         style="opacity:1;fill:none;fill-opacity:1;fill-rule:nonzero;stroke:#000000;stroke-width:0.26458332;stroke-linejoin:round;stroke-miterlimit:4;stroke-dasharray:none;stroke-opacity:1" />
      <path
         sodipodi:nodetypes="ccccc"
         inkscape:connector-curvature="0"
         id="path4245"
         d="m -112.54921,58.751067 v 15.838882 h -13.5772 l 0.55817,-2.928565 z"
         style="fill:none;fill-rule:evenodd;stroke:#000000;stroke-width:0.26458332px;stroke-linecap:butt;stroke-linejoin:miter;stroke-opacity:1" />
      <path
         id="path4247"
         transform="matrix(0.26458333,0,0,0.26458333,-198.44877,-32.336086)"
         d="m 271.33398,461.96484 53.32618,71.81446 v -71.81446 z m -11.6914,8.38086 -17.96875,79.56641 h 77.05078 z"
         style="fill:none;fill-rule:evenodd;stroke:#000000;stroke-width:0.99999994px;stroke-linecap:butt;stroke-linejoin:miter;stroke-opacity:1"
         inkscape:connector-curvature="0" />
      <path
         id="path4249"
         transform="matrix(0.26458333,0,0,0.26458333,-198.44877,-32.336086)"
         d="M 237.67383,569.77539 212.75391,691.94141 315.14258,569.77539 Z m 86.98633,10.58984 -106.51172,127.08204 h 106.51172 z"
         style="fill:none;fill-rule:evenodd;stroke:#000000;stroke-width:0.99999994px;stroke-linecap:butt;stroke-linejoin:miter;stroke-opacity:1"
         inkscape:connector-curvature="0" />
    </g>
    <path
       id="path4309"
       style="opacity:1;fill:none;fill-opacity:1;fill-rule:nonzero;stroke:#000000;stroke-width:0.26458332;stroke-linejoin:round;stroke-miterlimit:4;stroke-dasharray:none;stroke-opacity:1"
       d="m -132.07657,0.24763677 -5,-1.7e-4 V 22.122472 h 5.00012 l 2e-5,10.93763 -0.85577,0.855745 -7.65675,-7.657481 -1.41449,1.414493 7.65711,7.657114 -0.85527,0.855294 -10.93697,-1.25e-4 v -4.99967 h -21.87499 v 5 l -10.93772,-2.05e-4 -0.85577,-0.855658 7.65748,-7.65675 -1.41449,-1.414491 -7.65711,7.657114 -0.85517,-0.855197 -1e-4,-10.937643 4.99988,-1.7e-4 V 0.24746677 h -5 l 4e-5,-10.93712477 0.85535,-0.855214 7.65711,7.657115 1.41449,-1.4144932 -7.65748,-7.6567488 0.8557,-0.855824 10.93779,-3.9e-5 v 5.0003288 h 21.87499 v -4.9999988 l 10.93715,-1.09e-4 0.85509,0.855277 -7.65711,7.6571159 1.41449,1.4144913 7.65675,-7.6574812 0.85577,0.85558 z m -37.50006,-6.56232437 v 5.0002119 h -4.9997 V 23.685548 h 4.9997 v 4.999694 h 25.00002 v -4.999694 h 5.00022 V -1.3144757 h -5.00022 v -5.0002119 z"
       inkscape:connector-curvature="0" />
    <path
       inkscape:connector-curvature="0"
       id="path903"
       style="opacity:1;fill:none;fill-opacity:1;fill-rule:nonzero;stroke:#000000;stroke-width:0.26458332;stroke-linejoin:round;stroke-miterlimit:4;stroke-dasharray:none;stroke-opacity:1"
       d="m -6.231983,0.24763712 -5,-1.7e-4 V 22.122472 h 5.00012 l 2e-5,10.93763 -0.85577,0.855745 -7.65675,-7.657481 -1.41449,1.414493 7.65711,7.657114 -0.85527,0.855294 -10.93697,-1.25e-4 v -4.99967 h -21.874993 v 5 l -10.93772,-2.05e-4 -0.85577,-0.855658 7.65748,-7.65675 -1.41449,-1.414491 -7.65711,7.657114 -0.85517,-0.855197 -1e-4,-10.937643 4.99988,-1.7e-4 V 0.24746712 h -5 l 4e-5,-10.93712512 0.85535,-0.855214 7.65711,7.6571151 1.41449,-1.414493 -7.65748,-7.6567491 0.8557,-0.855824 10.93779,-3.9e-5 v 5.0003291 h 21.874993 v -4.9999991 l 10.93715,-1.09e-4 0.85509,0.855277 -7.65711,7.6571161 1.41449,1.414492 7.65675,-7.6574821 0.85577,0.85558 z M -43.732046,-1.3144749 V 23.685548 h 25.000023 V -1.3144749 Z"
       sodipodi:nodetypes="cccccccccccccccccccccccccccccccccccccccccccccc" />
  </g>
</svg>
