<?xml version="1.0" encoding="UTF-8" standalone="no"?>
<!-- Created with Inkscape (http://www.inkscape.org/) -->

<svg
   xmlns:dc="http://purl.org/dc/elements/1.1/"
   xmlns:cc="http://creativecommons.org/ns#"
   xmlns:rdf="http://www.w3.org/1999/02/22-rdf-syntax-ns#"
   xmlns:svg="http://www.w3.org/2000/svg"
   xmlns="http://www.w3.org/2000/svg"
   xmlns:sodipodi="http://sodipodi.sourceforge.net/DTD/sodipodi-0.dtd"
   xmlns:inkscape="http://www.inkscape.org/namespaces/inkscape"
   width="237.89212mm"
   height="106.49059mm"
   viewBox="0 0 237.89212 106.49059"
   version="1.1"
   id="svg8"
   inkscape:version="0.92.1 r15371"
   sodipodi:docname="Doors.svg">
  <defs
     id="defs2" />
  <sodipodi:namedview
     id="base"
     pagecolor="#ffffff"
     bordercolor="#666666"
     borderopacity="1.0"
     inkscape:pageopacity="0.0"
     inkscape:pageshadow="2"
     inkscape:zoom="0.51354751"
     inkscape:cx="473.72155"
     inkscape:cy="119.95869"
     inkscape:document-units="mm"
     inkscape:current-layer="layer1"
     showgrid="false"
     showborder="false"
     inkscape:window-width="1920"
     inkscape:window-height="1016"
     inkscape:window-x="0"
     inkscape:window-y="619"
     inkscape:window-maximized="1"
     inkscape:measure-start="0,0"
     inkscape:measure-end="0,0"
     showguides="true"
     inkscape:guide-bbox="true"
     fit-margin-top="0"
     fit-margin-left="0"
     fit-margin-right="0"
     fit-margin-bottom="0" />
  <metadata
     id="metadata5">
    <rdf:RDF>
      <cc:Work
         rdf:about="">
        <dc:format>image/svg+xml</dc:format>
        <dc:type
           rdf:resource="http://purl.org/dc/dcmitype/StillImage" />
        <dc:title></dc:title>
      </cc:Work>
    </rdf:RDF>
  </metadata>
  <g
     inkscape:label="Layer 1"
     inkscape:groupmode="layer"
     id="layer1"
     transform="translate(426.07847,359.14226)">
    <g
       id="g5012"
       transform="translate(144.94365,-232.3668)"
       style="stroke:#ff0000">
      <path
         inkscape:connector-curvature="0"
         id="path4876"
         transform="scale(0.26458333)"
         d="m -1540.2754,-358.02734 c 6.8363,266.34806 73.2783,0.90655 78.0078,266.513668"
         style="opacity:1;fill:none;fill-opacity:1;fill-rule:nonzero;stroke:#ff0000;stroke-width:0.90249997;stroke-linejoin:round;stroke-miterlimit:7.8342247;stroke-dasharray:none;stroke-opacity:1" />
      <path
         inkscape:connector-curvature="0"
         id="path4874"
         transform="scale(0.26458333)"
         d="m -1437.875,-91.513672 c -4.7296,-265.607118 -71.1715,-0.165608 -78.0078,-266.513668"
         style="opacity:1;fill:none;fill-opacity:1;fill-rule:nonzero;stroke:#ff0000;stroke-width:0.90249997;stroke-linejoin:round;stroke-miterlimit:7.8342247;stroke-dasharray:none;stroke-opacity:1" />
      <path
         inkscape:connector-curvature="0"
         id="path4872"
         transform="scale(0.26458333)"
         d="m -1491.4902,-358.02734 c 6.8362,266.348063 73.2782,0.90656 78.0078,266.513668"
         style="opacity:1;fill:none;fill-opacity:1;fill-rule:nonzero;stroke:#ff0000;stroke-width:0.90249997;stroke-linejoin:round;stroke-miterlimit:7.8342247;stroke-dasharray:none;stroke-opacity:1" />
      <path
         inkscape:connector-curvature="0"
         id="path4870"
         transform="scale(0.26458333)"
         d="m -1389.0879,-91.513672 c -4.7296,-265.607118 -71.1715,-0.165603 -78.0078,-266.513668"
         style="opacity:1;fill:none;fill-opacity:1;fill-rule:nonzero;stroke:#ff0000;stroke-width:0.90249997;stroke-linejoin:round;stroke-miterlimit:7.8342247;stroke-dasharray:none;stroke-opacity:1" />
      <path
         inkscape:connector-curvature="0"
         id="path4868"
         transform="scale(0.26458333)"
         d="m -1442.7031,-358.02734 c 6.8362,266.34806 73.2782,0.90655 78.0078,266.513668"
         style="opacity:1;fill:none;fill-opacity:1;fill-rule:nonzero;stroke:#ff0000;stroke-width:0.90249997;stroke-linejoin:round;stroke-miterlimit:7.8342247;stroke-dasharray:none;stroke-opacity:1" />
      <path
         inkscape:connector-curvature="0"
         id="path4866"
         transform="scale(0.26458333)"
         d="m -1340.3027,-91.513672 c -4.7296,-265.607098 -71.1716,-0.165611 -78.0078,-266.513668"
         style="opacity:1;fill:none;fill-opacity:1;fill-rule:nonzero;stroke:#ff0000;stroke-width:0.90249997;stroke-linejoin:round;stroke-miterlimit:7.8342247;stroke-dasharray:none;stroke-opacity:1" />
      <path
         inkscape:connector-curvature="0"
         id="path4864"
         transform="scale(0.26458333)"
         d="m -1393.916,-358.02734 c 6.8363,266.348065 73.2782,0.90655 78.0078,266.513668"
         style="opacity:1;fill:none;fill-opacity:1;fill-rule:nonzero;stroke:#ff0000;stroke-width:0.90249997;stroke-linejoin:round;stroke-miterlimit:7.8342247;stroke-dasharray:none;stroke-opacity:1" />
      <path
         inkscape:connector-curvature="0"
         id="path4862"
         transform="scale(0.26458333)"
         d="m -1291.623,-96.681641 c -5.505,-256.907859 -71.1094,3.238932 -77.9004,-261.345699"
         style="opacity:1;fill:none;fill-opacity:1;fill-rule:nonzero;stroke:#ff0000;stroke-width:0.90249997;stroke-linejoin:round;stroke-miterlimit:7.8342247;stroke-dasharray:none;stroke-opacity:1" />
      <path
         inkscape:connector-curvature="0"
         id="path4860"
         transform="scale(0.26458333)"
         d="m -1345.1309,-358.02734 c 4.7511,185.10563 38.2916,113.36124 59.9024,141.49023"
         style="opacity:1;fill:none;fill-opacity:1;fill-rule:nonzero;stroke:#ff0000;stroke-width:0.90249997;stroke-linejoin:round;stroke-miterlimit:7.8342247;stroke-dasharray:none;stroke-opacity:1" />
      <path
         inkscape:connector-curvature="0"
         id="path4858"
         transform="scale(0.26458333)"
         d="m -1285.957,-224.65234 c -16.2758,-1.14203 -31.6075,-12.5149 -34.7559,-132.59571"
         style="opacity:1;fill:none;fill-opacity:1;fill-rule:nonzero;stroke:#ff0000;stroke-width:0.90249997;stroke-linejoin:round;stroke-miterlimit:7.8342247;stroke-dasharray:none;stroke-opacity:1" />
      <path
         inkscape:connector-curvature="0"
         id="path4856"
         transform="scale(0.26458333)"
         d="m -1486.6621,-91.513672 c -4.6942,-263.618588 -70.1716,-4.179305 -77.8359,-260.687498"
         style="opacity:1;fill:none;fill-opacity:1;fill-rule:nonzero;stroke:#ff0000;stroke-width:0.90249997;stroke-linejoin:round;stroke-miterlimit:7.8342247;stroke-dasharray:none;stroke-opacity:1" />
      <path
         inkscape:connector-curvature="0"
         id="path4854"
         transform="scale(0.26458333)"
         d="m -1583.375,-276.89648 c 17.8887,123.46127 68.2261,-44.54327 72.3203,185.382808"
         style="opacity:1;fill:none;fill-opacity:1;fill-rule:nonzero;stroke:#ff0000;stroke-width:0.90249997;stroke-linejoin:round;stroke-miterlimit:7.8342247;stroke-dasharray:none;stroke-opacity:1" />
      <path
         inkscape:connector-curvature="0"
         id="path4852"
         transform="scale(0.26458333)"
         d="m -1295.1328,-326.55273 c 1.0764,20.39228 2.6033,36.77183 4.5,49.8164"
         style="opacity:1;fill:none;fill-opacity:1;fill-rule:nonzero;stroke:#ff0000;stroke-width:0.90249997;stroke-linejoin:round;stroke-miterlimit:7.8342247;stroke-dasharray:none;stroke-opacity:1" />
      <path
         inkscape:connector-curvature="0"
         id="path4850"
         transform="scale(0.26458333)"
         d="m -1535.4473,-91.513672 c -2.9939,-168.135018 -30.7138,-123.503558 -52.3965,-135.603518"
         style="opacity:1;fill:none;fill-opacity:1;fill-rule:nonzero;stroke:#ff0000;stroke-width:0.90249997;stroke-linejoin:round;stroke-miterlimit:7.8342247;stroke-dasharray:none;stroke-opacity:1" />
      <path
         inkscape:connector-curvature="0"
         id="path4848"
         transform="scale(0.26458333)"
         d="m -1588.1602,-223.59961 c 14.2186,3.7586 26.3909,23.83735 28.3184,132.085938"
         style="opacity:1;fill:none;fill-opacity:1;fill-rule:nonzero;stroke:#ff0000;stroke-width:0.90249997;stroke-linejoin:round;stroke-miterlimit:7.8342247;stroke-dasharray:none;stroke-opacity:1" />
      <path
         inkscape:connector-curvature="0"
         id="path4846"
         transform="scale(0.26458333)"
         d="m -1584.3691,-97.986328 c -0.9362,-41.858712 -3.4755,-69.925812 -7.1114,-88.642582"
         style="opacity:1;fill:none;fill-opacity:1;fill-rule:nonzero;stroke:#ff0000;stroke-width:0.90249997;stroke-linejoin:round;stroke-miterlimit:7.8342247;stroke-dasharray:none;stroke-opacity:1" />
      <path
         inkscape:connector-curvature="0"
         id="path4844"
         transform="scale(0.26458333)"
         d="m -1558.0884,-372.42315 h 242.1552 c 20.101,0 34.4858,16.26297 36.2835,36.28347 l 20,222.73775 c 1.7976,20.020499 -16.1825,36.28347 -36.2835,36.28347 h -282.1552 c -20.101,0 -38.0811,-16.262971 -36.2835,-36.28347 l 20.0001,-222.73775 c 1.7976,-20.0205 16.1824,-36.28347 36.2834,-36.28347 z"
         style="opacity:1;fill:none;fill-opacity:1;fill-rule:nonzero;stroke:#ff0000;stroke-width:0.90249997;stroke-linejoin:round;stroke-miterlimit:7.8342247;stroke-dasharray:none;stroke-opacity:1" />
      <path
         inkscape:connector-curvature="0"
         id="path4842"
         transform="scale(0.26458333)"
         d="m -1546.2833,-358.02705 h 218.545 c 18.1412,0 31.1235,14.67733 32.7458,32.74584 l 18.0501,201.02082 c 1.6224,18.0685 -14.6047,32.745826 -32.7459,32.745826 h -254.645 c -18.1412,0 -34.3683,-14.677326 -32.7459,-32.745826 l 18.0501,-201.02082 c 1.6224,-18.06851 14.6046,-32.74584 32.7458,-32.74584 z"
         style="opacity:1;fill:none;fill-opacity:1;fill-rule:nonzero;stroke:#ff0000;stroke-width:0.90249997;stroke-linejoin:round;stroke-miterlimit:7.8342247;stroke-dasharray:none;stroke-opacity:1" />
      <path
         inkscape:connector-curvature="0"
         id="path4840"
         transform="scale(0.26458333)"
         d="m -1278.8483,-90.73072 a 2.52021,2.1601798 0 0 0 -2.5195,-2.1602 2.52021,2.1601798 0 0 0 -2.5196,2.1602 2.52021,2.1601798 0 0 0 2.5196,2.162102 2.52021,2.1601798 0 0 0 2.5195,-2.162102 z"
         style="opacity:1;fill:none;fill-opacity:1;fill-rule:nonzero;stroke:#ff0000;stroke-width:0.90249997;stroke-linejoin:round;stroke-miterlimit:7.8342247;stroke-dasharray:none;stroke-opacity:1" />
      <path
         inkscape:connector-curvature="0"
         id="path4838"
         transform="scale(0.26458333)"
         d="m -1287.1924,-86.658226 a 2.52021,2.1601798 0 0 0 -2.5196,-2.1602 2.52021,2.1601798 0 0 0 -2.5195,2.1602 2.52021,2.1601798 0 0 0 2.5195,2.162101 2.52021,2.1601798 0 0 0 2.5196,-2.162101 z"
         style="opacity:1;fill:none;fill-opacity:1;fill-rule:nonzero;stroke:#ff0000;stroke-width:0.90249997;stroke-linejoin:round;stroke-miterlimit:7.8342247;stroke-dasharray:none;stroke-opacity:1" />
      <path
         inkscape:connector-curvature="0"
         id="path4836"
         transform="scale(0.26458333)"
         d="m -1297.0108,-84.541634 a 2.52021,2.1601798 0 0 0 -2.5215,-2.1602 2.52021,2.1601798 0 0 0 -2.5195,2.1602 2.52021,2.1601798 0 0 0 2.5195,2.162102 2.52021,2.1601798 0 0 0 2.5215,-2.162102 z"
         style="opacity:1;fill:none;fill-opacity:1;fill-rule:nonzero;stroke:#ff0000;stroke-width:0.90249997;stroke-linejoin:round;stroke-miterlimit:7.8342247;stroke-dasharray:none;stroke-opacity:1" />
      <path
         inkscape:connector-curvature="0"
         id="path4834"
         transform="scale(0.26458333)"
         d="m -1306.8311,-84.541634 a 2.52021,2.1601798 0 0 0 -2.5215,-2.1602 2.52021,2.1601798 0 0 0 -2.5195,2.1602 2.52021,2.1601798 0 0 0 2.5195,2.162102 2.52021,2.1601798 0 0 0 2.5215,-2.162102 z"
         style="opacity:1;fill:none;fill-opacity:1;fill-rule:nonzero;stroke:#ff0000;stroke-width:0.90249997;stroke-linejoin:round;stroke-miterlimit:7.8342247;stroke-dasharray:none;stroke-opacity:1" />
      <path
         inkscape:connector-curvature="0"
         id="path4832"
         transform="scale(0.26458333)"
         d="m -1316.6514,-84.541634 a 2.52021,2.1601798 0 0 0 -2.5195,-2.1602 2.52021,2.1601798 0 0 0 -2.5215,2.1602 2.52021,2.1601798 0 0 0 2.5215,2.162102 2.52021,2.1601798 0 0 0 2.5195,-2.162102 z"
         style="opacity:1;fill:none;fill-opacity:1;fill-rule:nonzero;stroke:#ff0000;stroke-width:0.90249997;stroke-linejoin:round;stroke-miterlimit:7.8342247;stroke-dasharray:none;stroke-opacity:1" />
      <path
         inkscape:connector-curvature="0"
         id="path4830"
         transform="scale(0.26458333)"
         d="m -1326.4717,-84.541634 a 2.52021,2.1601798 0 0 0 -2.5195,-2.1602 2.52021,2.1601798 0 0 0 -2.5196,2.1602 2.52021,2.1601798 0 0 0 2.5196,2.162102 2.52021,2.1601798 0 0 0 2.5195,-2.162102 z"
         style="opacity:1;fill:none;fill-opacity:1;fill-rule:nonzero;stroke:#ff0000;stroke-width:0.90249997;stroke-linejoin:round;stroke-miterlimit:7.8342247;stroke-dasharray:none;stroke-opacity:1" />
      <path
         inkscape:connector-curvature="0"
         id="path4828"
         transform="scale(0.26458333)"
         d="m -1336.292,-84.541634 a 2.52021,2.1601798 0 0 0 -2.5196,-2.1602 2.52021,2.1601798 0 0 0 -2.5195,2.1602 2.52021,2.1601798 0 0 0 2.5195,2.162102 2.52021,2.1601798 0 0 0 2.5196,-2.162102 z"
         style="opacity:1;fill:none;fill-opacity:1;fill-rule:nonzero;stroke:#ff0000;stroke-width:0.90249997;stroke-linejoin:round;stroke-miterlimit:7.8342247;stroke-dasharray:none;stroke-opacity:1" />
      <path
         inkscape:connector-curvature="0"
         id="path4826"
         transform="scale(0.26458333)"
         d="m -1346.1104,-84.541634 a 2.52021,2.1601798 0 0 0 -2.5215,-2.1602 2.52021,2.1601798 0 0 0 -2.5195,2.1602 2.52021,2.1601798 0 0 0 2.5195,2.162102 2.52021,2.1601798 0 0 0 2.5215,-2.162102 z"
         style="opacity:1;fill:none;fill-opacity:1;fill-rule:nonzero;stroke:#ff0000;stroke-width:0.90249997;stroke-linejoin:round;stroke-miterlimit:7.8342247;stroke-dasharray:none;stroke-opacity:1" />
      <path
         inkscape:connector-curvature="0"
         id="path4824"
         transform="scale(0.26458333)"
         d="m -1355.9307,-84.541634 a 2.52021,2.1601798 0 0 0 -2.5215,-2.1602 2.52021,2.1601798 0 0 0 -2.5195,2.1602 2.52021,2.1601798 0 0 0 2.5195,2.162102 2.52021,2.1601798 0 0 0 2.5215,-2.162102 z"
         style="opacity:1;fill:none;fill-opacity:1;fill-rule:nonzero;stroke:#ff0000;stroke-width:0.90249997;stroke-linejoin:round;stroke-miterlimit:7.8342247;stroke-dasharray:none;stroke-opacity:1" />
      <path
         inkscape:connector-curvature="0"
         id="path4822"
         transform="scale(0.26458333)"
         d="m -1365.751,-84.541634 a 2.52021,2.1601798 0 0 0 -2.5196,-2.1602 2.52021,2.1601798 0 0 0 -2.5214,2.1602 2.52021,2.1601798 0 0 0 2.5214,2.162102 2.52021,2.1601798 0 0 0 2.5196,-2.162102 z"
         style="opacity:1;fill:none;fill-opacity:1;fill-rule:nonzero;stroke:#ff0000;stroke-width:0.90249997;stroke-linejoin:round;stroke-miterlimit:7.8342247;stroke-dasharray:none;stroke-opacity:1" />
      <path
         inkscape:connector-curvature="0"
         id="path4820"
         transform="scale(0.26458333)"
         d="m -1375.5713,-84.541634 a 2.52021,2.1601798 0 0 0 -2.5196,-2.1602 2.52021,2.1601798 0 0 0 -2.5214,2.1602 2.52021,2.1601798 0 0 0 2.5214,2.162102 2.52021,2.1601798 0 0 0 2.5196,-2.162102 z"
         style="opacity:1;fill:none;fill-opacity:1;fill-rule:nonzero;stroke:#ff0000;stroke-width:0.90249997;stroke-linejoin:round;stroke-miterlimit:7.8342247;stroke-dasharray:none;stroke-opacity:1" />
      <path
         inkscape:connector-curvature="0"
         id="path4818"
         transform="scale(0.26458333)"
         d="m -1385.3917,-84.541634 a 2.52021,2.1601798 0 0 0 -2.5195,-2.1602 2.52021,2.1601798 0 0 0 -2.5195,2.1602 2.52021,2.1601798 0 0 0 2.5195,2.162102 2.52021,2.1601798 0 0 0 2.5195,-2.162102 z"
         style="opacity:1;fill:none;fill-opacity:1;fill-rule:nonzero;stroke:#ff0000;stroke-width:0.90249997;stroke-linejoin:round;stroke-miterlimit:7.8342247;stroke-dasharray:none;stroke-opacity:1" />
      <path
         inkscape:connector-curvature="0"
         id="path4816"
         transform="scale(0.26458333)"
         d="m -1395.21,-84.541634 a 2.52021,2.1601798 0 0 0 -2.5215,-2.1602 2.52021,2.1601798 0 0 0 -2.5195,2.1602 2.52021,2.1601798 0 0 0 2.5195,2.162102 2.52021,2.1601798 0 0 0 2.5215,-2.162102 z"
         style="opacity:1;fill:none;fill-opacity:1;fill-rule:nonzero;stroke:#ff0000;stroke-width:0.90249997;stroke-linejoin:round;stroke-miterlimit:7.8342247;stroke-dasharray:none;stroke-opacity:1" />
      <path
         inkscape:connector-curvature="0"
         id="path4814"
         transform="scale(0.26458333)"
         d="m -1405.0303,-84.541634 a 2.52021,2.1601798 0 0 0 -2.5215,-2.1602 2.52021,2.1601798 0 0 0 -2.5195,2.1602 2.52021,2.1601798 0 0 0 2.5195,2.162102 2.52021,2.1601798 0 0 0 2.5215,-2.162102 z"
         style="opacity:1;fill:none;fill-opacity:1;fill-rule:nonzero;stroke:#ff0000;stroke-width:0.90249997;stroke-linejoin:round;stroke-miterlimit:7.8342247;stroke-dasharray:none;stroke-opacity:1" />
      <path
         inkscape:connector-curvature="0"
         id="path4812"
         transform="scale(0.26458333)"
         d="m -1414.8506,-84.541634 a 2.52021,2.1601798 0 0 0 -2.5196,-2.1602 2.52021,2.1601798 0 0 0 -2.5214,2.1602 2.52021,2.1601798 0 0 0 2.5214,2.162102 2.52021,2.1601798 0 0 0 2.5196,-2.162102 z"
         style="opacity:1;fill:none;fill-opacity:1;fill-rule:nonzero;stroke:#ff0000;stroke-width:0.90249997;stroke-linejoin:round;stroke-miterlimit:7.8342247;stroke-dasharray:none;stroke-opacity:1" />
      <path
         inkscape:connector-curvature="0"
         id="path4810"
         transform="scale(0.26458333)"
         d="m -1424.6709,-84.541634 a 2.52021,2.1601798 0 0 0 -2.5196,-2.1602 2.52021,2.1601798 0 0 0 -2.5215,2.1602 2.52021,2.1601798 0 0 0 2.5215,2.162102 2.52021,2.1601798 0 0 0 2.5196,-2.162102 z"
         style="opacity:1;fill:none;fill-opacity:1;fill-rule:nonzero;stroke:#ff0000;stroke-width:0.90249997;stroke-linejoin:round;stroke-miterlimit:7.8342247;stroke-dasharray:none;stroke-opacity:1" />
      <path
         inkscape:connector-curvature="0"
         id="path4808"
         transform="scale(0.26458333)"
         d="m -1434.4912,-84.541634 a 2.52021,2.1601798 0 0 0 -2.5196,-2.1602 2.52021,2.1601798 0 0 0 -2.5195,2.1602 2.52021,2.1601798 0 0 0 2.5195,2.162102 2.52021,2.1601798 0 0 0 2.5196,-2.162102 z"
         style="opacity:1;fill:none;fill-opacity:1;fill-rule:nonzero;stroke:#ff0000;stroke-width:0.90249997;stroke-linejoin:round;stroke-miterlimit:7.8342247;stroke-dasharray:none;stroke-opacity:1" />
      <path
         inkscape:connector-curvature="0"
         id="path4806"
         transform="scale(0.26458333)"
         d="m -1444.3116,-84.541634 a 2.52021,2.1601798 0 0 0 -2.5195,-2.1602 2.52021,2.1601798 0 0 0 -2.5195,2.1602 2.52021,2.1601798 0 0 0 2.5195,2.162102 2.52021,2.1601798 0 0 0 2.5195,-2.162102 z"
         style="opacity:1;fill:none;fill-opacity:1;fill-rule:nonzero;stroke:#ff0000;stroke-width:0.90249997;stroke-linejoin:round;stroke-miterlimit:7.8342247;stroke-dasharray:none;stroke-opacity:1" />
      <path
         inkscape:connector-curvature="0"
         id="path4804"
         transform="scale(0.26458333)"
         d="m -1454.1299,-84.541634 a 2.52021,2.1601798 0 0 0 -2.5215,-2.1602 2.52021,2.1601798 0 0 0 -2.5196,2.1602 2.52021,2.1601798 0 0 0 2.5196,2.162102 2.52021,2.1601798 0 0 0 2.5215,-2.162102 z"
         style="opacity:1;fill:none;fill-opacity:1;fill-rule:nonzero;stroke:#ff0000;stroke-width:0.90249997;stroke-linejoin:round;stroke-miterlimit:7.8342247;stroke-dasharray:none;stroke-opacity:1" />
      <path
         inkscape:connector-curvature="0"
         id="path4802"
         transform="scale(0.26458333)"
         d="m -1463.9502,-84.541634 a 2.52021,2.1601798 0 0 0 -2.5215,-2.1602 2.52021,2.1601798 0 0 0 -2.5196,2.1602 2.52021,2.1601798 0 0 0 2.5196,2.162102 2.52021,2.1601798 0 0 0 2.5215,-2.162102 z"
         style="opacity:1;fill:none;fill-opacity:1;fill-rule:nonzero;stroke:#ff0000;stroke-width:0.90249997;stroke-linejoin:round;stroke-miterlimit:7.8342247;stroke-dasharray:none;stroke-opacity:1" />
      <path
         inkscape:connector-curvature="0"
         id="path4800"
         transform="scale(0.26458333)"
         d="m -1473.7706,-84.541634 a 2.52021,2.1601798 0 0 0 -2.5195,-2.1602 2.52021,2.1601798 0 0 0 -2.5215,2.1602 2.52021,2.1601798 0 0 0 2.5215,2.162102 2.52021,2.1601798 0 0 0 2.5195,-2.162102 z"
         style="opacity:1;fill:none;fill-opacity:1;fill-rule:nonzero;stroke:#ff0000;stroke-width:0.90249997;stroke-linejoin:round;stroke-miterlimit:7.8342247;stroke-dasharray:none;stroke-opacity:1" />
      <path
         inkscape:connector-curvature="0"
         id="path4798"
         transform="scale(0.26458333)"
         d="m -1483.5909,-84.541634 a 2.52021,2.1601798 0 0 0 -2.5195,-2.1602 2.52021,2.1601798 0 0 0 -2.5215,2.1602 2.52021,2.1601798 0 0 0 2.5215,2.162102 2.52021,2.1601798 0 0 0 2.5195,-2.162102 z"
         style="opacity:1;fill:none;fill-opacity:1;fill-rule:nonzero;stroke:#ff0000;stroke-width:0.90249997;stroke-linejoin:round;stroke-miterlimit:7.8342247;stroke-dasharray:none;stroke-opacity:1" />
      <path
         inkscape:connector-curvature="0"
         id="path4796"
         transform="scale(0.26458333)"
         d="m -1493.4112,-84.541634 a 2.52021,2.1601798 0 0 0 -2.5195,-2.1602 2.52021,2.1601798 0 0 0 -2.5196,2.1602 2.52021,2.1601798 0 0 0 2.5196,2.162102 2.52021,2.1601798 0 0 0 2.5195,-2.162102 z"
         style="opacity:1;fill:none;fill-opacity:1;fill-rule:nonzero;stroke:#ff0000;stroke-width:0.90249997;stroke-linejoin:round;stroke-miterlimit:7.8342247;stroke-dasharray:none;stroke-opacity:1" />
      <path
         inkscape:connector-curvature="0"
         id="path4794"
         transform="scale(0.26458333)"
         d="m -1503.2295,-84.541634 a 2.52021,2.1601798 0 0 0 -2.5215,-2.1602 2.52021,2.1601798 0 0 0 -2.5196,2.1602 2.52021,2.1601798 0 0 0 2.5196,2.162102 2.52021,2.1601798 0 0 0 2.5215,-2.162102 z"
         style="opacity:1;fill:none;fill-opacity:1;fill-rule:nonzero;stroke:#ff0000;stroke-width:0.90249997;stroke-linejoin:round;stroke-miterlimit:7.8342247;stroke-dasharray:none;stroke-opacity:1" />
      <path
         inkscape:connector-curvature="0"
         id="path4792"
         transform="scale(0.26458333)"
         d="m -1513.0499,-84.541634 a 2.52021,2.1601798 0 0 0 -2.5214,-2.1602 2.52021,2.1601798 0 0 0 -2.5196,2.1602 2.52021,2.1601798 0 0 0 2.5196,2.162102 2.52021,2.1601798 0 0 0 2.5214,-2.162102 z"
         style="opacity:1;fill:none;fill-opacity:1;fill-rule:nonzero;stroke:#ff0000;stroke-width:0.90249997;stroke-linejoin:round;stroke-miterlimit:7.8342247;stroke-dasharray:none;stroke-opacity:1" />
      <path
         inkscape:connector-curvature="0"
         id="path4790"
         transform="scale(0.26458333)"
         d="m -1522.8702,-84.541634 a 2.52021,2.1601798 0 0 0 -2.5195,-2.1602 2.52021,2.1601798 0 0 0 -2.5215,2.1602 2.52021,2.1601798 0 0 0 2.5215,2.162102 2.52021,2.1601798 0 0 0 2.5195,-2.162102 z"
         style="opacity:1;fill:none;fill-opacity:1;fill-rule:nonzero;stroke:#ff0000;stroke-width:0.90249997;stroke-linejoin:round;stroke-miterlimit:7.8342247;stroke-dasharray:none;stroke-opacity:1" />
      <path
         inkscape:connector-curvature="0"
         id="path4788"
         transform="scale(0.26458333)"
         d="m -1532.6905,-84.541634 a 2.52021,2.1601798 0 0 0 -2.5195,-2.1602 2.52021,2.1601798 0 0 0 -2.5215,2.1602 2.52021,2.1601798 0 0 0 2.5215,2.162102 2.52021,2.1601798 0 0 0 2.5195,-2.162102 z"
         style="opacity:1;fill:none;fill-opacity:1;fill-rule:nonzero;stroke:#ff0000;stroke-width:0.90249997;stroke-linejoin:round;stroke-miterlimit:7.8342247;stroke-dasharray:none;stroke-opacity:1" />
      <path
         inkscape:connector-curvature="0"
         id="path4786"
         transform="scale(0.26458333)"
         d="m -1542.5108,-84.541634 a 2.52021,2.1601798 0 0 0 -2.5195,-2.1602 2.52021,2.1601798 0 0 0 -2.5195,2.1602 2.52021,2.1601798 0 0 0 2.5195,2.162102 2.52021,2.1601798 0 0 0 2.5195,-2.162102 z"
         style="opacity:1;fill:none;fill-opacity:1;fill-rule:nonzero;stroke:#ff0000;stroke-width:0.90249997;stroke-linejoin:round;stroke-miterlimit:7.8342247;stroke-dasharray:none;stroke-opacity:1" />
      <path
         inkscape:connector-curvature="0"
         id="path4784"
         transform="scale(0.26458333)"
         d="m -1552.3311,-84.541634 a 2.52021,2.1601798 0 0 0 -2.5195,-2.1602 2.52021,2.1601798 0 0 0 -2.5195,2.1602 2.52021,2.1601798 0 0 0 2.5195,2.162102 2.52021,2.1601798 0 0 0 2.5195,-2.162102 z"
         style="opacity:1;fill:none;fill-opacity:1;fill-rule:nonzero;stroke:#ff0000;stroke-width:0.90249997;stroke-linejoin:round;stroke-miterlimit:7.8342247;stroke-dasharray:none;stroke-opacity:1" />
      <path
         inkscape:connector-curvature="0"
         id="path4782"
         transform="scale(0.26458333)"
         d="m -1562.1495,-84.541634 a 2.52021,2.1601798 0 0 0 -2.5214,-2.1602 2.52021,2.1601798 0 0 0 -2.5196,2.1602 2.52021,2.1601798 0 0 0 2.5196,2.162102 2.52021,2.1601798 0 0 0 2.5214,-2.162102 z"
         style="opacity:1;fill:none;fill-opacity:1;fill-rule:nonzero;stroke:#ff0000;stroke-width:0.90249997;stroke-linejoin:round;stroke-miterlimit:7.8342247;stroke-dasharray:none;stroke-opacity:1" />
      <path
         inkscape:connector-curvature="0"
         id="path4780"
         transform="scale(0.26458333)"
         d="m -1571.9698,-84.541634 a 2.52021,2.1601798 0 0 0 -2.5215,-2.1602 2.52021,2.1601798 0 0 0 -2.5195,2.1602 2.52021,2.1601798 0 0 0 2.5195,2.162102 2.52021,2.1601798 0 0 0 2.5215,-2.162102 z"
         style="opacity:1;fill:none;fill-opacity:1;fill-rule:nonzero;stroke:#ff0000;stroke-width:0.90249997;stroke-linejoin:round;stroke-miterlimit:7.8342247;stroke-dasharray:none;stroke-opacity:1" />
      <path
         inkscape:connector-curvature="0"
         id="path4778"
         transform="scale(0.26458333)"
         d="m -1581.7901,-87.081544 a 2.52021,2.1601798 0 0 0 -2.5195,-2.160201 2.52021,2.1601798 0 0 0 -2.5215,2.160201 2.52021,2.1601798 0 0 0 2.5215,2.162101 2.52021,2.1601798 0 0 0 2.5195,-2.162101 z"
         style="opacity:1;fill:none;fill-opacity:1;fill-rule:nonzero;stroke:#ff0000;stroke-width:0.90249997;stroke-linejoin:round;stroke-miterlimit:7.8342247;stroke-dasharray:none;stroke-opacity:1" />
      <path
         inkscape:connector-curvature="0"
         id="path4776"
         transform="scale(0.26458333)"
         d="m -1590.0926,-91.012828 a 2.52021,2.1601798 0 0 0 -2.5195,-2.1602 2.52021,2.1601798 0 0 0 -2.5195,2.1602 2.52021,2.1601798 0 0 0 2.5195,2.162102 2.52021,2.1601798 0 0 0 2.5195,-2.162102 z"
         style="opacity:1;fill:none;fill-opacity:1;fill-rule:nonzero;stroke:#ff0000;stroke-width:0.90249997;stroke-linejoin:round;stroke-miterlimit:7.8342247;stroke-dasharray:none;stroke-opacity:1" />
      <path
         inkscape:connector-curvature="0"
         id="path4774"
         transform="scale(0.26458333)"
         d="m -1580.0486,-351.92481 a 2.1601798,2.52021 5.0652436 0 0 -2.3741,2.31897 2.1601798,2.52021 5.0652436 0 0 1.9291,2.70236 2.1601798,2.52021 5.0652436 0 0 2.3762,-2.32075 2.1601798,2.52021 5.0652436 0 0 -1.9312,-2.70058 z"
         style="opacity:1;fill:none;fill-opacity:1;fill-rule:nonzero;stroke:#ff0000;stroke-width:0.90249997;stroke-linejoin:round;stroke-miterlimit:7.8342247;stroke-dasharray:none;stroke-opacity:1" />
      <path
         inkscape:connector-curvature="0"
         id="path4772"
         transform="scale(0.26458333)"
         d="m -1584.7253,-342.14284 a 2.1601798,2.52021 5.0652436 0 0 -2.3743,2.31896 2.1601798,2.52021 5.0652436 0 0 1.9293,2.70041 2.1601798,2.52021 5.0652436 0 0 2.3761,-2.3188 2.1601798,2.52021 5.0652436 0 0 -1.9311,-2.70057 z"
         style="opacity:1;fill:none;fill-opacity:1;fill-rule:nonzero;stroke:#ff0000;stroke-width:0.90249997;stroke-linejoin:round;stroke-miterlimit:7.8342247;stroke-dasharray:none;stroke-opacity:1" />
      <path
         inkscape:connector-curvature="0"
         id="path4770"
         transform="scale(0.26458333)"
         d="m -1586.439,-332.36089 a 2.1601798,2.52021 5.0652436 0 0 -2.3742,2.31897 2.1601798,2.52021 5.0652436 0 0 1.9293,2.70042 2.1601798,2.52021 5.0652436 0 0 2.3761,-2.3188 2.1601798,2.52021 5.0652436 0 0 -1.9312,-2.70059 z"
         style="opacity:1;fill:none;fill-opacity:1;fill-rule:nonzero;stroke:#ff0000;stroke-width:0.90249997;stroke-linejoin:round;stroke-miterlimit:7.8342247;stroke-dasharray:none;stroke-opacity:1" />
      <path
         inkscape:connector-curvature="0"
         id="path4768"
         transform="scale(0.26458333)"
         d="m -1587.3059,-322.58087 a 2.1601798,2.52021 5.0652436 0 0 -2.3743,2.32092 2.1601798,2.52021 5.0652436 0 0 1.9293,2.70041 2.1601798,2.52021 5.0652436 0 0 2.376,-2.31879 2.1601798,2.52021 5.0652436 0 0 -1.931,-2.70254 z"
         style="opacity:1;fill:none;fill-opacity:1;fill-rule:nonzero;stroke:#ff0000;stroke-width:0.90249997;stroke-linejoin:round;stroke-miterlimit:7.8342247;stroke-dasharray:none;stroke-opacity:1" />
      <path
         inkscape:connector-curvature="0"
         id="path4766"
         transform="scale(0.26458333)"
         d="m -1588.1729,-312.7989 a 2.1601798,2.52021 5.0652436 0 0 -2.3744,2.32091 2.1601798,2.52021 5.0652436 0 0 1.9293,2.70042 2.1601798,2.52021 5.0652436 0 0 2.3761,-2.31881 2.1601798,2.52021 5.0652436 0 0 -1.931,-2.70252 z"
         style="opacity:1;fill:none;fill-opacity:1;fill-rule:nonzero;stroke:#ff0000;stroke-width:0.90249997;stroke-linejoin:round;stroke-miterlimit:7.8342247;stroke-dasharray:none;stroke-opacity:1" />
      <path
         inkscape:connector-curvature="0"
         id="path4764"
         transform="scale(0.26458333)"
         d="m -1589.0399,-303.01694 a 2.1601798,2.52021 5.0652436 0 0 -2.3743,2.31897 2.1601798,2.52021 5.0652436 0 0 1.9292,2.70236 2.1601798,2.52021 5.0652436 0 0 2.3762,-2.32075 2.1601798,2.52021 5.0652436 0 0 -1.9311,-2.70058 z"
         style="opacity:1;fill:none;fill-opacity:1;fill-rule:nonzero;stroke:#ff0000;stroke-width:0.90249997;stroke-linejoin:round;stroke-miterlimit:7.8342247;stroke-dasharray:none;stroke-opacity:1" />
      <path
         inkscape:connector-curvature="0"
         id="path4762"
         transform="scale(0.26458333)"
         d="m -1589.907,-293.23498 a 2.1601798,2.52021 5.0652436 0 0 -2.3742,2.31897 2.1601798,2.52021 5.0652436 0 0 1.9292,2.70236 2.1601798,2.52021 5.0652436 0 0 2.3762,-2.32075 2.1601798,2.52021 5.0652436 0 0 -1.9312,-2.70058 z"
         style="opacity:1;fill:none;fill-opacity:1;fill-rule:nonzero;stroke:#ff0000;stroke-width:0.90249997;stroke-linejoin:round;stroke-miterlimit:7.8342247;stroke-dasharray:none;stroke-opacity:1" />
      <path
         inkscape:connector-curvature="0"
         id="path4760"
         transform="scale(0.26458333)"
         d="m -1590.774,-283.45302 a 2.1601798,2.52021 5.0652436 0 0 -2.3742,2.31897 2.1601798,2.52021 5.0652436 0 0 1.9293,2.70042 2.1601798,2.52021 5.0652436 0 0 2.3761,-2.31881 2.1601798,2.52021 5.0652436 0 0 -1.9312,-2.70058 z"
         style="opacity:1;fill:none;fill-opacity:1;fill-rule:nonzero;stroke:#ff0000;stroke-width:0.90249997;stroke-linejoin:round;stroke-miterlimit:7.8342247;stroke-dasharray:none;stroke-opacity:1" />
      <path
         inkscape:connector-curvature="0"
         id="path4758"
         transform="scale(0.26458333)"
         d="m -1591.6409,-273.673 a 2.1601798,2.52021 5.0652436 0 0 -2.3744,2.32092 2.1601798,2.52021 5.0652436 0 0 1.9294,2.70041 2.1601798,2.52021 5.0652436 0 0 2.376,-2.3188 2.1601798,2.52021 5.0652436 0 0 -1.931,-2.70253 z"
         style="opacity:1;fill:none;fill-opacity:1;fill-rule:nonzero;stroke:#ff0000;stroke-width:0.90249997;stroke-linejoin:round;stroke-miterlimit:7.8342247;stroke-dasharray:none;stroke-opacity:1" />
      <path
         inkscape:connector-curvature="0"
         id="path4756"
         transform="scale(0.26458333)"
         d="m -1592.5079,-263.89104 a 2.1601798,2.52021 5.0652436 0 0 -2.3744,2.32091 2.1601798,2.52021 5.0652436 0 0 1.9293,2.70042 2.1601798,2.52021 5.0652436 0 0 2.3761,-2.3188 2.1601798,2.52021 5.0652436 0 0 -1.931,-2.70253 z"
         style="opacity:1;fill:none;fill-opacity:1;fill-rule:nonzero;stroke:#ff0000;stroke-width:0.90249997;stroke-linejoin:round;stroke-miterlimit:7.8342247;stroke-dasharray:none;stroke-opacity:1" />
      <path
         inkscape:connector-curvature="0"
         id="path4754"
         transform="scale(0.26458333)"
         d="m -1593.3749,-254.10908 a 2.1601798,2.52021 5.0652436 0 0 -2.3742,2.31897 2.1601798,2.52021 5.0652436 0 0 1.9291,2.70236 2.1601798,2.52021 5.0652436 0 0 2.3762,-2.32074 2.1601798,2.52021 5.0652436 0 0 -1.9311,-2.70059 z"
         style="opacity:1;fill:none;fill-opacity:1;fill-rule:nonzero;stroke:#ff0000;stroke-width:0.90249997;stroke-linejoin:round;stroke-miterlimit:7.8342247;stroke-dasharray:none;stroke-opacity:1" />
      <path
         inkscape:connector-curvature="0"
         id="path4752"
         transform="scale(0.26458333)"
         d="m -1594.242,-244.32712 a 2.1601798,2.52021 5.0652436 0 0 -2.3742,2.31897 2.1601798,2.52021 5.0652436 0 0 1.9291,2.70236 2.1601798,2.52021 5.0652436 0 0 2.3763,-2.32074 2.1601798,2.52021 5.0652436 0 0 -1.9312,-2.70059 z"
         style="opacity:1;fill:none;fill-opacity:1;fill-rule:nonzero;stroke:#ff0000;stroke-width:0.90249997;stroke-linejoin:round;stroke-miterlimit:7.8342247;stroke-dasharray:none;stroke-opacity:1" />
      <path
         inkscape:connector-curvature="0"
         id="path4750"
         transform="scale(0.26458333)"
         d="m -1595.109,-234.54515 a 2.1601798,2.52021 5.0652436 0 0 -2.3742,2.31897 2.1601798,2.52021 5.0652436 0 0 1.9293,2.70041 2.1601798,2.52021 5.0652436 0 0 2.3761,-2.3188 2.1601798,2.52021 5.0652436 0 0 -1.9312,-2.70058 z"
         style="opacity:1;fill:none;fill-opacity:1;fill-rule:nonzero;stroke:#ff0000;stroke-width:0.90249997;stroke-linejoin:round;stroke-miterlimit:7.8342247;stroke-dasharray:none;stroke-opacity:1" />
      <path
         inkscape:connector-curvature="0"
         id="path4748"
         transform="scale(0.26458333)"
         d="m -1595.9761,-224.76319 a 2.1601798,2.52021 5.0652436 0 0 -2.3741,2.31897 2.1601798,2.52021 5.0652436 0 0 1.9293,2.70041 2.1601798,2.52021 5.0652436 0 0 2.376,-2.3188 2.1601798,2.52021 5.0652436 0 0 -1.9312,-2.70058 z"
         style="opacity:1;fill:none;fill-opacity:1;fill-rule:nonzero;stroke:#ff0000;stroke-width:0.90249997;stroke-linejoin:round;stroke-miterlimit:7.8342247;stroke-dasharray:none;stroke-opacity:1" />
      <path
         inkscape:connector-curvature="0"
         id="path4746"
         transform="scale(0.26458333)"
         d="m -1596.8429,-214.98317 a 2.1601798,2.52021 5.0652436 0 0 -2.3744,2.32091 2.1601798,2.52021 5.0652436 0 0 1.9293,2.70042 2.1601798,2.52021 5.0652436 0 0 2.3761,-2.31881 2.1601798,2.52021 5.0652436 0 0 -1.931,-2.70252 z"
         style="opacity:1;fill:none;fill-opacity:1;fill-rule:nonzero;stroke:#ff0000;stroke-width:0.90249997;stroke-linejoin:round;stroke-miterlimit:7.8342247;stroke-dasharray:none;stroke-opacity:1" />
      <path
         inkscape:connector-curvature="0"
         id="path4744"
         transform="scale(0.26458333)"
         d="m -1597.71,-205.20121 a 2.1601798,2.52021 5.0652436 0 0 -2.3743,2.32091 2.1601798,2.52021 5.0652436 0 0 1.9293,2.70042 2.1601798,2.52021 5.0652436 0 0 2.376,-2.3188 2.1601798,2.52021 5.0652436 0 0 -1.931,-2.70253 z"
         style="opacity:1;fill:none;fill-opacity:1;fill-rule:nonzero;stroke:#ff0000;stroke-width:0.90249997;stroke-linejoin:round;stroke-miterlimit:7.8342247;stroke-dasharray:none;stroke-opacity:1" />
      <path
         inkscape:connector-curvature="0"
         id="path4742"
         transform="scale(0.26458333)"
         d="m -1598.577,-195.41925 a 2.1601798,2.52021 5.0652436 0 0 -2.3742,2.31897 2.1601798,2.52021 5.0652436 0 0 1.9291,2.70236 2.1601798,2.52021 5.0652436 0 0 2.3763,-2.32075 2.1601798,2.52021 5.0652436 0 0 -1.9312,-2.70058 z"
         style="opacity:1;fill:none;fill-opacity:1;fill-rule:nonzero;stroke:#ff0000;stroke-width:0.90249997;stroke-linejoin:round;stroke-miterlimit:7.8342247;stroke-dasharray:none;stroke-opacity:1" />
      <path
         inkscape:connector-curvature="0"
         id="path4740"
         transform="scale(0.26458333)"
         d="m -1599.444,-185.63729 a 2.1601798,2.52021 5.0652436 0 0 -2.3742,2.31897 2.1601798,2.52021 5.0652436 0 0 1.9293,2.70041 2.1601798,2.52021 5.0652436 0 0 2.376,-2.3188 2.1601798,2.52021 5.0652436 0 0 -1.9311,-2.70058 z"
         style="opacity:1;fill:none;fill-opacity:1;fill-rule:nonzero;stroke:#ff0000;stroke-width:0.90249997;stroke-linejoin:round;stroke-miterlimit:7.8342247;stroke-dasharray:none;stroke-opacity:1" />
      <path
         inkscape:connector-curvature="0"
         id="path4738"
         transform="scale(0.26458333)"
         d="m -1600.3111,-175.85532 a 2.1601798,2.52021 5.0652436 0 0 -2.3741,2.31896 2.1601798,2.52021 5.0652436 0 0 1.9292,2.70042 2.1601798,2.52021 5.0652436 0 0 2.3761,-2.3188 2.1601798,2.52021 5.0652436 0 0 -1.9312,-2.70058 z"
         style="opacity:1;fill:none;fill-opacity:1;fill-rule:nonzero;stroke:#ff0000;stroke-width:0.90249997;stroke-linejoin:round;stroke-miterlimit:7.8342247;stroke-dasharray:none;stroke-opacity:1" />
      <path
         inkscape:connector-curvature="0"
         id="path4736"
         transform="scale(0.26458333)"
         d="m -1601.1779,-166.07531 a 2.1601798,2.52021 5.0652436 0 0 -2.3744,2.32092 2.1601798,2.52021 5.0652436 0 0 1.9293,2.70041 2.1601798,2.52021 5.0652436 0 0 2.3761,-2.3188 2.1601798,2.52021 5.0652436 0 0 -1.931,-2.70253 z"
         style="opacity:1;fill:none;fill-opacity:1;fill-rule:nonzero;stroke:#ff0000;stroke-width:0.90249997;stroke-linejoin:round;stroke-miterlimit:7.8342247;stroke-dasharray:none;stroke-opacity:1" />
      <path
         inkscape:connector-curvature="0"
         id="path4734"
         transform="scale(0.26458333)"
         d="m -1602.045,-156.29334 a 2.1601798,2.52021 5.0652436 0 0 -2.3743,2.32091 2.1601798,2.52021 5.0652436 0 0 1.9293,2.70041 2.1601798,2.52021 5.0652436 0 0 2.376,-2.3188 2.1601798,2.52021 5.0652436 0 0 -1.931,-2.70252 z"
         style="opacity:1;fill:none;fill-opacity:1;fill-rule:nonzero;stroke:#ff0000;stroke-width:0.90249997;stroke-linejoin:round;stroke-miterlimit:7.8342247;stroke-dasharray:none;stroke-opacity:1" />
      <path
         inkscape:connector-curvature="0"
         id="path4732"
         transform="scale(0.26458333)"
         d="m -1602.912,-146.51138 a 2.1601798,2.52021 5.0652436 0 0 -2.3742,2.31897 2.1601798,2.52021 5.0652436 0 0 1.9291,2.70236 2.1601798,2.52021 5.0652436 0 0 2.3763,-2.32075 2.1601798,2.52021 5.0652436 0 0 -1.9312,-2.70058 z"
         style="opacity:1;fill:none;fill-opacity:1;fill-rule:nonzero;stroke:#ff0000;stroke-width:0.90249997;stroke-linejoin:round;stroke-miterlimit:7.8342247;stroke-dasharray:none;stroke-opacity:1" />
      <path
         inkscape:connector-curvature="0"
         id="path4730"
         transform="scale(0.26458333)"
         d="m -1603.779,-136.72942 a 2.1601798,2.52021 5.0652436 0 0 -2.3743,2.31897 2.1601798,2.52021 5.0652436 0 0 1.9292,2.70236 2.1601798,2.52021 5.0652436 0 0 2.3762,-2.32075 2.1601798,2.52021 5.0652436 0 0 -1.9311,-2.70058 z"
         style="opacity:1;fill:none;fill-opacity:1;fill-rule:nonzero;stroke:#ff0000;stroke-width:0.90249997;stroke-linejoin:round;stroke-miterlimit:7.8342247;stroke-dasharray:none;stroke-opacity:1" />
      <path
         inkscape:connector-curvature="0"
         id="path4728"
         transform="scale(0.26458333)"
         d="m -1604.6461,-126.94745 a 2.1601798,2.52021 5.0652436 0 0 -2.3742,2.31896 2.1601798,2.52021 5.0652436 0 0 1.9293,2.70042 2.1601798,2.52021 5.0652436 0 0 2.3761,-2.3188 2.1601798,2.52021 5.0652436 0 0 -1.9312,-2.70058 z"
         style="opacity:1;fill:none;fill-opacity:1;fill-rule:nonzero;stroke:#ff0000;stroke-width:0.90249997;stroke-linejoin:round;stroke-miterlimit:7.8342247;stroke-dasharray:none;stroke-opacity:1" />
      <path
         inkscape:connector-curvature="0"
         id="path4726"
         transform="scale(0.26458333)"
         d="m -1605.5129,-117.16744 a 2.1601798,2.52021 5.0652436 0 0 -2.3744,2.32092 2.1601798,2.52021 5.0652436 0 0 1.9293,2.70041 2.1601798,2.52021 5.0652436 0 0 2.3761,-2.3188 2.1601798,2.52021 5.0652436 0 0 -1.931,-2.70253 z"
         style="opacity:1;fill:none;fill-opacity:1;fill-rule:nonzero;stroke:#ff0000;stroke-width:0.90249997;stroke-linejoin:round;stroke-miterlimit:7.8342247;stroke-dasharray:none;stroke-opacity:1" />
      <path
         inkscape:connector-curvature="0"
         id="path4724"
         transform="scale(0.26458333)"
         d="m -1602.9935,-107.38548 a 2.1601798,2.52021 5.0652436 0 0 -2.3744,2.32092 2.1601798,2.52021 5.0652436 0 0 1.9293,2.70041 2.1601798,2.52021 5.0652436 0 0 2.3761,-2.3188 2.1601798,2.52021 5.0652436 0 0 -1.931,-2.70253 z"
         style="opacity:1;fill:none;fill-opacity:1;fill-rule:nonzero;stroke:#ff0000;stroke-width:0.90249997;stroke-linejoin:round;stroke-miterlimit:7.8342247;stroke-dasharray:none;stroke-opacity:1" />
      <path
         inkscape:connector-curvature="0"
         id="path4722"
         transform="scale(0.26458333)"
         d="m -1598.6921,-99.454134 a 2.1601798,2.52021 5.0652436 0 0 -2.3742,2.318971 2.1601798,2.52021 5.0652436 0 0 1.9292,2.702362 2.1601798,2.52021 5.0652436 0 0 2.3763,-2.320751 2.1601798,2.52021 5.0652436 0 0 -1.9313,-2.700582 z"
         style="opacity:1;fill:none;fill-opacity:1;fill-rule:nonzero;stroke:#ff0000;stroke-width:0.90249997;stroke-linejoin:round;stroke-miterlimit:7.8342247;stroke-dasharray:none;stroke-opacity:1" />
      <path
         inkscape:connector-curvature="0"
         id="path4720"
         transform="scale(0.26458333)"
         d="m -1293.8463,-351.92481 a 2.52021,2.1601798 84.934756 0 1 2.3742,2.31897 2.52021,2.1601798 84.934756 0 1 -1.9291,2.70236 2.52021,2.1601798 84.934756 0 1 -2.3763,-2.32075 2.52021,2.1601798 84.934756 0 1 1.9312,-2.70058 z"
         style="opacity:1;fill:none;fill-opacity:1;fill-rule:nonzero;stroke:#ff0000;stroke-width:0.90249997;stroke-linejoin:round;stroke-miterlimit:7.8342247;stroke-dasharray:none;stroke-opacity:1" />
      <path
         inkscape:connector-curvature="0"
         id="path4718"
         transform="scale(0.26458333)"
         d="m -1289.5928,-342.14284 a 2.52021,2.1601798 84.934756 0 1 2.3742,2.31896 2.52021,2.1601798 84.934756 0 1 -1.9293,2.70041 2.52021,2.1601798 84.934756 0 1 -2.3761,-2.3188 2.52021,2.1601798 84.934756 0 1 1.9312,-2.70057 z"
         style="opacity:1;fill:none;fill-opacity:1;fill-rule:nonzero;stroke:#ff0000;stroke-width:0.90249997;stroke-linejoin:round;stroke-miterlimit:7.8342247;stroke-dasharray:none;stroke-opacity:1" />
      <path
         inkscape:connector-curvature="0"
         id="path4716"
         transform="scale(0.26458333)"
         d="m -1287.4559,-332.36089 a 2.52021,2.1601798 84.934756 0 1 2.3743,2.31897 2.52021,2.1601798 84.934756 0 1 -1.9293,2.70042 2.52021,2.1601798 84.934756 0 1 -2.3761,-2.3188 2.52021,2.1601798 84.934756 0 1 1.9311,-2.70059 z"
         style="opacity:1;fill:none;fill-opacity:1;fill-rule:nonzero;stroke:#ff0000;stroke-width:0.90249997;stroke-linejoin:round;stroke-miterlimit:7.8342247;stroke-dasharray:none;stroke-opacity:1" />
      <path
         inkscape:connector-curvature="0"
         id="path4714"
         transform="scale(0.26458333)"
         d="m -1286.589,-322.58087 a 2.52021,2.1601798 84.934756 0 1 2.3744,2.32092 2.52021,2.1601798 84.934756 0 1 -1.9293,2.70041 2.52021,2.1601798 84.934756 0 1 -2.3761,-2.31879 2.52021,2.1601798 84.934756 0 1 1.931,-2.70254 z"
         style="opacity:1;fill:none;fill-opacity:1;fill-rule:nonzero;stroke:#ff0000;stroke-width:0.90249997;stroke-linejoin:round;stroke-miterlimit:7.8342247;stroke-dasharray:none;stroke-opacity:1" />
      <path
         inkscape:connector-curvature="0"
         id="path4712"
         transform="scale(0.26458333)"
         d="m -1285.7219,-312.7989 a 2.52021,2.1601798 84.934756 0 1 2.3743,2.32091 2.52021,2.1601798 84.934756 0 1 -1.9293,2.70042 2.52021,2.1601798 84.934756 0 1 -2.3761,-2.31881 2.52021,2.1601798 84.934756 0 1 1.9311,-2.70252 z"
         style="opacity:1;fill:none;fill-opacity:1;fill-rule:nonzero;stroke:#ff0000;stroke-width:0.90249997;stroke-linejoin:round;stroke-miterlimit:7.8342247;stroke-dasharray:none;stroke-opacity:1" />
      <path
         inkscape:connector-curvature="0"
         id="path4710"
         transform="scale(0.26458333)"
         d="m -1284.8549,-303.01694 a 2.52021,2.1601798 84.934756 0 1 2.3742,2.31897 2.52021,2.1601798 84.934756 0 1 -1.9291,2.70236 2.52021,2.1601798 84.934756 0 1 -2.3763,-2.32075 2.52021,2.1601798 84.934756 0 1 1.9312,-2.70058 z"
         style="opacity:1;fill:none;fill-opacity:1;fill-rule:nonzero;stroke:#ff0000;stroke-width:0.90249997;stroke-linejoin:round;stroke-miterlimit:7.8342247;stroke-dasharray:none;stroke-opacity:1" />
      <path
         inkscape:connector-curvature="0"
         id="path4708"
         transform="scale(0.26458333)"
         d="m -1283.9879,-293.23498 a 2.52021,2.1601798 84.934756 0 1 2.3742,2.31897 2.52021,2.1601798 84.934756 0 1 -1.9291,2.70236 2.52021,2.1601798 84.934756 0 1 -2.3762,-2.32075 2.52021,2.1601798 84.934756 0 1 1.9311,-2.70058 z"
         style="opacity:1;fill:none;fill-opacity:1;fill-rule:nonzero;stroke:#ff0000;stroke-width:0.90249997;stroke-linejoin:round;stroke-miterlimit:7.8342247;stroke-dasharray:none;stroke-opacity:1" />
      <path
         inkscape:connector-curvature="0"
         id="path4706"
         transform="scale(0.26458333)"
         d="m -1283.1208,-283.45302 a 2.52021,2.1601798 84.934756 0 1 2.3742,2.31897 2.52021,2.1601798 84.934756 0 1 -1.9293,2.70042 2.52021,2.1601798 84.934756 0 1 -2.3761,-2.31881 2.52021,2.1601798 84.934756 0 1 1.9312,-2.70058 z"
         style="opacity:1;fill:none;fill-opacity:1;fill-rule:nonzero;stroke:#ff0000;stroke-width:0.90249997;stroke-linejoin:round;stroke-miterlimit:7.8342247;stroke-dasharray:none;stroke-opacity:1" />
      <path
         inkscape:connector-curvature="0"
         id="path4704"
         transform="scale(0.26458333)"
         d="m -1282.254,-273.673 a 2.52021,2.1601798 84.934756 0 1 2.3744,2.32092 2.52021,2.1601798 84.934756 0 1 -1.9293,2.70041 2.52021,2.1601798 84.934756 0 1 -2.3761,-2.3188 2.52021,2.1601798 84.934756 0 1 1.931,-2.70253 z"
         style="opacity:1;fill:none;fill-opacity:1;fill-rule:nonzero;stroke:#ff0000;stroke-width:0.90249997;stroke-linejoin:round;stroke-miterlimit:7.8342247;stroke-dasharray:none;stroke-opacity:1" />
      <path
         inkscape:connector-curvature="0"
         id="path4702"
         transform="scale(0.26458333)"
         d="m -1281.3869,-263.89104 a 2.52021,2.1601798 84.934756 0 1 2.3743,2.32091 2.52021,2.1601798 84.934756 0 1 -1.9293,2.70042 2.52021,2.1601798 84.934756 0 1 -2.376,-2.3188 2.52021,2.1601798 84.934756 0 1 1.931,-2.70253 z"
         style="opacity:1;fill:none;fill-opacity:1;fill-rule:nonzero;stroke:#ff0000;stroke-width:0.90249997;stroke-linejoin:round;stroke-miterlimit:7.8342247;stroke-dasharray:none;stroke-opacity:1" />
      <path
         inkscape:connector-curvature="0"
         id="path4700"
         transform="scale(0.26458333)"
         d="m -1280.5199,-254.10908 a 2.52021,2.1601798 84.934756 0 1 2.3742,2.31897 2.52021,2.1601798 84.934756 0 1 -1.9291,2.70236 2.52021,2.1601798 84.934756 0 1 -2.3763,-2.32074 2.52021,2.1601798 84.934756 0 1 1.9312,-2.70059 z"
         style="opacity:1;fill:none;fill-opacity:1;fill-rule:nonzero;stroke:#ff0000;stroke-width:0.90249997;stroke-linejoin:round;stroke-miterlimit:7.8342247;stroke-dasharray:none;stroke-opacity:1" />
      <path
         inkscape:connector-curvature="0"
         id="path4698"
         transform="scale(0.26458333)"
         d="m -1279.6528,-244.32712 a 2.52021,2.1601798 84.934756 0 1 2.3741,2.31897 2.52021,2.1601798 84.934756 0 1 -1.9291,2.70236 2.52021,2.1601798 84.934756 0 1 -2.3763,-2.32074 2.52021,2.1601798 84.934756 0 1 1.9313,-2.70059 z"
         style="opacity:1;fill:none;fill-opacity:1;fill-rule:nonzero;stroke:#ff0000;stroke-width:0.90249997;stroke-linejoin:round;stroke-miterlimit:7.8342247;stroke-dasharray:none;stroke-opacity:1" />
      <path
         inkscape:connector-curvature="0"
         id="path4696"
         transform="scale(0.26458333)"
         d="m -1278.7858,-234.54515 a 2.52021,2.1601798 84.934756 0 1 2.3742,2.31897 2.52021,2.1601798 84.934756 0 1 -1.9293,2.70041 2.52021,2.1601798 84.934756 0 1 -2.3761,-2.3188 2.52021,2.1601798 84.934756 0 1 1.9312,-2.70058 z"
         style="opacity:1;fill:none;fill-opacity:1;fill-rule:nonzero;stroke:#ff0000;stroke-width:0.90249997;stroke-linejoin:round;stroke-miterlimit:7.8342247;stroke-dasharray:none;stroke-opacity:1" />
      <path
         inkscape:connector-curvature="0"
         id="path4694"
         transform="scale(0.26458333)"
         d="m -1277.9188,-224.76319 a 2.52021,2.1601798 84.934756 0 1 2.3742,2.31897 2.52021,2.1601798 84.934756 0 1 -1.9293,2.70041 2.52021,2.1601798 84.934756 0 1 -2.3761,-2.3188 2.52021,2.1601798 84.934756 0 1 1.9312,-2.70058 z"
         style="opacity:1;fill:none;fill-opacity:1;fill-rule:nonzero;stroke:#ff0000;stroke-width:0.90249997;stroke-linejoin:round;stroke-miterlimit:7.8342247;stroke-dasharray:none;stroke-opacity:1" />
      <path
         inkscape:connector-curvature="0"
         id="path4692"
         transform="scale(0.26458333)"
         d="m -1277.0519,-214.98317 a 2.52021,2.1601798 84.934756 0 1 2.3743,2.32091 2.52021,2.1601798 84.934756 0 1 -1.9293,2.70042 2.52021,2.1601798 84.934756 0 1 -2.3761,-2.31881 2.52021,2.1601798 84.934756 0 1 1.9311,-2.70252 z"
         style="opacity:1;fill:none;fill-opacity:1;fill-rule:nonzero;stroke:#ff0000;stroke-width:0.90249997;stroke-linejoin:round;stroke-miterlimit:7.8342247;stroke-dasharray:none;stroke-opacity:1" />
      <path
         inkscape:connector-curvature="0"
         id="path4690"
         transform="scale(0.26458333)"
         d="m -1276.1849,-205.20121 a 2.52021,2.1601798 84.934756 0 1 2.3744,2.32091 2.52021,2.1601798 84.934756 0 1 -1.9293,2.70042 2.52021,2.1601798 84.934756 0 1 -2.3761,-2.3188 2.52021,2.1601798 84.934756 0 1 1.931,-2.70253 z"
         style="opacity:1;fill:none;fill-opacity:1;fill-rule:nonzero;stroke:#ff0000;stroke-width:0.90249997;stroke-linejoin:round;stroke-miterlimit:7.8342247;stroke-dasharray:none;stroke-opacity:1" />
      <path
         inkscape:connector-curvature="0"
         id="path4688"
         transform="scale(0.26458333)"
         d="m -1275.3179,-195.41925 a 2.52021,2.1601798 84.934756 0 1 2.3742,2.31897 2.52021,2.1601798 84.934756 0 1 -1.9291,2.70236 2.52021,2.1601798 84.934756 0 1 -2.3763,-2.32075 2.52021,2.1601798 84.934756 0 1 1.9312,-2.70058 z"
         style="opacity:1;fill:none;fill-opacity:1;fill-rule:nonzero;stroke:#ff0000;stroke-width:0.90249997;stroke-linejoin:round;stroke-miterlimit:7.8342247;stroke-dasharray:none;stroke-opacity:1" />
      <path
         inkscape:connector-curvature="0"
         id="path4686"
         transform="scale(0.26458333)"
         d="m -1274.4509,-185.63729 a 2.52021,2.1601798 84.934756 0 1 2.3743,2.31897 2.52021,2.1601798 84.934756 0 1 -1.9293,2.70041 2.52021,2.1601798 84.934756 0 1 -2.3761,-2.3188 2.52021,2.1601798 84.934756 0 1 1.9311,-2.70058 z"
         style="opacity:1;fill:none;fill-opacity:1;fill-rule:nonzero;stroke:#ff0000;stroke-width:0.90249997;stroke-linejoin:round;stroke-miterlimit:7.8342247;stroke-dasharray:none;stroke-opacity:1" />
      <path
         inkscape:connector-curvature="0"
         id="path4684"
         transform="scale(0.26458333)"
         d="m -1273.5838,-175.85532 a 2.52021,2.1601798 84.934756 0 1 2.3742,2.31896 2.52021,2.1601798 84.934756 0 1 -1.9293,2.70042 2.52021,2.1601798 84.934756 0 1 -2.3761,-2.3188 2.52021,2.1601798 84.934756 0 1 1.9312,-2.70058 z"
         style="opacity:1;fill:none;fill-opacity:1;fill-rule:nonzero;stroke:#ff0000;stroke-width:0.90249997;stroke-linejoin:round;stroke-miterlimit:7.8342247;stroke-dasharray:none;stroke-opacity:1" />
      <path
         inkscape:connector-curvature="0"
         id="path4681"
         transform="scale(0.26458333)"
         d="m -1272.7169,-166.07531 a 2.52021,2.1601798 84.934756 0 1 2.3744,2.32092 2.52021,2.1601798 84.934756 0 1 -1.9293,2.70041 2.52021,2.1601798 84.934756 0 1 -2.3762,-2.3188 2.52021,2.1601798 84.934756 0 1 1.9311,-2.70253 z"
         style="opacity:1;fill:none;fill-opacity:1;fill-rule:nonzero;stroke:#ff0000;stroke-width:0.90249997;stroke-linejoin:round;stroke-miterlimit:7.8342247;stroke-dasharray:none;stroke-opacity:1" />
      <path
         inkscape:connector-curvature="0"
         id="path4678"
         transform="scale(0.26458333)"
         d="m -1271.8499,-156.29334 a 2.52021,2.1601798 84.934756 0 1 2.3744,2.32091 2.52021,2.1601798 84.934756 0 1 -1.9293,2.70041 2.52021,2.1601798 84.934756 0 1 -2.3761,-2.3188 2.52021,2.1601798 84.934756 0 1 1.931,-2.70252 z"
         style="opacity:1;fill:none;fill-opacity:1;fill-rule:nonzero;stroke:#ff0000;stroke-width:0.90249997;stroke-linejoin:round;stroke-miterlimit:7.8342247;stroke-dasharray:none;stroke-opacity:1" />
      <path
         inkscape:connector-curvature="0"
         id="path4676"
         transform="scale(0.26458333)"
         d="m -1270.9828,-146.51138 a 2.52021,2.1601798 84.934756 0 1 2.3742,2.31897 2.52021,2.1601798 84.934756 0 1 -1.9292,2.70236 2.52021,2.1601798 84.934756 0 1 -2.3762,-2.32075 2.52021,2.1601798 84.934756 0 1 1.9312,-2.70058 z"
         style="opacity:1;fill:none;fill-opacity:1;fill-rule:nonzero;stroke:#ff0000;stroke-width:0.90249997;stroke-linejoin:round;stroke-miterlimit:7.8342247;stroke-dasharray:none;stroke-opacity:1" />
      <path
         inkscape:connector-curvature="0"
         id="path4674"
         transform="scale(0.26458333)"
         d="m -1270.1158,-136.72942 a 2.52021,2.1601798 84.934756 0 1 2.3742,2.31897 2.52021,2.1601798 84.934756 0 1 -1.9291,2.70236 2.52021,2.1601798 84.934756 0 1 -2.3763,-2.32075 2.52021,2.1601798 84.934756 0 1 1.9312,-2.70058 z"
         style="opacity:1;fill:none;fill-opacity:1;fill-rule:nonzero;stroke:#ff0000;stroke-width:0.90249997;stroke-linejoin:round;stroke-miterlimit:7.8342247;stroke-dasharray:none;stroke-opacity:1" />
      <path
         inkscape:connector-curvature="0"
         id="path4672"
         transform="scale(0.26458333)"
         d="m -1269.2488,-126.94745 a 2.52021,2.1601798 84.934756 0 1 2.3742,2.31896 2.52021,2.1601798 84.934756 0 1 -1.9293,2.70042 2.52021,2.1601798 84.934756 0 1 -2.3761,-2.3188 2.52021,2.1601798 84.934756 0 1 1.9312,-2.70058 z"
         style="opacity:1;fill:none;fill-opacity:1;fill-rule:nonzero;stroke:#ff0000;stroke-width:0.90249997;stroke-linejoin:round;stroke-miterlimit:7.8342247;stroke-dasharray:none;stroke-opacity:1" />
      <path
         inkscape:connector-curvature="0"
         id="path4670"
         transform="scale(0.26458333)"
         d="m -1268.3819,-117.16744 a 2.52021,2.1601798 84.934756 0 1 2.3744,2.32092 2.52021,2.1601798 84.934756 0 1 -1.9293,2.70041 2.52021,2.1601798 84.934756 0 1 -2.3761,-2.3188 2.52021,2.1601798 84.934756 0 1 1.931,-2.70253 z"
         style="opacity:1;fill:none;fill-opacity:1;fill-rule:nonzero;stroke:#ff0000;stroke-width:0.90249997;stroke-linejoin:round;stroke-miterlimit:7.8342247;stroke-dasharray:none;stroke-opacity:1" />
      <path
         inkscape:connector-curvature="0"
         id="path4668"
         transform="scale(0.26458333)"
         d="m -1270.9013,-107.38548 a 2.52021,2.1601798 84.934756 0 1 2.3743,2.32092 2.52021,2.1601798 84.934756 0 1 -1.9292,2.70041 2.52021,2.1601798 84.934756 0 1 -2.3761,-2.3188 2.52021,2.1601798 84.934756 0 1 1.931,-2.70253 z"
         style="opacity:1;fill:none;fill-opacity:1;fill-rule:nonzero;stroke:#ff0000;stroke-width:0.90249997;stroke-linejoin:round;stroke-miterlimit:7.8342247;stroke-dasharray:none;stroke-opacity:1" />
      <path
         inkscape:connector-curvature="0"
         id="path4666"
         transform="scale(0.26458333)"
         d="m -1275.2453,-99.312923 a 2.52021,2.1601798 84.934756 0 1 2.3741,2.31897 2.52021,2.1601798 84.934756 0 1 -1.9291,2.702363 2.52021,2.1601798 84.934756 0 1 -2.3763,-2.320751 2.52021,2.1601798 84.934756 0 1 1.9313,-2.700582 z"
         style="opacity:1;fill:none;fill-opacity:1;fill-rule:nonzero;stroke:#ff0000;stroke-width:0.90249997;stroke-linejoin:round;stroke-miterlimit:7.8342247;stroke-dasharray:none;stroke-opacity:1" />
      <path
         inkscape:connector-curvature="0"
         id="path4664"
         transform="scale(0.26458333)"
         d="m -1297.0108,-356.48077 a 2.52021,2.1601798 0 0 0 -2.5215,-2.1602 2.52021,2.1601798 0 0 0 -2.5195,2.1602 2.52021,2.1601798 0 0 0 2.5195,2.1621 2.52021,2.1601798 0 0 0 2.5215,-2.1621 z"
         style="opacity:1;fill:none;fill-opacity:1;fill-rule:nonzero;stroke:#ff0000;stroke-width:0.90249997;stroke-linejoin:round;stroke-miterlimit:7.8342247;stroke-dasharray:none;stroke-opacity:1" />
      <path
         inkscape:connector-curvature="0"
         id="path4662"
         transform="scale(0.26458333)"
         d="m -1306.8311,-362.83055 a 2.52021,2.1601798 0 0 0 -2.5215,-2.1602 2.52021,2.1601798 0 0 0 -2.5195,2.1602 2.52021,2.1601798 0 0 0 2.5195,2.1621 2.52021,2.1601798 0 0 0 2.5215,-2.1621 z"
         style="opacity:1;fill:none;fill-opacity:1;fill-rule:nonzero;stroke:#ff0000;stroke-width:0.90249997;stroke-linejoin:round;stroke-miterlimit:7.8342247;stroke-dasharray:none;stroke-opacity:1" />
      <path
         inkscape:connector-curvature="0"
         id="path4660"
         transform="scale(0.26458333)"
         d="m -1316.6514,-364.94714 a 2.52021,2.1601798 0 0 0 -2.5195,-2.1602 2.52021,2.1601798 0 0 0 -2.5215,2.1602 2.52021,2.1601798 0 0 0 2.5215,2.1621 2.52021,2.1601798 0 0 0 2.5195,-2.1621 z"
         style="opacity:1;fill:none;fill-opacity:1;fill-rule:nonzero;stroke:#ff0000;stroke-width:0.90249997;stroke-linejoin:round;stroke-miterlimit:7.8342247;stroke-dasharray:none;stroke-opacity:1" />
      <path
         inkscape:connector-curvature="0"
         id="path4658"
         transform="scale(0.26458333)"
         d="m -1326.4717,-364.94714 a 2.52021,2.1601798 0 0 0 -2.5195,-2.1602 2.52021,2.1601798 0 0 0 -2.5196,2.1602 2.52021,2.1601798 0 0 0 2.5196,2.1621 2.52021,2.1601798 0 0 0 2.5195,-2.1621 z"
         style="opacity:1;fill:none;fill-opacity:1;fill-rule:nonzero;stroke:#ff0000;stroke-width:0.90249997;stroke-linejoin:round;stroke-miterlimit:7.8342247;stroke-dasharray:none;stroke-opacity:1" />
      <path
         inkscape:connector-curvature="0"
         id="path4656"
         transform="scale(0.26458333)"
         d="m -1336.292,-364.94714 a 2.52021,2.1601798 0 0 0 -2.5196,-2.1602 2.52021,2.1601798 0 0 0 -2.5195,2.1602 2.52021,2.1601798 0 0 0 2.5195,2.1621 2.52021,2.1601798 0 0 0 2.5196,-2.1621 z"
         style="opacity:1;fill:none;fill-opacity:1;fill-rule:nonzero;stroke:#ff0000;stroke-width:0.90249997;stroke-linejoin:round;stroke-miterlimit:7.8342247;stroke-dasharray:none;stroke-opacity:1" />
      <path
         inkscape:connector-curvature="0"
         id="path4654"
         transform="scale(0.26458333)"
         d="m -1346.1104,-364.94714 a 2.52021,2.1601798 0 0 0 -2.5215,-2.1602 2.52021,2.1601798 0 0 0 -2.5195,2.1602 2.52021,2.1601798 0 0 0 2.5195,2.1621 2.52021,2.1601798 0 0 0 2.5215,-2.1621 z"
         style="opacity:1;fill:none;fill-opacity:1;fill-rule:nonzero;stroke:#ff0000;stroke-width:0.90249997;stroke-linejoin:round;stroke-miterlimit:7.8342247;stroke-dasharray:none;stroke-opacity:1" />
      <path
         inkscape:connector-curvature="0"
         id="path4651"
         transform="scale(0.26458333)"
         d="m -1355.9307,-364.94714 a 2.52021,2.1601798 0 0 0 -2.5215,-2.1602 2.52021,2.1601798 0 0 0 -2.5195,2.1602 2.52021,2.1601798 0 0 0 2.5195,2.1621 2.52021,2.1601798 0 0 0 2.5215,-2.1621 z"
         style="opacity:1;fill:none;fill-opacity:1;fill-rule:nonzero;stroke:#ff0000;stroke-width:0.90249997;stroke-linejoin:round;stroke-miterlimit:7.8342247;stroke-dasharray:none;stroke-opacity:1" />
      <path
         inkscape:connector-curvature="0"
         id="path4649"
         transform="scale(0.26458333)"
         d="m -1365.751,-364.94714 a 2.52021,2.1601798 0 0 0 -2.5196,-2.1602 2.52021,2.1601798 0 0 0 -2.5214,2.1602 2.52021,2.1601798 0 0 0 2.5214,2.1621 2.52021,2.1601798 0 0 0 2.5196,-2.1621 z"
         style="opacity:1;fill:none;fill-opacity:1;fill-rule:nonzero;stroke:#ff0000;stroke-width:0.90249997;stroke-linejoin:round;stroke-miterlimit:7.8342247;stroke-dasharray:none;stroke-opacity:1" />
      <path
         inkscape:connector-curvature="0"
         id="path4647"
         transform="scale(0.26458333)"
         d="m -1375.5713,-364.94714 a 2.52021,2.1601798 0 0 0 -2.5196,-2.1602 2.52021,2.1601798 0 0 0 -2.5214,2.1602 2.52021,2.1601798 0 0 0 2.5214,2.1621 2.52021,2.1601798 0 0 0 2.5196,-2.1621 z"
         style="opacity:1;fill:none;fill-opacity:1;fill-rule:nonzero;stroke:#ff0000;stroke-width:0.90249997;stroke-linejoin:round;stroke-miterlimit:7.8342247;stroke-dasharray:none;stroke-opacity:1" />
      <path
         inkscape:connector-curvature="0"
         id="path4645"
         transform="scale(0.26458333)"
         d="m -1385.3917,-364.94714 a 2.52021,2.1601798 0 0 0 -2.5195,-2.1602 2.52021,2.1601798 0 0 0 -2.5195,2.1602 2.52021,2.1601798 0 0 0 2.5195,2.1621 2.52021,2.1601798 0 0 0 2.5195,-2.1621 z"
         style="opacity:1;fill:none;fill-opacity:1;fill-rule:nonzero;stroke:#ff0000;stroke-width:0.90249997;stroke-linejoin:round;stroke-miterlimit:7.8342247;stroke-dasharray:none;stroke-opacity:1" />
      <path
         inkscape:connector-curvature="0"
         id="path4643"
         transform="scale(0.26458333)"
         d="m -1395.21,-364.94714 a 2.52021,2.1601798 0 0 0 -2.5215,-2.1602 2.52021,2.1601798 0 0 0 -2.5195,2.1602 2.52021,2.1601798 0 0 0 2.5195,2.1621 2.52021,2.1601798 0 0 0 2.5215,-2.1621 z"
         style="opacity:1;fill:none;fill-opacity:1;fill-rule:nonzero;stroke:#ff0000;stroke-width:0.90249997;stroke-linejoin:round;stroke-miterlimit:7.8342247;stroke-dasharray:none;stroke-opacity:1" />
      <path
         inkscape:connector-curvature="0"
         id="path4641"
         transform="scale(0.26458333)"
         d="m -1405.0303,-364.94714 a 2.52021,2.1601798 0 0 0 -2.5215,-2.1602 2.52021,2.1601798 0 0 0 -2.5195,2.1602 2.52021,2.1601798 0 0 0 2.5195,2.1621 2.52021,2.1601798 0 0 0 2.5215,-2.1621 z"
         style="opacity:1;fill:none;fill-opacity:1;fill-rule:nonzero;stroke:#ff0000;stroke-width:0.90249997;stroke-linejoin:round;stroke-miterlimit:7.8342247;stroke-dasharray:none;stroke-opacity:1" />
      <path
         inkscape:connector-curvature="0"
         id="path4639"
         transform="scale(0.26458333)"
         d="m -1414.8506,-364.94714 a 2.52021,2.1601798 0 0 0 -2.5196,-2.1602 2.52021,2.1601798 0 0 0 -2.5214,2.1602 2.52021,2.1601798 0 0 0 2.5214,2.1621 2.52021,2.1601798 0 0 0 2.5196,-2.1621 z"
         style="opacity:1;fill:none;fill-opacity:1;fill-rule:nonzero;stroke:#ff0000;stroke-width:0.90249997;stroke-linejoin:round;stroke-miterlimit:7.8342247;stroke-dasharray:none;stroke-opacity:1" />
      <path
         inkscape:connector-curvature="0"
         id="path4637"
         transform="scale(0.26458333)"
         d="m -1424.6709,-364.94714 a 2.52021,2.1601798 0 0 0 -2.5196,-2.1602 2.52021,2.1601798 0 0 0 -2.5215,2.1602 2.52021,2.1601798 0 0 0 2.5215,2.1621 2.52021,2.1601798 0 0 0 2.5196,-2.1621 z"
         style="opacity:1;fill:none;fill-opacity:1;fill-rule:nonzero;stroke:#ff0000;stroke-width:0.90249997;stroke-linejoin:round;stroke-miterlimit:7.8342247;stroke-dasharray:none;stroke-opacity:1" />
      <path
         inkscape:connector-curvature="0"
         id="path4635"
         transform="scale(0.26458333)"
         d="m -1434.4912,-364.94714 a 2.52021,2.1601798 0 0 0 -2.5196,-2.1602 2.52021,2.1601798 0 0 0 -2.5195,2.1602 2.52021,2.1601798 0 0 0 2.5195,2.1621 2.52021,2.1601798 0 0 0 2.5196,-2.1621 z"
         style="opacity:1;fill:none;fill-opacity:1;fill-rule:nonzero;stroke:#ff0000;stroke-width:0.90249997;stroke-linejoin:round;stroke-miterlimit:7.8342247;stroke-dasharray:none;stroke-opacity:1" />
      <path
         inkscape:connector-curvature="0"
         id="path4633"
         transform="scale(0.26458333)"
         d="m -1444.3116,-364.94714 a 2.52021,2.1601798 0 0 0 -2.5195,-2.1602 2.52021,2.1601798 0 0 0 -2.5195,2.1602 2.52021,2.1601798 0 0 0 2.5195,2.1621 2.52021,2.1601798 0 0 0 2.5195,-2.1621 z"
         style="opacity:1;fill:none;fill-opacity:1;fill-rule:nonzero;stroke:#ff0000;stroke-width:0.90249997;stroke-linejoin:round;stroke-miterlimit:7.8342247;stroke-dasharray:none;stroke-opacity:1" />
      <path
         inkscape:connector-curvature="0"
         id="path4631"
         transform="scale(0.26458333)"
         d="m -1454.1299,-364.94714 a 2.52021,2.1601798 0 0 0 -2.5215,-2.1602 2.52021,2.1601798 0 0 0 -2.5196,2.1602 2.52021,2.1601798 0 0 0 2.5196,2.1621 2.52021,2.1601798 0 0 0 2.5215,-2.1621 z"
         style="opacity:1;fill:none;fill-opacity:1;fill-rule:nonzero;stroke:#ff0000;stroke-width:0.90249997;stroke-linejoin:round;stroke-miterlimit:7.8342247;stroke-dasharray:none;stroke-opacity:1" />
      <path
         inkscape:connector-curvature="0"
         id="path4629"
         transform="scale(0.26458333)"
         d="m -1463.9502,-364.94714 a 2.52021,2.1601798 0 0 0 -2.5215,-2.1602 2.52021,2.1601798 0 0 0 -2.5196,2.1602 2.52021,2.1601798 0 0 0 2.5196,2.1621 2.52021,2.1601798 0 0 0 2.5215,-2.1621 z"
         style="opacity:1;fill:none;fill-opacity:1;fill-rule:nonzero;stroke:#ff0000;stroke-width:0.90249997;stroke-linejoin:round;stroke-miterlimit:7.8342247;stroke-dasharray:none;stroke-opacity:1" />
      <path
         inkscape:connector-curvature="0"
         id="path4627"
         transform="scale(0.26458333)"
         d="m -1473.7706,-364.94714 a 2.52021,2.1601798 0 0 0 -2.5195,-2.1602 2.52021,2.1601798 0 0 0 -2.5215,2.1602 2.52021,2.1601798 0 0 0 2.5215,2.1621 2.52021,2.1601798 0 0 0 2.5195,-2.1621 z"
         style="opacity:1;fill:none;fill-opacity:1;fill-rule:nonzero;stroke:#ff0000;stroke-width:0.90249997;stroke-linejoin:round;stroke-miterlimit:7.8342247;stroke-dasharray:none;stroke-opacity:1" />
      <path
         inkscape:connector-curvature="0"
         id="path4625"
         transform="scale(0.26458333)"
         d="m -1483.5909,-364.94714 a 2.52021,2.1601798 0 0 0 -2.5195,-2.1602 2.52021,2.1601798 0 0 0 -2.5215,2.1602 2.52021,2.1601798 0 0 0 2.5215,2.1621 2.52021,2.1601798 0 0 0 2.5195,-2.1621 z"
         style="opacity:1;fill:none;fill-opacity:1;fill-rule:nonzero;stroke:#ff0000;stroke-width:0.90249997;stroke-linejoin:round;stroke-miterlimit:7.8342247;stroke-dasharray:none;stroke-opacity:1" />
      <path
         inkscape:connector-curvature="0"
         id="path4623"
         transform="scale(0.26458333)"
         d="m -1493.4112,-364.94714 a 2.52021,2.1601798 0 0 0 -2.5195,-2.1602 2.52021,2.1601798 0 0 0 -2.5196,2.1602 2.52021,2.1601798 0 0 0 2.5196,2.1621 2.52021,2.1601798 0 0 0 2.5195,-2.1621 z"
         style="opacity:1;fill:none;fill-opacity:1;fill-rule:nonzero;stroke:#ff0000;stroke-width:0.90249997;stroke-linejoin:round;stroke-miterlimit:7.8342247;stroke-dasharray:none;stroke-opacity:1" />
      <path
         inkscape:connector-curvature="0"
         id="path4621"
         transform="scale(0.26458333)"
         d="m -1503.2295,-364.94714 a 2.52021,2.1601798 0 0 0 -2.5215,-2.1602 2.52021,2.1601798 0 0 0 -2.5196,2.1602 2.52021,2.1601798 0 0 0 2.5196,2.1621 2.52021,2.1601798 0 0 0 2.5215,-2.1621 z"
         style="opacity:1;fill:none;fill-opacity:1;fill-rule:nonzero;stroke:#ff0000;stroke-width:0.90249997;stroke-linejoin:round;stroke-miterlimit:7.8342247;stroke-dasharray:none;stroke-opacity:1" />
      <path
         inkscape:connector-curvature="0"
         id="path4619"
         transform="scale(0.26458333)"
         d="m -1513.0499,-364.94714 a 2.52021,2.1601798 0 0 0 -2.5214,-2.1602 2.52021,2.1601798 0 0 0 -2.5196,2.1602 2.52021,2.1601798 0 0 0 2.5196,2.1621 2.52021,2.1601798 0 0 0 2.5214,-2.1621 z"
         style="opacity:1;fill:none;fill-opacity:1;fill-rule:nonzero;stroke:#ff0000;stroke-width:0.90249997;stroke-linejoin:round;stroke-miterlimit:7.8342247;stroke-dasharray:none;stroke-opacity:1" />
      <path
         inkscape:connector-curvature="0"
         id="path4617"
         transform="scale(0.26458333)"
         d="m -1522.8702,-364.94714 a 2.52021,2.1601798 0 0 0 -2.5195,-2.1602 2.52021,2.1601798 0 0 0 -2.5215,2.1602 2.52021,2.1601798 0 0 0 2.5215,2.1621 2.52021,2.1601798 0 0 0 2.5195,-2.1621 z"
         style="opacity:1;fill:none;fill-opacity:1;fill-rule:nonzero;stroke:#ff0000;stroke-width:0.90249997;stroke-linejoin:round;stroke-miterlimit:7.8342247;stroke-dasharray:none;stroke-opacity:1" />
      <path
         inkscape:connector-curvature="0"
         id="path4615"
         transform="scale(0.26458333)"
         d="m -1532.6905,-364.94714 a 2.52021,2.1601798 0 0 0 -2.5195,-2.1602 2.52021,2.1601798 0 0 0 -2.5215,2.1602 2.52021,2.1601798 0 0 0 2.5215,2.1621 2.52021,2.1601798 0 0 0 2.5195,-2.1621 z"
         style="opacity:1;fill:none;fill-opacity:1;fill-rule:nonzero;stroke:#ff0000;stroke-width:0.90249997;stroke-linejoin:round;stroke-miterlimit:7.8342247;stroke-dasharray:none;stroke-opacity:1" />
      <path
         inkscape:connector-curvature="0"
         id="path4613"
         transform="scale(0.26458333)"
         d="m -1542.5108,-364.94714 a 2.52021,2.1601798 0 0 0 -2.5195,-2.1602 2.52021,2.1601798 0 0 0 -2.5195,2.1602 2.52021,2.1601798 0 0 0 2.5195,2.1621 2.52021,2.1601798 0 0 0 2.5195,-2.1621 z"
         style="opacity:1;fill:none;fill-opacity:1;fill-rule:nonzero;stroke:#ff0000;stroke-width:0.90249997;stroke-linejoin:round;stroke-miterlimit:7.8342247;stroke-dasharray:none;stroke-opacity:1" />
      <path
         inkscape:connector-curvature="0"
         id="path4611"
         transform="scale(0.26458333)"
         d="m -1552.3311,-364.94714 a 2.52021,2.1601798 0 0 0 -2.5195,-2.1602 2.52021,2.1601798 0 0 0 -2.5195,2.1602 2.52021,2.1601798 0 0 0 2.5195,2.1621 2.52021,2.1601798 0 0 0 2.5195,-2.1621 z"
         style="opacity:1;fill:none;fill-opacity:1;fill-rule:nonzero;stroke:#ff0000;stroke-width:0.90249997;stroke-linejoin:round;stroke-miterlimit:7.8342247;stroke-dasharray:none;stroke-opacity:1" />
      <path
         inkscape:connector-curvature="0"
         id="path4609"
         transform="scale(0.26458333)"
         d="m -1562.1495,-362.83055 a 2.52021,2.1601798 0 0 0 -2.5214,-2.1602 2.52021,2.1601798 0 0 0 -2.5196,2.1602 2.52021,2.1601798 0 0 0 2.5196,2.1621 2.52021,2.1601798 0 0 0 2.5214,-2.1621 z"
         style="opacity:1;fill:none;fill-opacity:1;fill-rule:nonzero;stroke:#ff0000;stroke-width:0.90249997;stroke-linejoin:round;stroke-miterlimit:7.8342247;stroke-dasharray:none;stroke-opacity:1" />
      <path
         inkscape:connector-curvature="0"
         id="path5297"
         transform="scale(0.26458333)"
         d="m -1571.9698,-356.48077 a 2.52021,2.1601798 0 0 0 -2.5215,-2.1602 2.52021,2.1601798 0 0 0 -2.5195,2.1602 2.52021,2.1601798 0 0 0 2.5195,2.1621 2.52021,2.1601798 0 0 0 2.5215,-2.1621 z"
         style="opacity:1;fill:none;fill-opacity:1;fill-rule:nonzero;stroke:#ff0000;stroke-width:0.90249997;stroke-linejoin:round;stroke-miterlimit:7.8342247;stroke-dasharray:none;stroke-opacity:1" />
    </g>
    <g
       id="g8473"
       transform="rotate(-90,-313.98741,-178.75618)"
       style="stroke:#ff0000">
      <path
         id="path8486"
         style="fill:none;fill-rule:evenodd;stroke:#ff0000;stroke-width:0.26458332px;stroke-linecap:butt;stroke-linejoin:miter;stroke-opacity:1"
         d="m -216.61279,-284.12429 h 37.30625 m -0.62528,1.02214 h -36.0562 m 0.68988,1.1281 h 34.67644 m -0.62477,1.02217 h -33.4269 m 0.69039,1.1286 h 32.04611 m -0.62477,1.02217 h -30.79657 m 0.68988,1.1281 h 29.41681 m -0.62477,1.02214 h -28.16675 m 0.68936,1.12811 h 26.78751 m -0.62528,1.02216 h -25.53695 m 0.68989,1.12861 h 24.15718 m -0.62529,1.02216 h -22.90661 m 0.68988,1.12811 h 21.52737 m -43.25989,0 h 0.5581 m 63.87621,0 h 0.5581 m -63.80954,1.02216 h -1.18287 m 0,1.12808 h 1.87275 m 40.76185,-1.12808 h -20.27731 m 0.68988,1.12808 h 18.89755 m 23.04769,-1.12808 h -1.18287 m -0.68988,1.12808 h 1.87275 m -62.49437,1.02216 h -2.49804 m 0,1.12861 h 3.18792 m 38.13204,-1.12861 h -17.64751 m 0.68988,1.12861 h 16.26775 m 24.36233,-1.12861 h -2.49804 m -0.68988,1.12861 h 3.18792 m -61.17973,1.02216 h -3.81268 m 0,1.12811 h 4.50257 m 35.50222,-1.12811 h -15.01717 m 0.68936,1.12811 h 13.63793 m 25.6775,-1.12811 h -3.81268 m -0.68989,1.12811 h 4.50257 m -59.86456,1.02216 h -5.12785 m 0,1.12808 h 5.81773 m 32.87241,-1.12808 h -12.38787 m 0.68988,1.12808 h 11.00811 m 26.99215,-1.12808 h -5.12785 m -0.68988,1.12808 h 5.81773 m -58.54991,1.02216 h -6.4425 m 0,1.12861 h 7.13238 m 30.24311,-1.12861 h -9.75857 m 0.69039,1.12861 h 8.37779 m 28.30731,-1.12861 h -6.4425 m -0.68988,1.12861 h 7.13238 m -57.23475,1.02217 h -7.75766 m 0,1.1281 h 8.44754 m 27.61279,-1.1281 h -7.12825 m 0.68988,1.1281 h 5.74849 m 29.62196,-1.1281 h -7.75766 m -0.68988,1.1281 h 8.44754 m -55.9201,1.02216 h -9.07231 m 0,1.12811 h 9.76219 m 24.98297,-1.12811 h -4.49791 m 0.68936,1.12811 h 3.11919 m 30.93661,-1.12811 h -9.07231 m -0.68988,1.12811 h 9.76219 m -54.60545,1.02214 h -10.38696 m 0,1.12863 h 11.07736 m 22.35315,-1.12863 h -1.86861 m 0.68987,1.12863 h 0.48887 m 32.25177,-1.12863 h -10.38696 m -0.6904,1.12863 h 11.07736 m -53.29029,1.02214 h -11.70212 m 0,1.1281 h 12.39201 m 52.6004,-1.1281 h -11.70212 m -0.68989,1.1281 h 12.39201 m -51.97512,1.02217 h -13.01729 m 0,1.1281 h 13.70665 m 51.28576,-1.1281 h -13.01729 m -0.68936,1.1281 h 13.70665 m -50.66047,1.02267 h -14.33194 m 0,1.1281 h 15.02182 m 49.97059,-1.1281 h -14.33194 m -0.68988,1.1281 h 15.02182 m -49.34531,1.02217 h -15.6471 m 0,1.12807 h 16.33698 m 48.65543,-1.12807 h -15.6471 m -0.68988,1.12807 h 16.33698 m -48.03066,1.02217 h -16.96175 m 0,1.12861 h 17.65163 m 47.34078,-1.12861 h -16.96175 m -0.68988,1.12861 h 17.65163 m -46.71549,1.02216 h -18.27692 m 0,1.12811 h 18.9668 m 46.02561,-1.12811 h -18.27692 m -0.68988,1.12811 h 18.9668 m -45.40084,1.02216 h -19.59157 m 0,1.12808 h 20.28145 m 44.71096,-1.12808 h -19.59157 m -0.68988,1.12808 h 20.28145 m -44.0862,1.02216 h -20.90621 m 0,1.12861 h 21.59661 m 43.3958,-1.12861 h -20.90621 m -0.6904,1.12861 h 21.59661 m -43.39632,1.02216 h -21.59609 m 0,1.12811 h 20.90621 m 44.0862,-1.12811 h -21.59609 m 0.68988,1.12811 h 20.90621 m -44.71148,1.02216 h -20.28093 m 0,1.12811 h 19.59157 m 45.40084,-1.12811 h -20.28093 m 0.68936,1.12811 h 19.59157 m -46.02613,1.02213 h -18.96628 m 0,1.12864 h 18.2764 m 46.71601,-1.12864 h -18.96628 m 0.68988,1.12864 h 18.2764 m -47.34129,1.02214 h -17.65112 m 0,1.1281 h 16.96124 m 48.03117,-1.1281 h -17.65112 m 0.68988,1.1281 h 16.96124 m -48.65594,1.02216 h -16.33647 m 0,1.12811 h 15.64659 m 49.34582,-1.12811 h -16.33647 m 0.68988,1.12811 h 15.64659 m -49.97059,1.02214 h -15.02182 m 0,1.12863 h 14.33142 m 50.66099,-1.12863 h -15.02182 m 0.6904,1.12863 h 14.33142 m -51.28576,1.02216 h -13.70665 m 0,1.12808 h 13.01677 m 51.97564,-1.12808 h -13.70665 m 0.68988,1.12808 h 13.01677 m -52.6004,1.02217 h -12.39201 m 0,1.1281 h 11.70212 m 53.29029,-1.1281 h -12.39201 m 0.68989,1.1281 h 11.70212 m -53.91557,1.02217 h -11.07684 m 0,1.1286 h 10.38696 m 22.35368,-1.1286 h -0.48887 m -0.69039,1.1286 h 1.86965 m 31.56138,-1.1286 h -11.07684 m 0.68988,1.1286 h 10.38696 m -55.23073,1.02217 h -9.76168 m 0,1.12807 h 9.07231 m 24.98349,-1.12807 h -3.11919 m -0.68988,1.12807 h 4.49895 m 30.24673,-1.12807 h -9.76168 m 0.68937,1.12807 h 9.07231 m -56.54538,1.02217 h -8.44703 m 0,1.1281 h 7.75715 m 27.6133,-1.1281 h -5.74849 m -0.68988,1.1281 h 7.12825 m 28.93208,-1.1281 h -8.44703 m 0.68988,1.1281 h 7.75715 m -57.86003,1.02217 h -7.13238 m 0,1.1286 h 6.44198 m 30.24363,-1.1286 h -8.37881 m -0.68988,1.1286 h 9.75857 m 27.61692,-1.1286 h -7.13238 m 0.6904,1.1286 h 6.44198 m -59.1752,1.02217 h -5.81721 m 0,1.1281 h 5.12733 m 32.87293,-1.1281 h -11.00863 m -0.68988,1.1281 h 12.38839 m 26.30227,-1.1281 h -5.81721 m 0.68988,1.1281 h 5.12733 m -60.48984,1.02214 h -4.50257 m 0,1.12811 h 3.81268 m 35.50275,-1.12811 h -13.63845 m -0.68988,1.12811 h 15.01769 m 24.98762,-1.12811 h -4.50257 m 0.68989,1.12811 h 3.81268 m -61.80501,1.02266 h -3.1874 m 0,1.12811 h 2.49752 m 38.13256,-1.12811 h -16.26826 m -0.68988,1.12811 h 17.64802 m 23.67245,-1.12811 h -3.1874 m 0.68988,1.12811 h 2.49752 m -63.12017,1.02216 h -1.87224 m 0,1.12811 h 1.18287 m 40.76237,-1.12811 h -18.89807 m -0.68988,1.12811 h 20.27731 m 22.35781,-1.12811 h -1.87224 m 0.68937,1.12811 h 1.18287 m -64.43482,1.02213 h -0.55759 m 43.25989,0 h -21.52737 m -0.6904,1.12864 h 22.90765 m 21.04264,-1.12864 h -0.55759 m -19.86028,2.15027 h -24.15718 m -0.68989,1.12861 h 25.53747 m 0.62476,1.02216 h -26.78751 m -0.68988,1.12811 h 28.16727 m 0.62477,1.02216 h -29.41681 m -0.68988,1.12861 h 30.79709 m 0.62477,1.02216 h -32.04714 m -0.68988,1.12808 h 33.4269 m 0.62477,1.02217 h -34.67644 m -0.68988,1.1281 h 36.0562 m 0.62528,1.02217 h -37.30625 m -2.85381,-102.23184 h 43.01387 l 14.6,14.6 v 79.62299 l -14.6,14.6 h -43.01387 l -14.6,-14.6 v -79.62299 z m 40.86286,103.38189 -19.35594,-31.65595 -19.35644,31.65595 m 51.85266,-84.80102 -21.90873,35.83037 21.90873,35.83037 m -64.99242,0 21.90874,-35.83037 -21.90874,-35.83037 m 13.13976,-13.13977 19.35644,31.65543 19.35594,-31.65543 m 0,0 -19.35594,31.65543 -19.35644,-31.65543 m 51.85266,13.13976 -13.14028,-13.13976 m 13.14028,84.80051 -21.90873,-35.83037 21.90873,-35.83038 m -13.14028,84.80103 13.14028,-13.14028 m -51.85266,13.14028 19.35644,-31.65595 19.35594,31.65595 m -51.85214,-13.14028 13.13976,13.14028 m -13.13976,-84.80103 21.90874,35.83038 -21.90874,35.83037 m 13.13976,-84.80051 -13.13976,13.13976 m 10.98928,-18.58086 h 43.01387 l 14.6,14.6 v 79.62299 l -14.6,14.6 h -43.01387 l -14.6,-14.6 v -79.62299 z m 2.85381,102.23184 -0.6904,1.1286 h 38.68653 l -0.68988,-1.1286 z m 1.31465,-2.15027 -0.68988,1.1281 h 36.0562 l -0.68988,-1.1281 z m 1.31465,-2.15025 -0.68988,1.12808 h 33.4269 l -0.68988,-1.12808 z m 1.31516,-2.15077 -0.68988,1.12861 h 30.79709 l -0.6904,-1.12861 z m 1.31465,-2.15027 -0.68988,1.12811 h 28.16727 l -0.68988,-1.12811 z m 1.31517,-2.15077 -0.68989,1.12861 h 25.53747 l -0.6904,-1.12861 z m 44.01746,-2.15027 0.55759,0.9121 v -0.9121 z m -42.7023,0 -0.6904,1.12864 h 22.90765 l -0.68988,-1.12864 z m -21.73252,0 v 0.9121 l 0.55759,-0.9121 z m 63.12017,-2.15024 0.68937,1.12811 h 1.18287 v -1.12811 z m -40.073,0 -0.68988,1.12811 h 20.27731 l -0.68936,-1.12811 z m -23.04717,0 v 1.12811 h 1.18287 l 0.68937,-1.12811 z m 61.80501,-2.15027 0.68988,1.12811 h 2.49752 v -1.12811 z m -37.44319,0 -0.68988,1.12811 h 17.64802 l -0.68988,-1.12811 z m -24.36182,0 v 1.12811 h 2.49752 l 0.68988,-1.12811 z m 60.48984,-2.15077 0.68989,1.12811 h 3.81268 v -1.12811 z m -34.81286,0 -0.68988,1.12811 h 15.01769 l -0.68936,-1.12811 z m -25.67698,0 v 1.12811 h 3.81268 l 0.68989,-1.12811 z m 59.1752,-2.15024 0.68988,1.1281 h 5.12733 v -1.1281 z m -32.18357,0 -0.68988,1.1281 h 12.38839 l -0.68988,-1.1281 z m -26.99163,0 v 1.1281 h 5.12733 l 0.68988,-1.1281 z m 57.86003,-2.15077 0.6904,1.1286 h 6.44198 v -1.1286 z m -29.55323,0 -0.68988,1.1286 h 9.75857 l -0.68988,-1.1286 z m -28.3068,0 v 1.1286 h 6.44198 l 0.6904,-1.1286 z m 56.54538,-2.15027 0.68988,1.1281 h 7.75715 v -1.1281 z m -26.92342,0 -0.68988,1.1281 h 7.12825 l -0.68988,-1.1281 z m -29.62196,0 v 1.1281 h 7.75715 l 0.68988,-1.1281 z m 55.23073,-2.15024 0.68937,1.12807 h 9.07231 v -1.12807 z m -24.29412,0 -0.68988,1.12807 h 4.49895 l -0.68988,-1.12807 z m -30.93661,0 v 1.12807 h 9.07231 l 0.68937,-1.12807 z m 53.91557,-2.15077 0.68988,1.1286 h 10.38696 v -1.1286 z m -21.6638,0 -0.69039,1.1286 h 1.86965 l -0.69039,-1.1286 z m -32.25177,0 v 1.1286 h 10.38696 l 0.68988,-1.1286 z m 52.6004,-2.15027 0.68989,1.1281 h 11.70212 v -1.1281 z m -52.6004,0 v 1.1281 h 11.70212 l 0.68989,-1.1281 z m 51.28576,-2.15025 0.68988,1.12808 h 13.01677 v -1.12808 z m -51.28576,0 v 1.12808 h 13.01677 l 0.68988,-1.12808 z m 49.97059,-2.15079 0.6904,1.12863 h 14.33142 v -1.12863 z m -49.97059,0 v 1.12863 h 14.33142 l 0.6904,-1.12863 z m 48.65594,-2.15025 0.68988,1.12811 h 15.64659 v -1.12811 z m -48.65594,0 v 1.12811 h 15.64659 l 0.68988,-1.12811 z m 47.34129,-2.15026 0.68988,1.1281 h 16.96124 v -1.1281 z m -47.34129,0 v 1.1281 h 16.96124 l 0.68988,-1.1281 z m 46.02613,-2.15078 0.68988,1.12864 h 18.2764 v -1.12864 z m -46.02613,0 v 1.12864 h 18.2764 l 0.68988,-1.12864 z m 44.71148,-2.15024 0.68936,1.12811 h 19.59157 v -1.12811 z m -44.71148,0 v 1.12811 h 19.59157 l 0.68936,-1.12811 z m 43.39632,-2.15027 0.68988,1.12811 h 20.90621 v -1.12811 z m -43.39632,0 v 1.12811 h 20.90621 l 0.68988,-1.12811 z m 44.0862,-2.15077 -0.6904,1.12861 h 21.59661 v -1.12861 z m -44.0862,0 v 1.12861 h 21.59661 l -0.6904,-1.12861 z m 45.40084,-2.15024 -0.68988,1.12808 h 20.28145 v -1.12808 z m -45.40084,0 v 1.12808 h 20.28145 l -0.68988,-1.12808 z m 46.71549,-2.15027 -0.68988,1.12811 h 18.9668 v -1.12811 z m -46.71549,0 v 1.12811 h 18.9668 l -0.68988,-1.12811 z m 48.03066,-2.15077 -0.68988,1.12861 h 17.65163 v -1.12861 z m -48.03066,0 v 1.12861 h 17.65163 l -0.68988,-1.12861 z m 49.34531,-2.15024 -0.68988,1.12807 h 16.33698 v -1.12807 z m -49.34531,0 v 1.12807 h 16.33698 l -0.68988,-1.12807 z m 50.66047,-2.15027 -0.68988,1.1281 h 15.02182 v -1.1281 z m -50.66047,0 v 1.1281 h 15.02182 l -0.68988,-1.1281 z m 51.97512,-2.15077 -0.68936,1.1281 h 13.70665 v -1.1281 z m -51.97512,0 v 1.1281 h 13.70665 l -0.68936,-1.1281 z m 53.29029,-2.15027 -0.68989,1.1281 h 12.39201 v -1.1281 z m -53.29029,0 v 1.1281 h 12.39201 l -0.68989,-1.1281 z m 54.60545,-2.15077 -0.6904,1.12863 h 11.07736 v -1.12863 z m -23.04355,0 0.68987,1.12863 h 0.48887 l 0.68987,-1.12863 z m -31.5619,0 v 1.12863 h 11.07736 l -0.6904,-1.12863 z m 55.9201,-2.15025 -0.68988,1.12811 h 9.76219 v -1.12811 z m -25.67285,0 0.68936,1.12811 h 3.11919 l 0.68936,-1.12811 z m -30.24725,0 v 1.12811 h 9.76219 l -0.68988,-1.12811 z m 57.23475,-2.15026 -0.68988,1.1281 h 8.44754 v -1.1281 z m -28.30267,0 0.68988,1.1281 h 5.74849 l 0.68988,-1.1281 z m -28.93208,0 v 1.1281 h 8.44754 l -0.68988,-1.1281 z m 58.54991,-2.15078 -0.68988,1.12861 h 7.13238 v -1.12861 z m -30.93299,0 0.69039,1.12861 h 8.37779 l 0.69039,-1.12861 z m -27.61692,0 v 1.12861 h 7.13238 l -0.68988,-1.12861 z m 59.86456,-2.15024 -0.68988,1.12808 h 5.81773 v -1.12808 z m -33.56229,0 0.68988,1.12808 h 11.00811 l 0.68988,-1.12808 z m -26.30227,0 v 1.12808 h 5.81773 l -0.68988,-1.12808 z m 61.17973,-2.15027 -0.68989,1.12811 h 4.50257 v -1.12811 z m -36.19211,0 0.68936,1.12811 h 13.63793 l 0.68988,-1.12811 z m -24.98762,0 v 1.12811 h 4.50257 l -0.68989,-1.12811 z m 62.49437,-2.15077 -0.68988,1.12861 h 3.18792 v -1.12861 z m -38.82192,0 0.68988,1.12861 h 16.26775 l 0.68988,-1.12861 z m -23.67245,0 v 1.12861 h 3.18792 l -0.68988,-1.12861 z m 63.80954,-2.15024 -0.68988,1.12808 h 1.87275 v -1.12808 z m -41.45225,0 0.68988,1.12808 h 18.89755 l 0.68988,-1.12808 z m -22.35729,0 v 1.12808 h 1.87275 l -0.68988,-1.12808 z m 64.99241,-1.93477 -0.5581,0.91261 h 0.5581 z m -64.99241,0 v 0.91261 h 0.5581 z m 21.04264,-0.2155 0.68988,1.12811 h 21.52737 l 0.68936,-1.12811 z m -1.31517,-2.15077 0.68989,1.12861 h 24.15718 l 0.68988,-1.12861 z m -1.31464,-2.15027 0.68936,1.12811 h 26.78751 l 0.68988,-1.12811 z m -1.31517,-2.15024 0.68988,1.1281 h 29.41681 l 0.68988,-1.1281 z m -1.31516,-2.15077 0.69039,1.1286 h 32.04611 l 0.6904,-1.1286 z m -1.31465,-2.15027 0.68988,1.1281 h 34.67644 l 0.68988,-1.1281 z m -1.31465,-2.15024 0.68988,1.1281 h 37.30625 l 0.68936,-1.1281 z m 19.34299,66.26339 -19.35644,31.65595 h 38.71238 z m 32.49622,-53.14507 -21.90873,35.83037 21.90873,35.83037 z m -64.99242,0 v 71.66074 l 21.90874,-35.83037 z m 13.13976,-13.13977 19.35644,31.65543 19.35594,-31.65543 z"
         inkscape:connector-curvature="0" />
    </g>
    <text
       xml:space="preserve"
       style="font-style:normal;font-variant:normal;font-weight:normal;font-stretch:normal;font-size:7.76111126px;line-height:125%;font-family:sans-serif;-inkscape-font-specification:'sans-serif, Normal';font-variant-ligatures:normal;font-variant-caps:normal;font-variant-numeric:normal;font-feature-settings:normal;text-align:center;letter-spacing:0px;word-spacing:0px;writing-mode:lr-tb;text-anchor:middle;fill:#00ff00;fill-opacity:1;stroke:none;stroke-width:0.26458332px;stroke-linecap:butt;stroke-linejoin:miter;stroke-opacity:1"
       x="-400.19547"
       y="-353.24564"
       id="text5595"><tspan
         sodipodi:role="line"
         id="tspan5593"
         x="-400.19547"
         y="-353.24564"
         style="fill:#00ff00;stroke-width:0.26458332px">Vehicle doors</tspan></text>
  </g>
</svg>
