<?xml version="1.0" encoding="UTF-8" standalone="no"?>
<!-- Created with Inkscape (http://www.inkscape.org/) -->

<svg
   xmlns:dc="http://purl.org/dc/elements/1.1/"
   xmlns:cc="http://creativecommons.org/ns#"
   xmlns:rdf="http://www.w3.org/1999/02/22-rdf-syntax-ns#"
   xmlns:svg="http://www.w3.org/2000/svg"
   xmlns="http://www.w3.org/2000/svg"
   xmlns:sodipodi="http://sodipodi.sourceforge.net/DTD/sodipodi-0.dtd"
   xmlns:inkscape="http://www.inkscape.org/namespaces/inkscape"
   width="40.538826mm"
   height="29.708906mm"
   viewBox="0 0 40.538826 29.708906"
   version="1.1"
   id="svg3703"
   inkscape:version="0.92.4 (5da689c313, 2019-01-14)"
   sodipodi:docname="symbols.svg">
  <defs
     id="defs3697" />
  <sodipodi:namedview
     id="base"
     pagecolor="#ffffff"
     bordercolor="#666666"
     borderopacity="1.0"
     inkscape:pageopacity="0.0"
     inkscape:pageshadow="2"
     inkscape:zoom="3.4208442"
     inkscape:cx="-4.2191914"
     inkscape:cy="74.250684"
     inkscape:document-units="mm"
     inkscape:current-layer="layer1"
     showgrid="false"
     inkscape:window-width="1920"
     inkscape:window-height="1016"
     inkscape:window-x="0"
     inkscape:window-y="584"
     inkscape:window-maximized="1"
     fit-margin-top="0"
     fit-margin-left="0"
     fit-margin-right="0"
     fit-margin-bottom="0" />
  <metadata
     id="metadata3700">
    <rdf:RDF>
      <cc:Work
         rdf:about="">
        <dc:format>image/svg+xml</dc:format>
        <dc:type
           rdf:resource="http://purl.org/dc/dcmitype/StillImage" />
        <dc:title></dc:title>
      </cc:Work>
    </rdf:RDF>
  </metadata>
  <g
     inkscape:label="Layer 1"
     inkscape:groupmode="layer"
     id="layer1"
     transform="translate(-35.929852,-47.218905)">
    <path
       id="path4315"
       style="fill:none;fill-rule:evenodd;stroke:#000000;stroke-width:0.26458332;stroke-linecap:butt;stroke-linejoin:miter;stroke-miterlimit:4;stroke-dasharray:none;stroke-opacity:1"
       d="m 40.524277,52.243953 v 7.840187 l 2.231066,1.977811 2.231066,1.97781 v 7.863001 l -4.462132,4.830093 -4.462133,-4.830093 v -7.863001 l 2.231067,-1.97781 m 2.231065,9.840811 v -7.840187 l -2.231066,-1.977811 -2.231066,-1.97781 v -7.863001 l 4.462132,-4.830093 4.462133,4.830093 v 7.863001 l -2.231067,1.97781"
       inkscape:connector-curvature="0" />
    <path
       id="path4306"
       style="fill:none;fill-rule:evenodd;stroke:#000000;stroke-width:0.26458332;stroke-linecap:butt;stroke-linejoin:miter;stroke-miterlimit:4;stroke-dasharray:none;stroke-opacity:1"
       d="m 59.174019,61.778469 1.487378,-1.977811 v -7.556705 l -4.462132,-4.830093 -4.462133,4.830093 v 7.556705 l 1.487377,1.977811 1.487378,1.97781 v 8.146483 m 2.974755,0 v -8.146483 l -2.974755,-3.955621 v -7.556705 m 2.974755,0 v 7.556705 l 1.487377,1.977811 1.487378,1.97781 v 8.146483 l -4.462132,4.830093 -4.462133,-4.830093 v -8.146483 l 1.487377,-1.97781"
       inkscape:connector-curvature="0" />
    <path
       id="path4331"
       style="fill:none;fill-rule:evenodd;stroke:#000000;stroke-width:0.26458332;stroke-linecap:butt;stroke-linejoin:miter;stroke-miterlimit:4;stroke-dasharray:none;stroke-opacity:1"
       d="m 71.874252,52.243954 v 8.146483 l 2.231067,3.955626 v 7.556701 m -4.462133,0 V 64.346063 L 68.527653,62.36825 67.41212,60.390437 v -8.146483 l 4.462132,-4.830093 4.462133,4.830093 v 8.146483 L 75.220852,62.36825 M 69.643186,52.243954 v 8.146483 l 2.231066,3.955626 v 7.556701 M 68.527653,62.36825 67.41212,64.346063 v 7.556701 l 4.462132,4.83009 4.462133,-4.83009 V 64.346063 L 75.220852,62.36825 74.105319,60.390437 v -8.146483"
       inkscape:connector-curvature="0"
       sodipodi:nodetypes="cccccccccccccccccccccccccc" />
  </g>
</svg>
