<?xml version="1.0" encoding="UTF-8" standalone="no"?>
<!-- Created with Inkscape (http://www.inkscape.org/) -->

<svg
   xmlns:dc="http://purl.org/dc/elements/1.1/"
   xmlns:cc="http://creativecommons.org/ns#"
   xmlns:rdf="http://www.w3.org/1999/02/22-rdf-syntax-ns#"
   xmlns:svg="http://www.w3.org/2000/svg"
   xmlns="http://www.w3.org/2000/svg"
   xmlns:sodipodi="http://sodipodi.sourceforge.net/DTD/sodipodi-0.dtd"
   xmlns:inkscape="http://www.inkscape.org/namespaces/inkscape"
   width="97.306976mm"
   height="138.68085mm"
   viewBox="0 0 97.306976 138.68085"
   version="1.1"
   id="svg8"
   inkscape:version="0.92.4 (5da689c313, 2019-01-14)"
   sodipodi:docname="Vents.svg">
  <defs
     id="defs2" />
  <sodipodi:namedview
     id="base"
     pagecolor="#ffffff"
     bordercolor="#666666"
     borderopacity="1.0"
     inkscape:pageopacity="0.0"
     inkscape:pageshadow="2"
     inkscape:zoom="1.6079123"
     inkscape:cx="183.88719"
     inkscape:cy="261.07404"
     inkscape:document-units="mm"
     inkscape:current-layer="layer1"
     showgrid="false"
     showborder="false"
     inkscape:window-width="1920"
     inkscape:window-height="1016"
     inkscape:window-x="0"
     inkscape:window-y="584"
     inkscape:window-maximized="1"
     inkscape:measure-start="0,0"
     inkscape:measure-end="0,0"
     showguides="true"
     inkscape:guide-bbox="true"
     fit-margin-top="0"
     fit-margin-left="0"
     fit-margin-right="0"
     fit-margin-bottom="0" />
  <metadata
     id="metadata5">
    <rdf:RDF>
      <cc:Work
         rdf:about="">
        <dc:format>image/svg+xml</dc:format>
        <dc:type
           rdf:resource="http://purl.org/dc/dcmitype/StillImage" />
        <dc:title></dc:title>
      </cc:Work>
    </rdf:RDF>
  </metadata>
  <g
     inkscape:label="Layer 1"
     inkscape:groupmode="layer"
     id="layer1"
     transform="translate(320.23059,96.005166)">
    <path
       id="path4747"
       style="opacity:1;fill:none;fill-opacity:1;fill-rule:nonzero;stroke:#ff0000;stroke-width:0.26458332;stroke-linejoin:round;stroke-miterlimit:7.8342247;stroke-dasharray:none;stroke-opacity:1"
       d="m -284.62742,-70.097414 -0.4654,-0.744786 0.41231,-0.77543 0.8777,-0.03065 0.46539,0.744785 -0.4123,0.77544 z m -0.30281,3.572084 -0.52853,-0.701389 0.34315,-0.808422 0.87169,-0.107034 0.52853,0.701389 -0.34315,0.808422 z m -1.02791,3.411249 -0.58766,-0.652655 0.2714,-0.835244 0.85903,-0.182636 0.58765,0.652664 -0.27139,0.835253 z m -1.44665,3.122675 -0.78935,-0.384989 -0.0613,-0.87609 0.72808,-0.491111 0.78936,0.384998 0.0613,0.876099 z m -3.29457,1.980926 0.24207,-0.844214 0.85216,-0.212428 0.61007,0.631746 -0.24207,0.844213 -0.85216,0.212431 z m -2.85718,2.165135 0.16757,-0.862095 0.8304,-0.285876 0.66282,0.576178 -0.16758,0.862094 -0.8304,0.285878 z m -3.22288,1.518709 0.0918,-0.873425 0.80231,-0.357221 0.71051,0.516214 -0.0918,0.873424 -0.80231,0.357211 z m -3.28846,1.014794 -0.24208,-0.844223 0.61007,-0.631752 0.85215,0.21247 0.24207,0.844213 -0.61007,0.631752 z m -3.50122,0.05075 -0.31473,-0.819908 0.5527,-0.682504 0.86742,0.137383 0.31473,0.819899 -0.55269,0.682523 z m -3.69625,-1.848165 0.75279,-0.45232 0.76812,0.425779 0.0153,0.878097 -0.7528,0.45233 -0.76812,-0.425777 z m -3.28513,-1.37883 0.71051,-0.516218 0.8023,0.357218 0.0918,0.873423 -0.71051,0.516209 -0.80231,-0.357206 z m -2.95434,-1.765133 0.46539,-0.744791 0.87771,0.03065 0.4123,0.775438 -0.4654,0.744781 -0.87769,-0.03065 z m -2.32874,-2.313532 0.1525,-0.864889 0.82526,-0.300408 0.67276,0.564508 -0.1525,0.864899 -0.82526,0.300411 z m -1.74998,-3.011056 0.0765,-0.874888 0.79595,-0.37116 0.71941,0.503735 -0.0765,0.874898 -0.79595,0.371152 z m -0.57508,-4.590817 0.85904,0.182598 0.27138,0.835252 -0.58765,0.652651 -0.85904,-0.182589 -0.2714,-0.835259 z m -0.44375,-3.51226 0.87169,0.107029 0.34315,0.808416 -0.52853,0.701386 -0.87169,-0.10703 -0.34316,-0.808413 z m 0.30283,-3.506118 0.8777,0.0306 0.41231,0.775448 -0.46539,0.744781 -0.8777,-0.03065 -0.41231,-0.775444 z m 0.83919,-3.17351 0.82527,-0.30041 0.67277,0.56452 -0.15251,0.8649 -0.82526,0.30041 -0.67276,-0.56452 z m 2.3908,-3.3934 0.78935,0.385 0.0613,0.87609 -0.72809,0.4911 -0.78935,-0.38499 -0.0613,-0.8761 z m 2.05742,-2.55781 0.8761,0.0613 0.385,0.78936 -0.49111,0.72809 -0.8761,-0.0613 -0.38498,-0.78934 z m 4.11227,-1.07502 -0.62101,0.621 -0.8483,-0.2273 -0.22731,-0.84831 0.62101,-0.62101 0.84831,0.22731 z m 1.88642,-2.38522 0.87342,-0.0918 0.51621,0.71052 -0.35721,0.8023 -0.87342,0.0918 -0.51622,-0.7105 z m 3.42085,-0.69219 0.8621,-0.16757 0.57617,0.66282 -0.28592,0.83038 -0.8621,0.16758 -0.57618,-0.66281 z m 4.86287,0.17172 0.0613,0.87609 -0.72809,0.4911 -0.78935,-0.38498 -0.0613,-0.8761 0.72809,-0.49111 z m 3.43526,0.67829 0.13739,0.86742 -0.68252,0.55269 -0.8199,-0.31473 -0.13739,-0.86742 0.68252,-0.5527 z m 2.99418,1.23195 0.45233,0.7528 -0.42578,0.76813 -0.8781,0.0153 -0.45232,-0.75279 0.42577,-0.76811 z m 2.81039,2.05752 0.51621,0.7105 -0.3572,0.80231 -0.87343,0.0918 -0.51621,-0.71051 0.35721,-0.8023 z m 2.3099,2.61649 0.57617,0.6628 -0.28593,0.83039 -0.86209,0.16758 -0.57618,-0.66281 0.28593,-0.83039 z m 2.36304,3.78998 -0.32899,0.81428 -0.86969,0.12223 -0.54069,-0.69206 0.32899,-0.81429 0.86969,-0.12222 z m 0.73372,4.226046 -0.87489,0.07655 -0.50374,-0.719416 0.37116,-0.795948 0.87489,-0.0765 0.50374,0.719411 z m -17.15413,-12.543016 a 15.362458,15.362458 0 0 0 -0.9312,0.0326 l -10e-6,0.81338 0.93121,0.53743 0.93121,-0.53743 v -0.79943 a 15.362458,15.362458 0 0 0 -0.93121,-0.0465 z m 0.93121,0.84594 v 1.07539 l 0.93173,0.53743 0.93069,-0.53743 v -1.07539 l -0.93121,-0.53743 z m 0.93121,-0.53743 0.25013,-0.14465 a 15.362458,15.362458 0 0 0 -0.65888,-0.0915 z m 0.93121,0.53743 0.93173,0.53796 0.93069,-0.53744 v -0.11782 a 15.362458,15.362458 0 0 0 -1.86241,-0.46199 z m 1.86242,5.3e-4 v 1.07487 l 0.93121,0.53744 0.93121,-0.53744 v -0.4501 a 15.362458,15.362458 0 0 0 -1.73736,-0.69712 z m 1.86242,1.07487 v 1.07538 l 0.93121,0.53744 0.93121,-0.53743 v -0.49351 a 15.362458,15.362458 0 0 0 -1.43815,-0.82682 z m 1.86242,1.07539 v 1.07486 l 0.93121,0.53796 0.93172,-0.53796 10e-6,-0.13591 a 15.362458,15.362458 0 0 0 -1.46141,-1.17047 z m 1.86293,1.07486 10e-6,1.07591 0.93069,0.53744 0.49557,-0.28629 a 15.362458,15.362458 0 0 0 -1.33635,-1.37925 z m 0.9307,1.61335 -0.9307,0.53743 10e-6,1.07539 0.9312,0.53743 0.93121,-0.53744 v -1.07538 z m 0.93172,0.53743 0.37569,0.21704 a 15.362458,15.362458 0 0 0 -0.37569,-0.52503 z m 0,1.07538 v 1.07539 l 0.93121,0.53744 0.70332,-0.40566 a 15.362458,15.362458 0 0 0 -0.9338,-1.61128 z m 0.93121,1.61283 -0.93121,0.53743 v 1.07591 l 0.93121,0.53743 0.93121,-0.53795 v -1.07487 z m 0.93121,0.53795 0.262,0.15141 a 15.362458,15.362458 0 0 0 -0.262,-0.58601 z m 0,1.07487 v 1.075389 l 0.93121,0.537946 0.0894,-0.05169 a 15.362458,15.362458 0 0 0 -0.52401,-1.84794 z m 0.93121,1.613335 -0.93121,0.537433 v 1.075389 l 0.93121,0.537434 0.39791,-0.229955 a 15.362458,15.362458 0 0 0 -0.28164,-1.85312 z m 0,2.150256 -0.93121,0.537433 v 1.075389 l 0.93121,0.537956 0.42116,-0.243401 a 15.362458,15.362458 0 0 0 0.0413,-0.83199 15.362458,15.362458 0 0 0 -0.0289,-0.824758 z m 0,2.150778 -0.93121,0.537433 v 1.07539 l 0.93121,0.537433 0.13178,-0.07595 a 15.362458,15.362458 0 0 0 0.26562,-1.84485 z m 0,2.150256 -0.93121,0.537946 v 1.075389 l 0.49454,0.285254 a 15.362458,15.362458 0 0 0 0.53434,-1.842263 z m -0.93121,1.613335 -0.93121,-0.537947 -0.93121,0.537433 v 1.075902 l 0.93121,0.537434 0.93121,-0.537955 z m 0,1.074867 v 0.443906 a 15.362458,15.362458 0 0 0 0.26149,-0.5948 z m -0.93121,0.537955 -0.93121,0.537432 v 1.075389 l 0.69919,0.403594 a 15.362458,15.362458 0 0 0 0.92449,-1.616958 z m -0.93121,1.612821 -0.9312,-0.537947 -0.93122,0.537946 10e-6,1.075389 0.9312,0.537434 0.93121,-0.537432 z m 0,1.07539 v 0.288351 a 15.362458,15.362458 0 0 0 0.39067,-0.51418 z m -0.93121,0.537432 -0.93121,0.537433 v 1.075902 l 0.0915,0.05276 a 15.362458,15.362458 0 0 0 1.34669,-1.373552 z m -0.93121,1.613335 -0.93172,-0.537947 -0.93121,0.537946 v 1.074877 l 0.38964,0.224792 a 15.362458,15.362458 0 0 0 1.47329,-1.166343 z m -1.86293,1.074876 -0.93069,-0.537436 -0.93173,0.537434 v 1.07539 l 0.4408,0.254241 a 15.362458,15.362458 0 0 0 1.42162,-0.825783 z m -1.86242,1.075388 -0.93121,-0.537435 -0.93121,0.537433 v 1.074866 l 0.11576,0.06667 a 15.362458,15.362458 0 0 0 1.74666,-0.68988 z m -1.86242,1.074864 -0.93069,-0.537434 -0.93172,0.537955 -1e-5,0.581876 a 15.362458,15.362458 0 0 0 1.86243,-0.476961 z m -1.86242,5.32e-4 v -1.075389 l -0.93121,-0.537947 -0.93121,0.537946 v 1.074876 l 0.93173,0.537945 z m -0.93069,0.537431 -0.38602,0.222725 a 15.362458,15.362458 0 0 0 0.6382,-0.077 z m -0.93173,-0.537945 -0.9312,-0.537434 -0.93121,0.537945 -10e-6,0.799432 a 15.362458,15.362458 0 0 0 0.93121,0.04651 15.362458,15.362458 0 0 0 0.93122,-0.03255 z m -1.86242,5.22e-4 10e-6,-1.07538 -0.93121,-0.537956 -0.93121,0.537954 v 1.07539 l 0.93121,0.537434 z m -0.9312,0.537442 -0.2501,0.144224 a 15.362458,15.362458 0 0 0 0.65887,0.09198 z m -0.93121,-0.537434 -0.93121,-0.537957 -0.93121,0.537955 v 0.117306 a 15.362458,15.362458 0 0 0 1.86241,0.461466 z m -1.86242,-2e-6 v -1.075389 l -0.93121,-0.537435 -0.93121,0.537434 v 0.449584 a 15.362458,15.362458 0 0 0 1.73788,0.697637 z m -1.86242,-1.07539 v -1.07539 l -0.93121,-0.537434 -0.93121,0.537443 v 0.493472 a 15.362458,15.362458 0 0 0 1.43816,0.826822 z m -1.86242,-1.075381 v -1.07539 l -0.93121,-0.537434 -0.93121,0.537945 v 0.13591 a 15.362458,15.362458 0 0 0 1.46141,1.170991 z m -1.86242,-1.074879 v -1.075379 l -0.93121,-0.537957 -0.49557,0.28577 a 15.362458,15.362458 0 0 0 1.33687,1.379765 z m -0.93121,-1.613336 0.93121,-0.537432 v -1.075389 l -0.93121,-0.537435 -0.93121,0.537433 10e-6,1.075389 z m -0.9312,-0.537434 -0.37621,-0.217042 a 15.362458,15.362458 0 0 0 0.3762,0.526065 z m -10e-6,-1.075389 10e-6,-1.07538 -0.93121,-0.537433 -0.70332,0.406168 a 15.362458,15.362458 0 0 0 0.93379,1.610757 z m -0.9312,-1.612813 0.9312,-0.537443 v -1.075421 l -0.9312,-0.537946 -0.93122,0.537945 10e-6,1.074876 z m -0.93121,-0.537957 -0.26304,-0.151925 a 15.362458,15.362458 0 0 0 0.26303,0.587561 z m 0,-1.074867 v -1.075389 l -0.93121,-0.537434 -0.0899,0.05165 a 15.362458,15.362458 0 0 0 0.52452,1.847943 z m -0.93121,-1.612823 0.9312,-0.537955 10e-6,-1.074867 -0.93173,-0.537956 -0.39739,0.229451 a 15.362458,15.362458 0 0 0 0.28163,1.854146 z m -5.3e-4,-2.150774 0.93172,-0.537956 v -1.074866 l -0.93121,-0.537947 -0.42116,0.242878 a 15.362458,15.362458 0 0 0 -0.0419,0.832505 15.362458,15.362458 0 0 0 0.0295,0.825269 z m 5.3e-4,-2.150773 0.9312,-0.537955 10e-6,-1.074867 -0.93121,-0.537947 -0.13125,0.07599 a 15.362458,15.362458 0 0 0 -0.26613,1.845373 z m 0,-2.150769 0.9312,-0.537442 10e-6,-1.075377 -0.49455,-0.28527 a 15.362458,15.362458 0 0 0 -0.53433,1.841754 z m 0.93121,-1.612819 0.9312,0.53794 0.93122,-0.53794 v -1.07539 l -0.93122,-0.53744 -0.9312,0.53744 z m 0,-1.07539 -10e-6,-0.44391 a 15.362458,15.362458 0 0 0 -0.26148,0.5948 z m 0.9312,-0.53744 0.93121,-0.53744 10e-6,-1.07538 -0.6997,-0.40359 a 15.362458,15.362458 0 0 0 -0.9245,1.61644 z m 0.93122,-1.61282 0.93121,0.53744 0.9312,-0.53744 v -1.07538 l -0.9312,-0.53744 -0.93121,0.53743 z m 0,-1.07539 v -0.28836 a 15.362458,15.362458 0 0 0 -0.39068,0.51418 z m 0.93121,-0.53743 0.9312,-0.53795 v -1.07539 l -0.092,-0.0532 a 15.362458,15.362458 0 0 0 -1.34617,1.37356 z m 0.9312,-1.61334 0.93121,0.53795 0.93121,-0.53744 v -1.0759 l -0.38912,-0.22478 a 15.362458,15.362458 0 0 0 -1.4733,1.16633 z m 1.86242,-1.07539 0.93121,0.53796 0.93121,-0.53744 v -1.07538 l -0.44028,-0.25426 a 15.362458,15.362458 0 0 0 -1.42214,0.82631 z m 1.86242,-1.07486 0.93121,0.53743 0.93121,-0.53743 v -1.07539 l -0.11526,-0.0662 a 15.362458,15.362458 0 0 0 -1.74718,0.69041 z m 1.86242,-1.07539 0.93121,0.53795 0.93121,-0.53795 v -0.58188 a 15.362458,15.362458 0 0 0 -1.86242,0.47749 z m 1.86242,0 v 1.07539 l 0.93121,0.53743 0.93121,-0.53743 v -1.07539 l -0.93121,-0.53743 z m 0.93121,-0.53743 0.38602,-0.22273 a 15.362458,15.362458 0 0 0 -0.6382,0.077 z m 0.93121,1.61282 v 1.07538 l 0.9312,0.53743 0.93121,-0.53743 v -1.07539 l -0.9312,-0.53795 z m 1.86241,1.07538 10e-6,1.07539 0.9312,0.53743 0.93122,-0.53743 v -1.0759 l -0.9307,-0.53744 z m 1.86242,-5.3e-4 0.93173,0.53795 0.93069,-0.53744 v -1.07538 l -0.93069,-0.53743 -0.93173,0.53743 z m 1.86242,5.3e-4 v 1.07487 l 0.93173,0.53796 0.93069,-0.53745 v -1.07537 l -0.93121,-0.53796 z m 1.86242,1.07538 v 1.07487 l 0.93173,0.53796 0.93069,-0.53743 v -1.07591 l -0.93121,-0.53743 z m 1.86242,1.0754 v 1.07486 l 0.93121,0.53744 0.93172,-0.53744 10e-6,-1.07486 -0.93173,-0.53796 z m 0.93121,1.6123 -0.93121,0.53795 v 1.07539 l 0.93173,0.53743 0.9312,-0.53744 10e-6,-1.07538 z m 0.93172,1.61333 v 1.07539 l 0.93121,0.53743 0.93121,-0.53794 v -1.07488 l -0.93121,-0.53794 z m 0.93121,1.61282 -0.9312,0.53745 -10e-6,1.075376 0.93121,0.537434 0.93121,-0.537432 v -1.074868 z m 0.93121,1.612828 v 1.075389 l 0.93121,0.537434 0.93121,-0.537432 v -1.075389 l -0.93121,-0.53743 z m 0.93121,1.612823 -0.93121,0.537945 v 1.074877 l 0.93121,0.537947 0.93121,-0.537945 v -1.074877 z m 0,2.150769 -0.93121,0.537442 v 1.07538 l 0.93121,0.537956 0.93121,-0.537955 v -1.075379 z m 0,2.150778 -0.93121,0.537433 v 1.075389 l 0.93121,0.537434 0.93121,-0.537432 v -1.075389 z m -0.93121,1.612822 -0.93121,-0.537957 -0.93121,0.537955 10e-6,1.075389 0.9312,0.537435 0.93121,-0.537955 z m -0.93121,1.612822 -0.93121,0.537432 10e-6,1.075389 0.9312,0.537435 0.93121,-0.537433 v -1.074876 z m -0.9312,1.612821 -0.93121,-0.537434 -0.93173,0.537434 v 1.074867 l 0.93173,0.537955 0.93121,-0.537432 z m -0.93121,1.612822 -0.93173,0.537947 v 1.074876 l 0.93121,0.537947 0.93173,-0.537946 -10e-6,-1.074877 z m -0.93173,1.612823 -0.93121,-0.537434 -0.93121,0.537945 v 1.074877 l 0.93173,0.537945 0.93069,-0.537431 z m -1.86242,1.075388 -0.93121,-0.537444 -0.93121,0.537442 v 1.07538 l 0.93121,0.537956 0.93121,-0.537955 z m -1.86242,1.075378 -0.93121,-0.537435 -0.9312,0.537443 -1e-5,1.075379 0.93173,0.537443 0.93069,-0.537441 z m -1.86241,8e-6 -1e-5,-1.07539 -0.93121,-0.537433 -0.93121,0.537433 v 1.075389 l 0.93121,0.537434 z m -1.86243,-10e-7 -0.9312,-0.537435 -0.93121,0.537433 v 1.075389 l 0.93121,0.537434 0.9312,-0.537442 z m -1.86241,-2e-6 v -1.075389 l -0.93121,-0.537434 -0.93121,0.537954 v 1.074867 l 0.93121,0.537435 z m -1.86242,-2e-6 -0.9307,-0.537435 -0.93172,0.537434 v 1.075389 l 0.93121,0.537434 0.93121,-0.537433 z m -1.86242,-10e-7 v -1.07538 l -0.93121,-0.537444 -0.93121,0.537443 v 1.075379 l 0.93121,0.537956 z m -1.86242,-1.075381 v -1.075389 l -0.93121,-0.537434 -0.93121,0.537945 v 1.074876 l 0.93121,0.537947 z m -1.86242,-1.074878 v -1.07538 l -0.93121,-0.537956 -0.93121,0.537955 v 1.075389 l 0.93121,0.537434 z m -0.93121,-1.613336 0.93121,-0.537433 v -1.075389 l -0.93121,-0.537434 -0.93121,0.537432 v 1.07539 z m -0.93121,-1.612824 v -1.075421 l -0.93121,-0.537434 -0.9312,0.537955 -10e-6,1.074867 0.93122,0.537956 z m -0.9312,-1.612814 0.9312,-0.537442 v -1.075379 l -0.9312,-0.537435 -0.93121,0.537433 v 1.075389 z m -0.93121,-1.612823 v -1.075389 l -0.93122,-0.537433 -0.93121,0.537432 10e-6,1.075389 0.9312,0.537435 z m -0.93122,-1.612822 0.93121,-0.537956 10e-6,-1.07538 -0.93122,-0.537433 -0.9312,0.537432 v 1.075902 z m 0,-2.150769 0.93122,-0.537956 -10e-6,-1.074877 -0.93121,-0.537946 -0.93121,0.537433 10e-6,1.075911 z m 0,-2.150779 0.93122,-0.537433 -10e-6,-1.075389 -0.93121,-0.537438 -0.93121,0.537437 10e-6,1.075389 z m 0.93121,-1.612822 0.93121,0.537434 0.93121,-0.537432 v -1.07539 l -0.93121,-0.53743 -0.9312,0.53744 z m 0.93121,-1.612818 0.93121,-0.53744 v -1.07539 l -0.9312,-0.53794 -0.93122,0.53794 10e-6,1.07488 z m 0.93121,-1.61283 0.93121,0.53744 0.93121,-0.53743 v -1.07539 l -0.93121,-0.53795 -0.93121,0.53795 z m 0.93121,-1.61333 0.93121,-0.53743 v -1.07539 l -0.93121,-0.53744 -0.93121,0.53744 v 1.07539 z m 0.93121,-1.61282 0.93121,0.53795 0.93121,-0.53795 v -1.07539 l -0.93121,-0.53743 -0.93121,0.53794 z m 1.86242,-1.07539 0.93121,0.53795 0.93121,-0.53795 v -1.07487 l -0.93121,-0.53795 -0.93121,0.53795 z m 1.86242,-1.07487 0.93121,0.53744 0.93121,-0.53744 v -1.07538 l -0.93121,-0.53744 -0.93121,0.53744 z m 1.86242,0 v 1.07487 l 0.93121,0.53795 0.93121,-0.53743 v -1.07539 l -0.93121,-0.53795 z m 1.86242,1.07539 v 1.07486 l 0.93121,0.53796 0.9312,-0.53795 10e-6,-1.07487 -0.93122,-0.53796 z m 1.86241,1.07487 v 1.07539 l 0.93121,0.53743 0.93122,-0.53743 -1e-5,-1.07539 -0.93121,-0.53744 z m 1.86242,0 0.93121,0.53795 0.93121,-0.53744 v -1.0759 l -0.93069,-0.53743 -0.93172,0.53795 z m 1.86242,5.2e-4 v 1.07488 l 0.93121,0.53795 0.93121,-0.53796 v -1.07538 l -0.93069,-0.53743 z m 1.86242,1.07487 v 1.07539 l 0.93121,0.53743 0.93121,-0.53743 v -1.07539 l -0.93069,-0.53743 z m 0.93121,1.61282 -0.93121,0.53796 v 1.07487 l 0.93173,0.53795 0.93069,-0.53744 v -1.07538 z m 0.93121,1.61334 v 1.07488 l 0.93172,0.53794 0.93122,-0.53794 -10e-6,-1.07488 -0.9312,-0.53795 z m 0.93172,1.61282 -0.93172,0.537959 v 1.074354 l 0.93172,0.537945 0.93122,-0.537432 -10e-6,-1.075389 z m 0.93122,1.612826 v 1.075389 l 0.9312,0.537434 0.93121,-0.537442 v -1.07538 l -0.93121,-0.537956 z m 0.9312,1.612823 -0.93121,0.537433 v 1.075902 l 0.9307,0.537435 0.93172,-0.537946 v -1.075389 z m -5.3e-4,2.150774 -0.93069,0.537431 v 1.075389 l 0.93121,0.537435 0.93121,-0.537433 v -1.075389 z m -0.93069,1.61282 -0.93172,-0.537955 -0.93121,0.537955 -1e-5,1.074867 0.93173,0.537955 0.93121,-0.537432 z m -0.93121,1.612822 -0.93173,0.537947 1e-5,1.074876 0.93172,0.537946 0.93121,-0.537945 v -1.074877 z m -0.93172,1.612823 -0.9307,-0.537435 -0.93172,0.537946 v 1.074354 l 0.93172,0.537956 0.93069,-0.537441 z m -0.9307,1.612821 -0.93172,0.537946 v 1.075389 l 0.93121,0.537435 0.93121,-0.537433 v -1.075902 z m -0.93172,1.613335 -0.93121,-0.537947 -0.93121,0.537946 v 1.074876 l 0.93121,0.537947 0.93121,-0.537432 z m -1.86242,1.074875 -0.93121,-0.537434 -0.93121,0.537945 v 1.074877 l 0.93121,0.537947 0.93121,-0.537955 z m -1.86242,5.22e-4 v -1.07538 l -0.93069,-0.537957 -0.93173,0.537956 v 1.07538 l 0.93121,0.537444 z m -1.86242,-10e-7 -0.93121,-0.537947 -0.93121,0.537955 v 1.074867 l 0.93121,0.537947 0.93121,-0.537946 z m -1.86242,8e-6 v -1.075389 l -0.93121,-0.537957 -0.93121,0.537955 v 1.074867 l 0.93121,0.537956 z m -1.86242,-5.35e-4 -0.9312,-0.537434 -0.93121,0.537955 v 1.074867 l 0.93172,0.537955 0.93069,-0.537441 z m -1.86241,5.31e-4 v -1.075389 l -0.93121,-0.537434 -0.93121,0.537433 v 1.074877 l 0.93121,0.537946 z m -1.86242,-1.07539 v -1.075379 l -0.93121,-0.537957 -0.93121,0.537955 v 1.075389 l 0.93121,0.537434 z m -0.93121,-1.613336 0.93121,-0.537433 v -1.074866 l -0.93121,-0.537957 -0.93121,0.537433 v 1.075389 z m -0.9312,-1.61288 v -1.074867 l -0.93121,-0.537956 -0.93121,0.537955 v 1.074866 l 0.93121,0.537957 z m -0.93121,-1.612823 0.93121,-0.537433 V -68.1846 l -0.93121,-0.537434 -0.93121,0.537442 v 1.075379 z m -0.93121,-1.612814 v -1.075389 l -0.9312,-0.537434 -0.93121,0.537432 v 1.075389 l 0.9312,0.537947 z m -0.9312,-1.612823 0.9312,-0.537433 v -1.075912 l -0.93121,-0.537434 -0.9312,0.537442 -10e-6,1.07538 z m -1e-5,-2.150779 0.93121,-0.537432 v -1.075389 l -0.93121,-0.537947 -0.9312,0.537954 v 1.07538 z m 0.93121,-1.612821 0.93121,0.537434 0.93121,-0.537433 v -1.075379 l -0.93121,-0.53744 -0.93121,0.537438 z m 0.93121,-1.612818 0.93121,-0.53795 v -1.07487 l -0.93121,-0.53795 -0.93121,0.53795 v 1.07487 z m 0.93121,-1.61282 0.93121,0.53743 0.93121,-0.53795 v -1.07539 l -0.93121,-0.53743 -0.93121,0.53795 z m 0.93121,-1.61334 0.93121,-0.53743 v -1.07539 l -0.93121,-0.53744 -0.93121,0.53744 v 1.07539 z m 0.93121,-1.61282 0.93121,0.53743 0.93121,-0.53743 v -1.07539 l -0.93121,-0.53743 -0.93121,0.53743 z m 1.86242,-1.07539 0.93172,0.53796 0.9307,-0.53744 v -1.07591 l -0.93121,-0.53743 -0.93121,0.53744 z m 1.86242,5.3e-4 v 1.07487 l 0.93121,0.53744 0.93121,-0.53744 v -1.07539 l -0.93121,-0.53743 z m 1.86242,1.07487 -10e-6,1.07538 0.93121,0.53744 0.93121,-0.53744 v -1.07538 l -0.9312,-0.53743 z m 1.86241,1.07538 v 1.07488 l 0.93173,0.53795 0.93069,-0.53744 v -1.07538 l -0.93121,-0.53795 z m 1.86242,10e-6 0.93173,0.53743 0.93069,-0.53743 v -1.07539 l -0.93121,-0.53744 -0.93121,0.53744 z m 1.86242,0 v 1.07486 l 0.93121,0.53796 0.93121,-0.53744 v -1.07538 l -0.93121,-0.53744 z m 0.93121,1.61282 -0.93121,0.53795 v 1.07487 l 0.93173,0.53795 0.93069,-0.53743 v -1.07591 z m 0.93121,1.61334 v 1.074863 l 0.93173,0.537442 0.93069,-0.536927 v -1.075898 l -0.93069,-0.53744 z m 0.93173,1.612305 -0.93173,0.537947 v 1.075389 l 0.93121,0.537435 0.93121,-0.537442 v -1.075902 z m 0.93069,1.613329 v 1.074876 l 0.93121,0.537946 0.93173,-0.537946 -10e-6,-1.074876 -0.9312,-0.537947 z m 0.93121,1.612822 -0.93121,0.537956 v 1.074867 l 0.93121,0.537433 0.93172,-0.537433 v -1.074867 z m -0.93121,1.612823 -0.93069,-0.537436 -0.93173,0.537434 v 1.075389 l 0.93121,0.537434 0.93121,-0.537432 z m -0.93121,1.612821 -0.93121,0.537955 v 1.074867 l 0.93173,0.537955 0.93069,-0.53744 v -1.075902 z m -0.93121,1.612822 -0.93069,-0.537435 -0.93173,0.537956 v 1.074867 l 0.93173,0.537955 0.93069,-0.537441 z m -0.93069,1.613343 -0.93173,0.537947 v 1.074876 l 0.93121,0.537434 0.93121,-0.537442 v -1.075912 z m -0.93173,1.612823 -0.93069,-0.537435 -0.93172,0.537433 -1e-5,1.07538 0.93121,0.537444 0.93121,-0.537442 z m -1.86241,-2e-6 -1e-5,-1.075389 -0.93121,-0.537434 -0.93121,0.537433 v 1.075389 l 0.93173,0.537433 z m -1.86243,-1e-6 -0.9312,-0.537434 -0.93121,0.537432 v 1.07539 l 0.93121,0.537434 0.93121,-0.537433 z m -1.86241,-2e-6 -10e-6,-1.075389 -0.9312,-0.537434 -0.93121,0.537433 v 1.075389 l 0.93121,0.537434 z m -1.86242,-1e-6 -0.93121,-0.537435 -0.93121,0.537433 v 1.075389 l 0.93121,0.537434 0.93121,-0.537432 z m -1.86242,-2e-6 v -1.075379 l -0.93121,-0.537435 -0.93121,0.537434 v 1.075379 l 0.93121,0.537956 z m -0.93121,-1.612814 0.93121,-0.537955 v -1.075389 l -0.93121,-0.537434 -0.93121,0.537956 v 1.075379 z m -0.93121,-1.612822 v -1.07539 l -0.93121,-0.537947 -0.93121,0.537946 v 1.075389 l 0.93121,0.537434 z m -0.93121,-1.613337 0.93121,-0.537442 v -1.075379 l -0.93121,-0.537444 -0.93121,0.537442 v 1.07538 z m -0.93121,-1.612823 v -1.075389 l -0.93069,-0.537435 -0.93173,0.537956 v 1.074866 l 0.93121,0.537947 z m -0.93069,-1.612824 0.93069,-0.537432 v -1.075902 l -0.93121,-0.537444 -0.93121,0.537955 v 1.074867 z m 0.93069,-1.613334 0.93173,0.537946 0.93069,-0.537432 v -1.075389 l -0.93121,-0.537946 -0.93121,0.537945 z m 0.93121,-1.612821 0.93121,-0.537443 v -1.075382 l -0.93121,-0.53744 -0.93121,0.53744 v 1.07539 z m 0.93121,-1.612825 0.93121,0.53795 0.93121,-0.53795 v -1.07539 l -0.93121,-0.53743 -0.93121,0.53743 z m 0.93121,-1.61282 0.93121,-0.53744 v -1.07538 l -0.93121,-0.53796 -0.93121,0.53796 v 1.07486 z m 0.93121,-1.61282 0.93121,0.53743 0.93121,-0.53743 v -1.07539 l -0.9307,-0.53743 -0.93172,0.53743 z m 1.86242,0 v 1.07538 l 0.93121,0.53743 0.93121,-0.53743 -10e-6,-1.07539 -0.9312,-0.53794 z m 1.86242,1.07538 -10e-6,1.07487 0.93122,0.53795 0.9312,-0.53743 v -1.0759 l -0.93121,-0.53744 z m 1.86241,1.07539 v 1.07487 l 0.93121,0.53795 0.93121,-0.53795 v -1.07539 l -0.93069,-0.53743 z m 1.86242,-5.3e-4 0.93173,0.53796 0.93069,-0.53744 v -1.07591 l -0.93069,-0.53743 -0.93173,0.53795 z m 0.93173,0.53796 -0.93173,0.53743 1e-5,1.075389 0.93172,0.537946 0.93069,-0.537432 v -1.075903 z m 0.93069,1.613333 v 1.074867 l 0.93173,0.537433 0.93069,-0.537431 V -74.6364 l -0.93069,-0.537433 z m 0.93173,1.6123 -0.93173,0.537956 v 1.074867 l 0.93121,0.537957 0.93121,-0.537442 v -1.07538 z m 0.93069,1.613338 v 1.074876 l 0.93173,0.537945 0.93069,-0.537431 v -1.075902 l -0.93121,-0.537434 z m 0,1.074876 -0.93121,-0.537434 -0.93121,0.537432 v 1.075389 l 0.93173,0.537947 0.93069,-0.537954 z m -0.93069,1.613334 -0.93173,0.537433 v 1.074876 l 0.93173,0.537947 0.93069,-0.537432 v -1.075389 z m -0.93173,1.612309 -0.93069,-0.537435 -0.93173,0.537946 1e-5,1.074877 0.93172,0.537946 0.93069,-0.537432 z m -0.93069,1.613334 -0.93173,0.537433 v 1.07539 l 0.93173,0.537955 0.93069,-0.537441 v -1.075902 z m -0.93173,0.537433 1e-5,-1.075379 -0.9307,-0.537435 -0.93173,0.537947 v 1.074866 l 0.93121,0.537957 z m -1.86242,-10e-7 -0.93121,-0.537434 -0.9312,0.537955 v 1.074867 l 0.93121,0.537957 0.9312,-0.537956 z m -1.86242,5.32e-4 10e-6,-1.075902 -0.93121,-0.537434 -0.93121,0.537432 v 1.075379 l 0.93121,0.537947 z m -1.86241,-5.25e-4 -0.93121,-0.537435 -0.93121,0.537433 v 1.075389 l 0.93121,0.537947 0.93121,-0.537955 z m -0.93121,-0.537435 0.93121,-0.537954 v -1.074867 l -0.93121,-0.537957 -0.93121,0.537955 v 1.074867 z m -0.93121,-1.612823 v -1.075389 l -0.93121,-0.537434 -0.93121,0.537433 v 1.075389 l 0.93121,0.537434 z m -0.93121,-1.612823 0.93121,-0.537955 v -1.07538 l -0.93069,-0.537435 -0.93173,0.537434 v 1.075389 z m -0.93121,-1.613336 v -1.075389 l -0.93069,-0.537436 -0.93173,0.537957 v 1.074866 l 0.93121,0.537947 z m 0,-1.075389 0.93173,0.537955 0.93069,-0.537441 v -1.07538 l -0.93121,-0.537957 -0.93121,0.537956 z m 0.93121,-1.612823 0.93121,-0.537432 V -74.6364 l -0.93121,-0.537433 -0.93121,0.537432 v 1.075389 z m 0.93121,-1.612821 0.93121,0.537956 0.93121,-0.537955 v -1.075384 l -0.93121,-0.53744 -0.93121,0.53744 z m 0.93121,-1.612823 0.93121,-0.53743 v -1.07539 l -0.93121,-0.53795 -0.93121,0.53795 v 1.07487 z m 0.93121,-0.53743 v 1.07487 l 0.93172,0.53795 0.9307,-0.53743 -10e-6,-1.07591 -0.9312,-0.53744 z m 1.86242,1.07539 v 1.074866 l 0.93121,0.537434 0.9312,-0.537432 v -1.075388 l -0.9312,-0.53744 z m 1.86241,1.074868 v 1.075379 l 0.93173,0.537443 0.93069,-0.537442 1e-5,-1.075379 -0.93122,-0.537439 z m 1.86242,1.07538 1e-5,1.074877 0.93172,0.537946 0.93069,-0.537432 v -1.075389 l -0.93069,-0.537435 z m 0.93173,1.612823 -0.93172,0.537956 -1e-5,1.074866 0.93121,0.537957 0.93121,-0.537955 v -1.075389 z m -5.3e-4,2.150773 -0.93121,0.537433 v 1.075389 l 0.93173,0.537433 0.93069,-0.537431 v -1.07539 z m -0.93121,1.612822 -0.93121,-0.537946 -0.93121,0.537945 v 1.074876 l 0.93173,0.537946 0.93069,-0.537432 z m -1.86242,1.074875 -0.93121,-0.537443 -0.93121,0.537955 v 1.074866 l 0.93121,0.537957 0.93121,-0.537433 z m -1.86242,5.22e-4 v -1.075902 l -0.93069,-0.537435 -0.93172,0.537956 v 1.075389 l 0.93121,0.537434 z m -1.86241,-1.075381 -1e-5,-1.075389 -0.93069,-0.537435 -0.93172,0.537433 v 1.075389 l 0.93121,0.537434 z m -0.9307,-1.612824 0.9307,-0.537432 v -1.075902 l -0.93121,-0.537434 -0.93121,0.537945 v 1.074876 z m -5.3e-4,-2.150774 0.93121,-0.537433 v -1.075389 l -0.93121,-0.537434 -0.93121,0.537432 v 1.075389 z m 0.93121,-1.612822 0.93121,0.537434 0.93121,-0.537432 v -1.075389 l -0.93069,-0.537435 -0.93173,0.537443 z m 1.86242,2e-6 v 1.075389 l 0.93121,0.537434 0.93121,-0.537432 v -1.075389 l -0.93121,-0.537957 z m 1.86242,1.075391 v 1.074866 l 0.93121,0.537948 0.93121,-0.537434 v -1.075902 l -0.9307,-0.537435 z m 0.93121,1.612814 -0.93121,0.537954 v 1.074867 l 0.9312,0.537435 0.93122,-0.537434 v -1.075389 z m -0.93121,1.612821 -0.93121,-0.537434 -0.93121,0.537433 v 1.074876 l 0.93121,0.537947 0.93121,-0.537433 z m -1.86242,-10e-7 v -1.07538 l -0.93069,-0.537435 -0.93173,0.537946 v 1.074876 l 0.93173,0.537434 z m -0.93069,-1.612815 0.93069,-0.537441 v -1.07538 l -0.93121,-0.537957 -0.93121,0.537955 v 1.074867 z m 0.93069,-0.537441 v 1.074876 l 0.93121,0.537947 0.93121,-0.537433 v -1.075902 l -0.93121,-0.537434 z m 19.79243,0.537383 a 18.861071,18.861071 0 0 1 -18.86106,18.861071 18.861071,18.861071 0 0 1 -18.86108,-18.861076 18.861071,18.861071 0 0 1 18.86107,-18.861071 18.861071,18.861071 0 0 1 18.86107,18.861076 z"
       inkscape:connector-curvature="0" />
    <g
       id="g5181"
       transform="translate(52.039494,8.3619298)"
       style="stroke:#ff0000">
      <path
         id="path5165"
         style="fill:none;fill-rule:evenodd;stroke:#ff0000;stroke-width:0.26458332px;stroke-linecap:butt;stroke-linejoin:miter;stroke-opacity:1"
         d="m -307.02205,-8.6243209 h 13.85324 m -13.85324,-2.7901431 h 13.85324 m -13.85324,-2.790171 h 13.85324 m -13.85324,-2.79014 h 13.85324 m -13.85324,-2.79014 h 13.85324 m -13.85324,-2.790172 h 13.85324 m -13.85324,-2.790139 h 13.85324 m -13.85324,-2.790173 h 13.85324 m -13.85324,-2.79014 h 13.85324 m -13.85324,-2.79014 h 13.85324 m -13.85324,-2.790171 h 13.85324 m -13.85324,-2.790141 h 13.85324 m -11.62662,-4.654165 h 9.4 c 2.9362,0 5.3,2.3638 5.3,5.3 v 29.3999999 c 0,2.9362001 -2.3638,5.3000001 -5.3,5.3000001 h -9.4 c -2.9362,0 -5.3,-2.3638 -5.3,-5.3000001 V -38.670156 c 0,-2.9362 2.3638,-5.3 5.3,-5.3 z"
         inkscape:connector-curvature="0" />
    </g>
    <g
       id="g5254"
       transform="translate(-55.063067,-26.39081)"
       style="stroke:#ff0000">
      <path
         inkscape:connector-curvature="0"
         id="rect5185"
         transform="scale(0.26458333)"
         d="m -805.01172,-262.60938 c -10.46929,10e-6 -18.89844,8.42915 -18.89844,18.89844 v 151.181643 c 0,10.469291 8.42915,18.896485 18.89844,18.896485 h 7.19727 v -7.082032 c 0,-4.187716 3.37087,-7.558594 7.55859,-7.558594 h 121.66797 c 4.18772,0 7.56055,3.370878 7.56055,7.558594 v 7.082032 h 7.19726 c 10.46929,0 18.89649,-8.427194 18.89649,-18.896485 V -243.71094 c 0,-10.46929 -8.4272,-18.89844 -18.89649,-18.89844 h -7.19726 v 7.08204 c 0,4.18771 -3.37283,7.56054 -7.56055,7.56054 h -121.66797 c -4.18772,0 -7.55859,-3.37283 -7.55859,-7.56054 v -7.08204 z"
         style="opacity:1;fill:none;fill-opacity:1;fill-rule:nonzero;stroke:#ff0000;stroke-width:0.99999994;stroke-linejoin:round;stroke-miterlimit:7.8342247;stroke-dasharray:none;stroke-opacity:1" />
      <g
         transform="translate(0.20868345,-0.18250836)"
         id="g5211"
         style="stroke:#ff0000">
        <path
           inkscape:transform-center-x="-2.3510816e-06"
           sodipodi:type="star"
           style="opacity:1;fill:none;fill-opacity:1;fill-rule:nonzero;stroke:#ff0000;stroke-width:0.26458332;stroke-linejoin:round;stroke-miterlimit:7.8342247;stroke-dasharray:none;stroke-opacity:1"
           id="path5197"
           sodipodi:sides="6"
           sodipodi:cx="-299.13232"
           sodipodi:cy="25.224512"
           sodipodi:r1="0.87823474"
           sodipodi:r2="0.76057363"
           sodipodi:arg1="0.78539816"
           sodipodi:arg2="1.3089969"
           inkscape:flatsided="true"
           inkscape:rounded="0"
           inkscape:randomized="0"
           d="m -298.51132,25.845518 -0.84831,0.227304 -0.621,-0.621006 0.2273,-0.84831 0.84831,-0.227304 0.62101,0.621006 z"
           transform="rotate(-45.00003,-366.2754,-121.88583)" />
        <path
           d="m -313.31732,16.961918 -0.84831,0.227303 -0.621,-0.621005 0.2273,-0.84831 0.84831,-0.227304 0.62101,0.621006 z"
           inkscape:randomized="0"
           inkscape:rounded="0"
           inkscape:flatsided="true"
           sodipodi:arg2="1.3089969"
           sodipodi:arg1="0.78539816"
           sodipodi:r2="0.76057363"
           sodipodi:r1="0.87823474"
           sodipodi:cy="16.340912"
           sodipodi:cx="-313.93832"
           sodipodi:sides="6"
           id="path5201"
           style="opacity:1;fill:none;fill-opacity:1;fill-rule:nonzero;stroke:#ff0000;stroke-width:0.26458332;stroke-linejoin:round;stroke-miterlimit:7.8342247;stroke-dasharray:none;stroke-opacity:1"
           sodipodi:type="star"
           inkscape:transform-center-x="2.9374227e-06"
           transform="rotate(139.00001,-256.95349,15.077544)"
           inkscape:transform-center-y="-1.680905e-05" />
        <path
           inkscape:transform-center-y="9.0801958e-06"
           transform="rotate(154,-223.42123,-5.6759311)"
           d="m -295.55011,25.845518 -0.84831,0.227304 -0.621,-0.621006 0.2273,-0.84831 0.84831,-0.227304 0.62101,0.621006 z"
           inkscape:randomized="0"
           inkscape:rounded="0"
           inkscape:flatsided="true"
           sodipodi:arg2="1.3089969"
           sodipodi:arg1="0.78539816"
           sodipodi:r2="0.76057363"
           sodipodi:r1="0.87823474"
           sodipodi:cy="25.224512"
           sodipodi:cx="-296.17111"
           sodipodi:sides="6"
           id="path5203"
           style="opacity:1;fill:none;fill-opacity:1;fill-rule:nonzero;stroke:#ff0000;stroke-width:0.26458332;stroke-linejoin:round;stroke-miterlimit:7.8342247;stroke-dasharray:none;stroke-opacity:1"
           sodipodi:type="star" />
        <path
           inkscape:transform-center-x="1.0446206e-05"
           inkscape:transform-center-y="-1.2359762e-05"
           transform="rotate(-145,-241.13257,-25.049371)"
           d="m -298.51132,14.000718 -0.84831,0.227304 -0.621,-0.621006 0.2273,-0.84831 0.84831,-0.227304 0.62101,0.621006 z"
           inkscape:randomized="0"
           inkscape:rounded="0"
           inkscape:flatsided="true"
           sodipodi:arg2="1.3089969"
           sodipodi:arg1="0.78539816"
           sodipodi:r2="0.76057363"
           sodipodi:r1="0.87823474"
           sodipodi:cy="13.379712"
           sodipodi:cx="-299.13232"
           sodipodi:sides="6"
           id="path5205"
           style="opacity:1;fill:none;fill-opacity:1;fill-rule:nonzero;stroke:#ff0000;stroke-width:0.26458332;stroke-linejoin:round;stroke-miterlimit:7.8342247;stroke-dasharray:none;stroke-opacity:1"
           sodipodi:type="star" />
      </g>
      <g
         transform="translate(5.4831641e-6,-0.13065145)"
         id="g5237"
         style="stroke:#ff0000">
        <ellipse
           style="opacity:1;fill:none;fill-opacity:1;fill-rule:nonzero;stroke:#ff0000;stroke-width:0.26458332;stroke-linejoin:round;stroke-miterlimit:7.8342247;stroke-dasharray:none;stroke-opacity:1"
           id="path5213"
           cx="-192.99287"
           cy="-60.490974"
           rx="16.277536"
           ry="1.2987397" />
        <ellipse
           ry="1.2987397"
           rx="16.277536"
           cy="-55.879662"
           cx="-192.99287"
           id="ellipse5215"
           style="opacity:1;fill:none;fill-opacity:1;fill-rule:nonzero;stroke:#ff0000;stroke-width:0.26458332;stroke-linejoin:round;stroke-miterlimit:7.8342247;stroke-dasharray:none;stroke-opacity:1" />
        <ellipse
           style="opacity:1;fill:none;fill-opacity:1;fill-rule:nonzero;stroke:#ff0000;stroke-width:0.26458332;stroke-linejoin:round;stroke-miterlimit:7.8342247;stroke-dasharray:none;stroke-opacity:1"
           id="ellipse5217"
           cx="-192.99287"
           cy="-51.268345"
           rx="16.277536"
           ry="1.2987397" />
        <ellipse
           ry="1.2987397"
           rx="16.277536"
           cy="-46.657032"
           cx="-192.99287"
           id="ellipse5219"
           style="opacity:1;fill:none;fill-opacity:1;fill-rule:nonzero;stroke:#ff0000;stroke-width:0.26458332;stroke-linejoin:round;stroke-miterlimit:7.8342247;stroke-dasharray:none;stroke-opacity:1" />
        <ellipse
           style="opacity:1;fill:none;fill-opacity:1;fill-rule:nonzero;stroke:#ff0000;stroke-width:0.26458332;stroke-linejoin:round;stroke-miterlimit:7.8342247;stroke-dasharray:none;stroke-opacity:1"
           id="ellipse5221"
           cx="-192.99287"
           cy="-42.04575"
           rx="16.277536"
           ry="1.2987397" />
        <ellipse
           ry="1.2987397"
           rx="16.277536"
           cy="-37.434437"
           cx="-192.99287"
           id="ellipse5223"
           style="opacity:1;fill:none;fill-opacity:1;fill-rule:nonzero;stroke:#ff0000;stroke-width:0.26458332;stroke-linejoin:round;stroke-miterlimit:7.8342247;stroke-dasharray:none;stroke-opacity:1" />
        <ellipse
           style="opacity:1;fill:none;fill-opacity:1;fill-rule:nonzero;stroke:#ff0000;stroke-width:0.26458332;stroke-linejoin:round;stroke-miterlimit:7.8342247;stroke-dasharray:none;stroke-opacity:1"
           id="ellipse5225"
           cx="-192.99287"
           cy="-32.82312"
           rx="16.277536"
           ry="1.2987397" />
        <ellipse
           ry="1.2987397"
           rx="16.277536"
           cy="-28.211802"
           cx="-192.99287"
           id="ellipse5227"
           style="opacity:1;fill:none;fill-opacity:1;fill-rule:nonzero;stroke:#ff0000;stroke-width:0.26458332;stroke-linejoin:round;stroke-miterlimit:7.8342247;stroke-dasharray:none;stroke-opacity:1" />
      </g>
    </g>
    <g
       id="g4696"
       transform="translate(-125.75542,-11.732957)"
       style="stroke:#ff0000">
      <path
         sodipodi:nodetypes="ccccccccc"
         inkscape:connector-curvature="0"
         id="rect5256"
         d="m -162.48181,16.124731 h -26 l -2,-2.000001 5.29167,-35.999998 2,-2.000001 h 15.41666 l 2,2.000001 5.29167,35.999998 z"
         style="opacity:1;fill:none;fill-opacity:1;fill-rule:nonzero;stroke:#ff0000;stroke-width:0.26458332;stroke-linejoin:round;stroke-miterlimit:7.8342247;stroke-dasharray:none;stroke-opacity:1" />
      <path
         style="opacity:1;fill:none;fill-opacity:1;fill-rule:nonzero;stroke:#ff0000;stroke-width:0.23878644;stroke-linejoin:round;stroke-miterlimit:7.8342247;stroke-dasharray:none;stroke-opacity:1"
         d="m -163.74931,14.703898 h -23.465 l -1.805,-1.805001 4.77574,-32.489998 1.805,-1.805001 h 13.91352 l 1.805,1.805001 4.77574,32.489998 z"
         id="path5259"
         inkscape:connector-curvature="0"
         sodipodi:nodetypes="ccccccccc" />
      <path
         inkscape:connector-curvature="0"
         id="path4683"
         d="m -183.17127,-20.2682 -0.64065,0.673994 -0.21521,1.540779 h 17.09066 l -0.2152,-1.540779 -0.64065,-0.673994 z m -1.16537,4.429031 -0.30953,2.214775 h 18.32875 l -0.30953,-2.214775 z m -0.61906,4.429029 -0.30902,2.2147738 h 19.56586 l -0.30903,-2.2147738 z m -0.61856,4.4290303 -0.30951,2.2147733 h 20.80396 l -0.30952,-2.2147733 z m -0.61904,4.4295466 -0.30953,2.21425653 h 22.04206 l -0.30952,-2.21425653 z m -0.61905,4.4290298 -0.30903,2.2142565 h 23.27917 l -0.30903,-2.2142565 z m -0.61854,4.42903 -0.30954,2.2142562 h 24.51728 l -0.30953,-2.2142562 z m -0.61907,4.4290303 -0.30264,2.166704 0.0456,0.04806 h 25.65025 l 0.0456,-0.04806 -0.30263,-2.166704 z"
         style="fill:none;fill-rule:evenodd;stroke:#ff0000;stroke-width:0.25800979px;stroke-linecap:butt;stroke-linejoin:miter;stroke-opacity:1" />
    </g>
    <path
       id="path18163"
       style="opacity:1;fill:none;fill-opacity:1;fill-rule:nonzero;stroke:#ff0000;stroke-width:0.26458332;stroke-linejoin:round;stroke-miterlimit:7.8342247;stroke-dasharray:none;stroke-opacity:1"
       d="m -293.88591,33.112856 a 7.638734,7.638734 0 0 1 -7.63873,7.638733 7.638734,7.638734 0 0 1 -7.63873,-7.638736 7.638734,7.638734 0 0 1 7.63873,-7.638733 7.638734,7.638734 0 0 1 7.63873,7.638736 z m -7.87991,-7.636226 0.17957,0.311092 0.18139,-0.314192 m -0.18139,0.314192 -0.7183,1.244369 h 1.43686 z m 0.71856,1.244369 0.71831,1.24411 0.7183,-1.24411 z m 2.04975,-1.061693 -0.61314,1.061693 h 1.43712 l -0.55656,-0.964024 m 1.64848,0.964024 h -1.09192 l 0.71804,1.24411 0.61314,-1.062209 m -0.61314,1.062209 -0.7183,1.244368 h 1.43686 z m 0.71856,1.244368 0.71831,1.24411 0.7183,-1.24411 z m 1.60766,-0.296364 -0.17105,0.296364 h 0.34106 m -1.05936,1.24411 -0.71831,1.244369 h 1.43661 z m 1.87326,1.244369 h -1.15496 l 0.71856,1.244368 0.4855,-0.841034 m -0.0274,1.634526 -0.45812,-0.793492 -0.71856,1.244111 h 1.10846 m -1.10846,0 h -1.43686 l 0.71856,1.244368 z m -0.7183,1.244368 -0.71856,1.244369 h 1.43686 z m 0.89168,1.244369 h -0.17338 l 0.084,0.145469 m -1.52084,-0.145469 h -1.4366 l 0.7183,1.24411 z m -0.21885,2.108914 -0.49945,-0.864804 -0.7183,1.244367 h 0.68703 m -1.00872,0.557332 0.32169,-0.557332 h -1.43687 l 0.47362,0.820365 m -0.47362,-0.820365 -0.7183,-1.244109 -0.7183,1.244109 z m -1.4366,0 h -1.43687 l 0.71831,1.24437 z m -0.70511,1.26763 -0.0134,-0.02326 -0.0127,0.02196 m -0.70566,-1.26633 -0.7183,-1.244109 -0.7183,1.244109 z m -1.88593,0.777989 0.44933,-0.777989 h -1.43686 l 0.26923,0.466639 m -0.81855,-0.466639 h 0.54932 l -0.71831,-1.244367 -0.45371,0.785998 m 0.45371,-0.785998 0.71831,-1.24411 h -1.43661 z m -0.7183,-1.24411 -0.71856,-1.244369 -0.7183,1.244369 z m -1.45491,0.03127 0.0181,-0.03127 h -0.0359 m 0.7542,-1.244369 0.71856,-1.244368 h -1.43686 z m -1.69137,-1.244368 h 0.97307 l -0.71856,-1.244111 -0.34313,0.594279 m -0.0194,-1.222147 0.36251,0.627868 0.71856,-1.244368 h -1.01622 m 1.01622,0 h 1.4366 l -0.7183,-1.244369 z m 0.7183,-1.244369 0.7183,-1.24411 h -1.4366 z m -0.92501,-1.24411 h 0.20671 l -0.10516,-0.182159 m 1.54176,0.182159 h 1.43687 l -0.71831,-1.244368 z m 0.15245,-2.224928 0.56611,0.98056 0.71805,-1.24411 h -0.96067 m 1.46348,-0.870748 -0.50281,0.870748 h 1.43712 l -0.59144,-1.024227 m 0.59144,1.024227 0.7183,1.24411 0.7183,-1.24411 z m 0.7183,1.24411 -0.71856,1.244368 h 1.43686 z m 0.7183,1.244368 0.71831,1.244369 0.71856,-1.244369 z m 1.43687,0 h 1.43686 l -0.71856,-1.244368 z m 1.43686,0 0.7183,1.24411 0.71831,-1.24411 z m 0.7183,1.24411 -0.71856,1.244369 h 1.43687 z m 0.71831,1.244369 0.7183,1.244368 0.71856,-1.244368 z m 0.7183,1.244368 -0.71805,1.244111 h 1.43635 z m -0.71805,1.244111 h -1.43712 l 0.71856,1.244368 z m -0.71856,1.244368 -0.7183,1.244369 h 1.43661 z m -0.7183,1.244369 h -1.43686 l 0.7183,1.244368 z m -1.43686,0 -0.71856,-1.244369 -0.71831,1.244369 z m -1.43687,0 h -1.43686 l 0.71856,1.244368 z m -1.43686,0 -0.7183,-1.244369 -0.7183,1.244369 z m -0.7183,-1.244369 0.71856,-1.244368 h -1.43712 z m -0.71856,-1.244368 -0.71805,-1.244111 -0.7183,1.244111 z m -0.71805,-1.244111 0.71831,-1.244368 h -1.43687 z m 0.71831,-1.244368 h 1.43686 l -0.71856,-1.244369 z m 0.7183,-1.244369 0.7183,-1.24411 h -1.4366 z m 0.71856,1.244369 0.7183,1.244368 0.7183,-1.244368 z m 1.4366,0 h 1.43687 l -0.71856,-1.24411 z m 1.43687,0 0.7183,1.244368 0.7183,-1.244368 z m 0.7183,1.244368 -0.7183,1.244111 h 1.4366 z m -0.7183,1.244111 h -1.43687 l 0.71831,1.244368 z m -1.43687,0 -0.7183,-1.244111 -0.7183,1.244111 z m 10.21048,-1.384671 a 9.4305355,9.4305355 0 0 1 -9.43053,9.430535 9.4305355,9.4305355 0 0 1 -9.43054,-9.430538 9.4305355,9.4305355 0 0 1 9.43054,-9.430535 9.4305355,9.4305355 0 0 1 9.43053,9.430538 z m -1.22039,-3.522678 -0.1645,0.40714 -0.43484,0.06112 -0.27035,-0.34603 0.1645,-0.407145 0.43484,-0.06111 z m -2.33647,-3.203235 0.2581,0.35525 -0.1786,0.401155 -0.43671,0.0459 -0.25811,-0.355255 0.17861,-0.40115 z m -2.90229,-1.644735 0.0687,0.43371 -0.34126,0.276345 -0.40995,-0.157365 -0.0687,-0.43371 0.34126,-0.27635 z m -4.14906,-0.425005 0.43105,-0.08378 0.28808,0.33141 -0.14296,0.41519 -0.43105,0.08379 -0.28809,-0.331405 z m -2.65364,1.538705 -0.3105,0.3105 -0.42415,-0.11365 -0.11366,-0.424155 0.31051,-0.310505 0.42415,0.113655 z m -3.08484,1.816415 0.39467,0.1925 0.0307,0.438045 -0.36404,0.24555 -0.39468,-0.192495 -0.0307,-0.43805 z m -1.615,3.283455 0.43885,0.0153 0.20616,0.387724 -0.2327,0.37239 -0.43885,-0.01532 -0.20615,-0.387722 z m 0.0705,3.509189 0.42952,0.0913 0.13569,0.417626 -0.29382,0.326325 -0.42952,-0.09129 -0.1357,-0.41763 z m 1.16253,3.800937 0.0762,-0.432445 0.41263,-0.150204 0.33638,0.282254 -0.0762,0.432449 -0.41263,0.150206 z m 2.64154,2.039331 0.35526,-0.258109 0.40115,0.17861 0.0459,0.43671 -0.35526,0.258105 -0.40115,-0.178605 z m 3.49069,1.613496 -0.15736,-0.40995 0.27635,-0.341255 0.43371,0.0687 0.15736,0.40995 -0.27634,0.34126 z m 3.39484,-0.532745 0.0459,-0.436715 0.40116,-0.178605 0.35525,0.258105 -0.0459,0.43671 -0.40115,0.178605 z m 3.04003,-1.841922 0.12104,-0.422107 0.42608,-0.106214 0.30503,0.315873 -0.12103,0.422107 -0.42608,0.106216 z m 2.37061,-2.5518 -0.29383,-0.326328 0.1357,-0.417622 0.42952,-0.09132 0.29382,0.326332 -0.13569,0.417627 z m 0.66536,-3.491667 -0.2327,-0.372393 0.20616,-0.387715 0.43885,-0.01533 0.23269,0.372393 -0.20615,0.38772 z"
       inkscape:connector-curvature="0" />
    <g
       id="g5180">
      <path
         inkscape:connector-curvature="0"
         id="path5117"
         d="m -254.33948,27.824807 7.50494,12.999465"
         style="fill:none;fill-rule:evenodd;stroke:#ff0000;stroke-width:0.26458332px;stroke-linecap:butt;stroke-linejoin:miter;stroke-opacity:1" />
      <path
         inkscape:connector-curvature="0"
         id="path5121"
         d="m -249.6429,26.005796 6.72905,11.655102"
         style="fill:none;fill-rule:evenodd;stroke:#ff0000;stroke-width:0.26458332px;stroke-linecap:butt;stroke-linejoin:miter;stroke-opacity:1" />
      <path
         inkscape:connector-curvature="0"
         id="path5127"
         d="m -252.78586,40.470546 -4.22374,-7.315833"
         style="fill:none;fill-rule:evenodd;stroke:#ff0000;stroke-width:0.26458332px;stroke-linecap:butt;stroke-linejoin:miter;stroke-opacity:1" />
      <path
         inkscape:connector-curvature="0"
         id="path5129"
         d="m -254.01599,27.561255 h 9.23687"
         style="fill:none;fill-rule:evenodd;stroke:#ff0000;stroke-width:0.26458332px;stroke-linecap:butt;stroke-linejoin:miter;stroke-opacity:1" />
      <path
         inkscape:connector-curvature="0"
         id="path5133"
         d="m -256.94475,32.538213 h 15.10188"
         style="fill:none;fill-rule:evenodd;stroke:#ff0000;stroke-width:0.26458332px;stroke-linecap:butt;stroke-linejoin:miter;stroke-opacity:1" />
      <path
         inkscape:connector-curvature="0"
         id="path5137"
         d="m -255.92856,37.51543 c 5e-5,0 13.10409,0 13.10409,0"
         style="fill:none;fill-rule:evenodd;stroke:#ff0000;stroke-width:0.26458332px;stroke-linecap:butt;stroke-linejoin:miter;stroke-opacity:1" />
      <path
         inkscape:connector-curvature="0"
         id="path5143"
         d="m -249.44987,41.271537 6.62309,-11.518167"
         style="fill:none;fill-rule:evenodd;stroke:#ff0000;stroke-width:0.26458332px;stroke-linecap:butt;stroke-linejoin:miter;stroke-opacity:1" />
      <path
         inkscape:connector-curvature="0"
         id="path5147"
         d="m -254.22711,39.545539 7.53209,-13.045975"
         style="fill:none;fill-rule:evenodd;stroke:#ff0000;stroke-width:0.26458332px;stroke-linecap:butt;stroke-linejoin:miter;stroke-opacity:1" />
      <path
         inkscape:connector-curvature="0"
         id="path5151"
         d="m -256.9902,34.376861 4.43769,-7.686352"
         style="fill:none;fill-rule:evenodd;stroke:#ff0000;stroke-width:0.26458332px;stroke-linecap:butt;stroke-linejoin:miter;stroke-opacity:1" />
      <path
         id="path5113"
         d="m -241.76299,33.642023 a 7.638734,7.638734 0 0 1 -7.63873,7.638733 7.638734,7.638734 0 0 1 -7.63873,-7.638736 7.638734,7.638734 0 0 1 7.63873,-7.638733 7.638734,7.638734 0 0 1 7.63873,7.638736 z"
         style="opacity:1;fill:none;fill-opacity:1;fill-rule:nonzero;stroke:#ff0000;stroke-width:0.26458332;stroke-linejoin:round;stroke-miterlimit:7.8342247;stroke-dasharray:none;stroke-opacity:1" />
      <path
         id="path5073"
         d="m -249.44987,41.271538 -0.0134,-0.02326 -0.0127,0.02196"
         style="opacity:1;fill:none;fill-opacity:1;fill-rule:nonzero;stroke:#ff0000;stroke-width:0.26458332;stroke-linejoin:round;stroke-miterlimit:7.8342247;stroke-dasharray:none;stroke-opacity:1" />
      <path
         id="path4991"
         d="m -239.97112,33.642023 a 9.4305355,9.4305355 0 0 1 -9.43053,9.430535 9.4305355,9.4305355 0 0 1 -9.43054,-9.430538 9.4305355,9.4305355 0 0 1 9.43054,-9.430535 9.4305355,9.4305355 0 0 1 9.43053,9.430538 z"
         style="opacity:1;fill:none;fill-opacity:1;fill-rule:nonzero;stroke:#ff0000;stroke-width:0.26458332;stroke-linejoin:round;stroke-miterlimit:7.8342247;stroke-dasharray:none;stroke-opacity:1" />
      <path
         id="path4989"
         d="m -241.19151,30.119345 -0.1645,0.40714 -0.43484,0.06112 -0.27035,-0.34603 0.1645,-0.407145 0.43484,-0.06111 z"
         style="opacity:1;fill:none;fill-opacity:1;fill-rule:nonzero;stroke:#ff0000;stroke-width:0.26458332;stroke-linejoin:round;stroke-miterlimit:7.8342247;stroke-dasharray:none;stroke-opacity:1" />
      <path
         id="path4987"
         d="m -243.52798,26.91611 0.2581,0.35525 -0.1786,0.401155 -0.43671,0.0459 -0.25811,-0.355255 0.17861,-0.40115 z"
         style="opacity:1;fill:none;fill-opacity:1;fill-rule:nonzero;stroke:#ff0000;stroke-width:0.26458332;stroke-linejoin:round;stroke-miterlimit:7.8342247;stroke-dasharray:none;stroke-opacity:1" />
      <path
         id="path4985"
         d="m -246.43027,25.271375 0.0687,0.43371 -0.34126,0.276345 -0.40995,-0.157365 -0.0687,-0.43371 0.34126,-0.27635 z"
         style="opacity:1;fill:none;fill-opacity:1;fill-rule:nonzero;stroke:#ff0000;stroke-width:0.26458332;stroke-linejoin:round;stroke-miterlimit:7.8342247;stroke-dasharray:none;stroke-opacity:1" />
      <path
         id="path4983"
         d="m -250.57933,24.84637 0.43105,-0.08378 0.28808,0.33141 -0.14296,0.41519 -0.43105,0.08379 -0.28809,-0.331405 z"
         style="opacity:1;fill:none;fill-opacity:1;fill-rule:nonzero;stroke:#ff0000;stroke-width:0.26458332;stroke-linejoin:round;stroke-miterlimit:7.8342247;stroke-dasharray:none;stroke-opacity:1" />
      <path
         id="path4981"
         d="m -253.23297,26.385075 -0.3105,0.3105 -0.42415,-0.11365 -0.11366,-0.424155 0.31051,-0.310505 0.42415,0.113655 z"
         style="opacity:1;fill:none;fill-opacity:1;fill-rule:nonzero;stroke:#ff0000;stroke-width:0.26458332;stroke-linejoin:round;stroke-miterlimit:7.8342247;stroke-dasharray:none;stroke-opacity:1" />
      <path
         id="path4979"
         d="m -256.31781,28.20149 0.39467,0.1925 0.0307,0.438045 -0.36404,0.24555 -0.39468,-0.192495 -0.0307,-0.43805 z"
         style="opacity:1;fill:none;fill-opacity:1;fill-rule:nonzero;stroke:#ff0000;stroke-width:0.26458332;stroke-linejoin:round;stroke-miterlimit:7.8342247;stroke-dasharray:none;stroke-opacity:1" />
      <path
         id="path4977"
         d="m -257.93281,31.484945 0.43885,0.0153 0.20616,0.387724 -0.2327,0.37239 -0.43885,-0.01532 -0.20615,-0.387722 z"
         style="opacity:1;fill:none;fill-opacity:1;fill-rule:nonzero;stroke:#ff0000;stroke-width:0.26458332;stroke-linejoin:round;stroke-miterlimit:7.8342247;stroke-dasharray:none;stroke-opacity:1" />
      <path
         id="path4975"
         d="m -257.86231,34.994134 0.42952,0.0913 0.13569,0.417626 -0.29382,0.326325 -0.42952,-0.09129 -0.1357,-0.41763 z"
         style="opacity:1;fill:none;fill-opacity:1;fill-rule:nonzero;stroke:#ff0000;stroke-width:0.26458332;stroke-linejoin:round;stroke-miterlimit:7.8342247;stroke-dasharray:none;stroke-opacity:1" />
      <path
         id="path4973"
         d="m -256.69978,38.795071 0.0762,-0.432445 0.41263,-0.150204 0.33638,0.282254 -0.0762,0.432449 -0.41263,0.150206 z"
         style="opacity:1;fill:none;fill-opacity:1;fill-rule:nonzero;stroke:#ff0000;stroke-width:0.26458332;stroke-linejoin:round;stroke-miterlimit:7.8342247;stroke-dasharray:none;stroke-opacity:1" />
      <path
         id="path4971"
         d="m -254.05824,40.834402 0.35526,-0.258109 0.40115,0.17861 0.0459,0.43671 -0.35526,0.258105 -0.40115,-0.178605 z"
         style="opacity:1;fill:none;fill-opacity:1;fill-rule:nonzero;stroke:#ff0000;stroke-width:0.26458332;stroke-linejoin:round;stroke-miterlimit:7.8342247;stroke-dasharray:none;stroke-opacity:1" />
      <path
         id="path4969"
         d="m -250.56755,42.447898 -0.15736,-0.40995 0.27635,-0.341255 0.43371,0.0687 0.15736,0.40995 -0.27634,0.34126 z"
         style="opacity:1;fill:none;fill-opacity:1;fill-rule:nonzero;stroke:#ff0000;stroke-width:0.26458332;stroke-linejoin:round;stroke-miterlimit:7.8342247;stroke-dasharray:none;stroke-opacity:1" />
      <path
         id="path4967"
         d="m -247.17271,41.915153 0.0459,-0.436715 0.40116,-0.178605 0.35525,0.258105 -0.0459,0.43671 -0.40115,0.178605 z"
         style="opacity:1;fill:none;fill-opacity:1;fill-rule:nonzero;stroke:#ff0000;stroke-width:0.26458332;stroke-linejoin:round;stroke-miterlimit:7.8342247;stroke-dasharray:none;stroke-opacity:1" />
      <path
         id="path4965"
         d="m -244.13268,40.073231 0.12104,-0.422107 0.42608,-0.106214 0.30503,0.315873 -0.12103,0.422107 -0.42608,0.106216 z"
         style="opacity:1;fill:none;fill-opacity:1;fill-rule:nonzero;stroke:#ff0000;stroke-width:0.26458332;stroke-linejoin:round;stroke-miterlimit:7.8342247;stroke-dasharray:none;stroke-opacity:1" />
      <path
         id="path4963"
         d="m -241.76207,37.521431 -0.29383,-0.326328 0.1357,-0.417622 0.42952,-0.09132 0.29382,0.326332 -0.13569,0.417627 z"
         style="opacity:1;fill:none;fill-opacity:1;fill-rule:nonzero;stroke:#ff0000;stroke-width:0.26458332;stroke-linejoin:round;stroke-miterlimit:7.8342247;stroke-dasharray:none;stroke-opacity:1" />
      <path
         id="path4959"
         d="m -241.09671,34.029764 -0.2327,-0.372393 0.20616,-0.387715 0.43885,-0.01533 0.23269,0.372393 -0.20615,0.38772 z"
         style="opacity:1;fill:none;fill-opacity:1;fill-rule:nonzero;stroke:#ff0000;stroke-width:0.26458332;stroke-linejoin:round;stroke-miterlimit:7.8342247;stroke-dasharray:none;stroke-opacity:1" />
    </g>
  </g>
</svg>
