<?xml version="1.0" encoding="UTF-8" standalone="no"?>
<!-- Created with Inkscape (http://www.inkscape.org/) -->

<svg
   xmlns:dc="http://purl.org/dc/elements/1.1/"
   xmlns:cc="http://creativecommons.org/ns#"
   xmlns:rdf="http://www.w3.org/1999/02/22-rdf-syntax-ns#"
   xmlns:svg="http://www.w3.org/2000/svg"
   xmlns="http://www.w3.org/2000/svg"
   xmlns:sodipodi="http://sodipodi.sourceforge.net/DTD/sodipodi-0.dtd"
   xmlns:inkscape="http://www.inkscape.org/namespaces/inkscape"
   width="210mm"
   height="297mm"
   viewBox="0 0 210 297"
   version="1.1"
   id="svg8"
   inkscape:version="0.92.4 (5da689c313, 2019-01-14)"
   sodipodi:docname="windows.svg">
  <defs
     id="defs2" />
  <sodipodi:namedview
     id="base"
     pagecolor="#ffffff"
     bordercolor="#666666"
     borderopacity="1.0"
     inkscape:pageopacity="0.0"
     inkscape:pageshadow="2"
     inkscape:zoom="1.0600994"
     inkscape:cx="212.89827"
     inkscape:cy="655.25898"
     inkscape:document-units="mm"
     inkscape:current-layer="layer1"
     showgrid="false"
     inkscape:window-width="1920"
     inkscape:window-height="1016"
     inkscape:window-x="0"
     inkscape:window-y="584"
     inkscape:window-maximized="1"
     showguides="false" />
  <metadata
     id="metadata5">
    <rdf:RDF>
      <cc:Work
         rdf:about="">
        <dc:format>image/svg+xml</dc:format>
        <dc:type
           rdf:resource="http://purl.org/dc/dcmitype/StillImage" />
        <dc:title></dc:title>
      </cc:Work>
    </rdf:RDF>
  </metadata>
  <g
     inkscape:groupmode="layer"
     id="layer2"
     inkscape:label="Layer 2" />
  <g
     inkscape:label="Layer 1"
     inkscape:groupmode="layer"
     id="layer1">
    <g
       id="g1117"
       transform="matrix(0.5,0,0,0.5,-28.744648,-154.29748)"
       style="stroke-width:0.52916667;stroke-miterlimit:4;stroke-dasharray:none">
      <path
         sodipodi:nodetypes="cccccccccccccccccccccccccccccccc"
         inkscape:connector-curvature="0"
         d="m 237.86304,477.81091 c -0.14431,-0.16612 -0.35736,-0.26789 -0.577,-0.27717 -0.0738,-0.0128 -0.14855,0.007 -0.22212,0.0165 -0.34518,0.0643 -0.62362,0.37606 -0.65202,0.7257 -0.0219,0.17917 0.024,0.36579 0.1165,0.51991 -0.11394,0.0701 -0.21812,0.15504 -0.30969,0.25268 -0.21025,-0.24768 -0.57237,-0.34962 -0.88077,-0.24605 -0.32743,0.0995 -0.57026,0.41904 -0.57789,0.76135 -0.0189,0.34946 0.21102,0.6922 0.54016,0.80956 0.17181,0.0645 0.36489,0.0697 0.53986,0.0142 0.023,0.11219 0.0588,0.22139 0.10656,0.32547 -0.24873,0.1175 -0.42329,0.35035 -0.46633,0.62204 -0.0719,0.45381 0.2377,0.87999 0.69152,0.95185 0.45381,0.0719 0.87999,-0.23769 0.95186,-0.69151 0.001,-0.008 0.003,-0.0152 0.004,-0.0228 v -2e-5 c 0.0739,0.009 0.1483,0.0131 0.22272,0.0114 v 0 c 9.7e-4,0.004 0.002,0.008 0.003,0.0113 0.0719,0.45382 0.49805,0.76343 0.95186,0.69151 0.45383,-0.0719 0.76345,-0.49804 0.69153,-0.95186 -0.0359,-0.22545 -0.16292,-0.42624 -0.35124,-0.5553 v 0 c 0.0598,-0.11398 0.10477,-0.23517 0.13374,-0.36059 0.30172,0.0389 0.60061,-0.09 0.7794,-0.33614 0.27005,-0.37168 0.18767,-0.89191 -0.18401,-1.16197 -0.13565,-0.0985 -0.29791,-0.15375 -0.4655,-0.15845 v 0 c -0.0196,-6.9e-4 -0.0391,-6.9e-4 -0.0587,0 -0.19188,0.008 -0.37498,0.0827 -0.51823,0.21064 -0.10372,-0.0968 -0.22187,-0.1777 -0.34905,-0.24056 0.15121,-0.29415 0.10213,-0.67637 -0.12016,-0.9217 z"
         style="opacity:0.95999995;fill:none;fill-opacity:1;fill-rule:evenodd;stroke:#000000;stroke-width:0.52916667;stroke-linejoin:round;stroke-miterlimit:4;stroke-dasharray:none;stroke-opacity:1"
         id="path1095" />
      <path
         id="path1097"
         style="opacity:0.95999995;fill:none;fill-opacity:1;fill-rule:evenodd;stroke:#000000;stroke-width:0.52916667;stroke-linejoin:round;stroke-miterlimit:4;stroke-dasharray:none;stroke-opacity:1"
         d="m 226.22137,477.81091 c -0.14431,-0.16612 -0.35736,-0.26789 -0.577,-0.27717 -0.0738,-0.0128 -0.14855,0.007 -0.22212,0.0165 -0.34518,0.0643 -0.62362,0.37606 -0.65202,0.7257 -0.0219,0.17917 0.024,0.36579 0.1165,0.51991 -0.11394,0.0701 -0.21812,0.15504 -0.30969,0.25268 -0.21025,-0.24768 -0.57237,-0.34962 -0.88077,-0.24605 -0.32743,0.0995 -0.57026,0.41904 -0.57789,0.76135 -0.0189,0.34946 0.21102,0.6922 0.54016,0.80956 0.17181,0.0645 0.36489,0.0697 0.53986,0.0142 0.023,0.11219 0.0588,0.22139 0.10656,0.32547 -0.24873,0.1175 -0.42329,0.35035 -0.46633,0.62204 -0.0719,0.45381 0.2377,0.87999 0.69152,0.95185 0.45381,0.0719 0.87999,-0.23769 0.95186,-0.69151 0.001,-0.008 0.003,-0.0152 0.004,-0.0228 v -2e-5 c 0.0739,0.009 0.1483,0.0131 0.22272,0.0114 v 0 c 9.7e-4,0.004 0.002,0.008 0.003,0.0113 0.0719,0.45382 0.49805,0.76343 0.95186,0.69151 0.45383,-0.0719 0.76345,-0.49804 0.69153,-0.95186 -0.0359,-0.22545 -0.16292,-0.42624 -0.35124,-0.5553 v 0 c 0.0598,-0.11398 0.10477,-0.23517 0.13374,-0.36059 0.30172,0.0389 0.60061,-0.09 0.7794,-0.33614 0.27005,-0.37168 0.18767,-0.89191 -0.18401,-1.16197 -0.13565,-0.0985 -0.29791,-0.15375 -0.4655,-0.15845 v 0 c -0.0196,-6.9e-4 -0.0391,-6.9e-4 -0.0587,0 -0.19188,0.008 -0.37498,0.0827 -0.51823,0.21064 -0.10372,-0.0968 -0.22187,-0.1777 -0.34905,-0.24056 0.15121,-0.29415 0.10213,-0.67637 -0.12016,-0.9217 z"
         inkscape:connector-curvature="0"
         sodipodi:nodetypes="cccccccccccccccccccccccccccccccc" />
      <path
         sodipodi:nodetypes="cccccccccccccccccccccccccccccc"
         inkscape:connector-curvature="0"
         d="m 229.29677,474.44939 c -0.46802,0.22108 -0.79649,0.65923 -0.87747,1.17046 -0.13534,0.85393 0.44726,1.65587 1.30121,1.7911 0.85393,0.13534 1.65588,-0.44725 1.79111,-1.3012 0.002,-0.0143 0.004,-0.0286 0.005,-0.0429 0.13897,0.0176 0.27906,0.0248 0.4191,0.0217 9.5e-4,0.007 0.002,0.0141 0.003,0.0212 0.13523,0.85395 0.93717,1.43654 1.7911,1.3012 0.85395,-0.13523 1.43655,-0.93717 1.30121,-1.7911 -0.0676,-0.42423 -0.30658,-0.80204 -0.66094,-1.04489 0.11257,-0.21448 0.19714,-0.44252 0.25166,-0.67853 0.56774,0.0732 1.13015,-0.16937 1.46658,-0.63251 0.50815,-0.69938 0.35313,-1.67827 -0.34623,-2.18644 -0.25526,-0.18538 -0.56057,-0.28931 -0.87592,-0.29816 v 0 c -0.0368,-10e-4 -0.0737,-10e-4 -0.11058,0 -0.36105,0.0156 -0.70559,0.15563 -0.97514,0.39635 -0.19523,-0.18218 -0.41747,-0.33438 -0.65681,-0.45268 0.2854,-0.55322 0.19166,-1.27259 -0.22654,-1.73405 -0.38836,-0.44806 -1.04359,-0.64088 -1.61116,-0.46627 -0.59802,0.16665 -1.06304,0.72203 -1.1163,1.3414 -0.0372,0.33771 0.042,0.68935 0.22202,0.97778 -0.21446,0.13185 -0.4105,0.29173 -0.58279,0.47543 -0.28194,-0.32432 -0.6848,-0.51847 -1.11414,-0.53692 -0.0369,-10e-4 -0.0737,-10e-4 -0.11059,0 v 0 c -0.31535,0.009 -0.62066,0.11278 -0.87592,0.29816 -0.69936,0.50817 -0.85437,1.48705 -0.34623,2.18643 0.39544,0.54307 1.09331,0.77327 1.73426,0.57206 0.0433,0.21109 0.11059,0.41655 0.20051,0.61238 z"
         style="opacity:1;fill:none;fill-opacity:1;fill-rule:evenodd;stroke:#000000;stroke-width:0.52916667;stroke-linejoin:round;stroke-miterlimit:4;stroke-dasharray:none;stroke-opacity:1"
         id="path1099" />
      <path
         inkscape:connector-curvature="0"
         id="path1101"
         d="m 231.79257,462.11079 c -2.79371,0.95785 -5.03469,2.61806 -6.90759,4.87413 -3.16757,3.4667 -5.07287,7.77859 -5.67304,11.10784 v 46.75841 h 25.16074 v -46.75841 c -0.60039,-3.33047 -2.50651,-7.6441 -5.67614,-11.11144 -1.87228,-2.25419 -4.11179,-3.91321 -6.90397,-4.87053 z"
         style="opacity:1;fill:none;fill-opacity:1;fill-rule:evenodd;stroke:#fc0000;stroke-width:0.52916667;stroke-linejoin:round;stroke-miterlimit:4;stroke-dasharray:none;stroke-opacity:1" />
      <path
         inkscape:connector-curvature="0"
         id="path1103"
         d="m 228.44497,482.76329 c -0.22339,0.0833 -0.43402,0.19699 -0.63201,0.33539 -0.8312,0.50541 -1.33376,1.18174 -1.58181,2.55334 v 37.25507 h 4.42764 v -37.25507 c -0.24806,-1.3716 -0.75061,-2.04793 -1.58182,-2.55334 -0.19798,-0.1384 -0.40862,-0.25209 -0.632,-0.33539 z"
         style="opacity:0.95999995;fill:none;fill-opacity:1;fill-rule:evenodd;stroke:#000000;stroke-width:0.52916667;stroke-linejoin:round;stroke-miterlimit:4;stroke-dasharray:none;stroke-opacity:1" />
      <path
         style="opacity:0.95999995;fill:none;fill-opacity:1;fill-rule:evenodd;stroke:#000000;stroke-width:0.52916667;stroke-linejoin:round;stroke-miterlimit:4;stroke-dasharray:none;stroke-opacity:1"
         d="m 223.15327,482.76329 c -0.22339,0.0833 -0.43402,0.19699 -0.632,0.33539 -0.83121,0.50541 -1.33377,1.18174 -1.58182,2.55334 v 37.25507 h 4.42764 v -37.25507 c -0.24805,-1.3716 -0.75061,-2.04793 -1.58182,-2.55334 -0.19798,-0.1384 -0.40861,-0.25209 -0.632,-0.33539 z"
         id="path1105"
         inkscape:connector-curvature="0" />
      <path
         style="opacity:0.95999995;fill:none;fill-opacity:1;fill-rule:evenodd;stroke:#000000;stroke-width:0.52916667;stroke-linejoin:round;stroke-miterlimit:4;stroke-dasharray:none;stroke-opacity:1"
         d="m 240.08664,482.76329 c -0.22339,0.0833 -0.43402,0.19699 -0.63201,0.33539 -0.83121,0.50541 -1.33376,1.18174 -1.58181,2.55334 v 37.25507 h 4.42763 v -37.25507 c -0.24805,-1.3716 -0.7506,-2.04793 -1.58181,-2.55334 -0.19798,-0.1384 -0.40862,-0.25209 -0.632,-0.33539 z"
         id="path1107"
         inkscape:connector-curvature="0" />
      <path
         inkscape:connector-curvature="0"
         id="path1109"
         d="m 234.79494,482.76329 c -0.22339,0.0833 -0.43402,0.19699 -0.632,0.33539 -0.83121,0.50541 -1.33377,1.18174 -1.58182,2.55334 v 37.25507 h 4.42764 v -37.25507 c -0.24805,-1.3716 -0.75061,-2.04793 -1.58182,-2.55334 -0.19798,-0.1384 -0.40861,-0.25209 -0.632,-0.33539 z"
         style="opacity:0.95999995;fill:none;fill-opacity:1;fill-rule:evenodd;stroke:#000000;stroke-width:0.52916667;stroke-linejoin:round;stroke-miterlimit:4;stroke-dasharray:none;stroke-opacity:1" />
      <circle
         r="5.2979999"
         cy="473.26331"
         cx="231.72517"
         id="circle1111"
         style="opacity:0.95999995;fill:none;fill-opacity:1;fill-rule:evenodd;stroke:#fc0000;stroke-width:0.52916667;stroke-linejoin:round;stroke-miterlimit:4;stroke-dasharray:none;stroke-opacity:1" />
      <circle
         r="2.8340001"
         cy="480.01813"
         cx="225.59624"
         id="circle1113"
         style="opacity:0.95999995;fill:none;fill-opacity:1;fill-rule:evenodd;stroke:#fc0000;stroke-width:0.52916667;stroke-linejoin:round;stroke-miterlimit:4;stroke-dasharray:none;stroke-opacity:1" />
      <circle
         style="opacity:0.95999995;fill:none;fill-opacity:1;fill-rule:evenodd;stroke:#fc0000;stroke-width:0.52916667;stroke-linejoin:round;stroke-miterlimit:4;stroke-dasharray:none;stroke-opacity:1"
         id="circle1115"
         cx="237.23775"
         cy="480.01813"
         r="2.8340001" />
    </g>
    <g
       transform="matrix(0.5,0,0,0.5,-52.264887,-155.33682)"
       id="g1305"
       style="stroke-width:0.52916667;stroke-miterlimit:4;stroke-dasharray:none">
      <path
         id="path1289"
         style="opacity:0.95999995;fill:none;fill-opacity:1;fill-rule:evenodd;stroke:#000000;stroke-width:0.52916667;stroke-linejoin:round;stroke-miterlimit:4;stroke-dasharray:none;stroke-opacity:1"
         d="m 235.82973,479.33301 c -0.10056,-0.11848 -0.27377,-0.16724 -0.42128,-0.11769 -0.15661,0.0475 -0.27275,0.20042 -0.2764,0.36414 -0.009,0.16715 0.10093,0.33108 0.25835,0.38721 0.0822,0.0309 0.17453,0.0333 0.25822,0.006 l 0.6967,0.33806 c 0.015,0.0736 0.0385,0.14526 0.0699,0.21353 l -0.28502,0.60541 c -0.11897,0.0562 -0.20246,0.16757 -0.22304,0.29752 -0.0345,0.21706 0.11369,0.4209 0.33076,0.45526 0.21704,0.0345 0.42089,-0.11368 0.45526,-0.33075 4.8e-4,-0.005 0.003,-0.007 0.004,-0.011 l 0.49294,-0.45199 c 0.0485,0.005 0.0973,0.009 0.14612,0.007 l 0.44719,0.47037 c 4.7e-4,0.004 0.002,0.004 0.003,0.005 0.0345,0.21706 0.23822,0.36514 0.45527,0.33075 0.21708,-0.0345 0.36516,-0.23821 0.33076,-0.45527 -0.0172,-0.10783 -0.0779,-0.20387 -0.16799,-0.26559 l -0.21844,-0.61252 c 0.0392,-0.0748 0.0688,-0.15429 0.0877,-0.23658 l 0.64505,-0.34321 c 0.14432,0.0185 0.28728,-0.043 0.3728,-0.16078 0.12915,-0.17776 0.0897,-0.42659 -0.088,-0.55576 -0.0649,-0.047 -0.14249,-0.0735 -0.22265,-0.0758 v 0 c -0.009,-3.3e-4 -0.0187,-3.3e-4 -0.028,0 -0.0918,0.005 -0.17936,0.0396 -0.24788,0.10075 l -0.72458,0.0861 c -0.068,-0.0635 -0.14557,-0.1166 -0.22901,-0.15785 l -0.15649,-0.80695 c 0.0724,-0.14068 0.0489,-0.32349 -0.0574,-0.44084 -0.069,-0.0795 -0.17094,-0.12813 -0.27599,-0.13257 -0.0353,-0.005 -0.071,0.004 -0.10623,0.008 -0.1651,0.0308 -0.29828,0.17987 -0.31185,0.34711 -0.0104,0.0857 0.0114,0.17495 0.0557,0.24866 l -0.10221,0.81756 c -0.0749,0.046 -0.14318,0.10173 -0.20326,0.16578 z"
         inkscape:connector-curvature="0"
         sodipodi:nodetypes="ccccccccccccccccccccccccccccccccccccccc" />
      <path
         sodipodi:nodetypes="ccccccccccccccccccccccccccccccccccccccc"
         inkscape:connector-curvature="0"
         d="m 224.18806,479.33301 c -0.10056,-0.11848 -0.27377,-0.16724 -0.42128,-0.11769 -0.15661,0.0475 -0.27275,0.20042 -0.2764,0.36414 -0.009,0.16715 0.10093,0.33108 0.25835,0.38721 0.0822,0.0309 0.17453,0.0333 0.25822,0.006 l 0.6967,0.33806 c 0.015,0.0736 0.0385,0.14526 0.0699,0.21353 l -0.28502,0.60541 c -0.11897,0.0562 -0.20246,0.16757 -0.22304,0.29752 -0.0345,0.21706 0.11369,0.4209 0.33076,0.45526 0.21704,0.0345 0.42089,-0.11368 0.45526,-0.33075 4.8e-4,-0.005 0.003,-0.007 0.004,-0.011 l 0.49294,-0.45199 c 0.0485,0.005 0.0973,0.009 0.14612,0.007 l 0.44719,0.47037 c 4.7e-4,0.004 0.002,0.004 0.003,0.005 0.0345,0.21706 0.23822,0.36514 0.45527,0.33075 0.21708,-0.0345 0.36516,-0.23821 0.33076,-0.45527 -0.0172,-0.10783 -0.0779,-0.20387 -0.16799,-0.26559 l -0.21844,-0.61252 c 0.0392,-0.0748 0.0688,-0.15429 0.0877,-0.23658 l 0.64505,-0.34321 c 0.14432,0.0185 0.28728,-0.043 0.3728,-0.16078 0.12915,-0.17776 0.0897,-0.42659 -0.088,-0.55576 -0.0649,-0.047 -0.14249,-0.0735 -0.22265,-0.0758 v 0 c -0.009,-3.3e-4 -0.0187,-3.3e-4 -0.028,0 -0.0918,0.005 -0.17936,0.0396 -0.24788,0.10075 l -0.72458,0.0861 c -0.068,-0.0635 -0.14557,-0.1166 -0.22901,-0.15785 l -0.15649,-0.80695 c 0.0724,-0.14068 0.0489,-0.32349 -0.0574,-0.44084 -0.069,-0.0795 -0.17094,-0.12813 -0.27599,-0.13257 -0.0353,-0.005 -0.071,0.004 -0.10623,0.008 -0.1651,0.0308 -0.29828,0.17987 -0.31185,0.34711 -0.0104,0.0857 0.0114,0.17495 0.0557,0.24866 l -0.10221,0.81756 c -0.0749,0.046 -0.14318,0.10173 -0.20326,0.16578 z"
         style="opacity:0.95999995;fill:none;fill-opacity:1;fill-rule:evenodd;stroke:#000000;stroke-width:0.52916667;stroke-linejoin:round;stroke-miterlimit:4;stroke-dasharray:none;stroke-opacity:1"
         id="path1291" />
      <path
         id="path1293"
         style="opacity:1;fill:none;fill-opacity:1;fill-rule:evenodd;stroke:#000000;stroke-width:0.52916667;stroke-linejoin:round;stroke-miterlimit:4;stroke-dasharray:none;stroke-opacity:1"
         d="m 231.65668,474.98005 c 0.0821,0.0104 0.16479,0.0147 0.24747,0.0127 l 0.66977,1.0654 c 5.5e-4,0.004 0.002,0.008 0.003,0.0126 0.0798,0.50426 0.55338,0.84826 1.05763,0.76834 0.50424,-0.0798 0.84826,-0.55339 0.76834,-1.05762 -0.0399,-0.25051 -0.18104,-0.4736 -0.39027,-0.617 l -0.67099,-1.06536 c 0.0665,-0.12666 0.11641,-0.26131 0.1486,-0.40067 l 1.32968,-0.43777 c 0.33526,0.0433 0.66734,-0.10001 0.866,-0.3735 0.30007,-0.41296 0.20853,-0.99099 -0.20444,-1.29106 -0.15074,-0.10946 -0.33102,-0.17083 -0.51722,-0.17606 v 0 c -0.0217,-6e-4 -0.0435,-6e-4 -0.0652,0 -0.21319,0.009 -0.41664,0.0919 -0.57581,0.23404 l -1.32978,0.43777 c -0.11528,-0.10757 -0.24651,-0.19746 -0.38784,-0.2673 l -0.0548,-1.55372 c 0.16851,-0.32667 0.11317,-0.75146 -0.13377,-1.02395 -0.22933,-0.26456 -0.61624,-0.37843 -0.95138,-0.27532 -0.35314,0.0984 -0.62772,0.42636 -0.65916,0.79208 -0.022,0.19942 0.0248,0.40705 0.13103,0.57737 l 0.0549,1.5536 c -0.12671,0.0779 -0.24247,0.17228 -0.3442,0.28074 l -1.40814,-0.43753 c -0.16649,-0.19151 -0.40437,-0.30615 -0.65789,-0.31704 -0.0218,-6e-4 -0.0435,-6e-4 -0.0652,0 v 0 c -0.18621,0.005 -0.3665,0.0667 -0.51723,0.17604 -0.41296,0.30008 -0.50449,0.8781 -0.20444,1.29108 0.23349,0.32067 0.64559,0.45661 1.02406,0.3378 l 1.40804,0.43754 c 0.0256,0.12464 0.0652,0.24596 0.1184,0.36159 l -0.77811,1.03752 c -0.27637,0.13055 -0.47033,0.38927 -0.51815,0.69114 -0.0799,0.50425 0.26411,0.97778 0.76836,1.05763 0.50423,0.0799 0.97778,-0.2641 1.05762,-0.76835 0.002,-0.008 0.004,-0.0168 0.005,-0.0253 z"
         inkscape:connector-curvature="0"
         sodipodi:nodetypes="cccccccccccccccccccccccccccccccccccccccc" />
      <path
         style="opacity:0.95999995;fill:none;fill-opacity:1;fill-rule:evenodd;stroke:#000000;stroke-width:0.52916667;stroke-linejoin:round;stroke-miterlimit:4;stroke-dasharray:none;stroke-opacity:1"
         d="m 240.08664,486.3027 c -0.12642,0.073 -0.24562,0.17264 -0.35766,0.29393 -0.4704,0.44294 -0.7548,1.03566 -0.89518,2.23772 v 32.65001 h 2.50567 v -32.65001 c -0.14037,-1.20206 -0.42478,-1.79478 -0.89518,-2.23772 -0.11204,-0.12129 -0.23124,-0.22093 -0.35765,-0.29393 z"
         id="path1295"
         inkscape:connector-curvature="0" />
      <path
         inkscape:connector-curvature="0"
         id="path1297"
         d="m 234.79494,486.3027 c -0.12642,0.073 -0.24562,0.17264 -0.35766,0.29393 -0.47039,0.44294 -0.7548,1.03566 -0.89517,2.23772 v 32.65001 h 2.50566 v -32.65001 c -0.14037,-1.20206 -0.42478,-1.79478 -0.89517,-2.23772 -0.11204,-0.12129 -0.23124,-0.22093 -0.35766,-0.29393 z"
         style="opacity:0.95999995;fill:none;fill-opacity:1;fill-rule:evenodd;stroke:#000000;stroke-width:0.52916667;stroke-linejoin:round;stroke-miterlimit:4;stroke-dasharray:none;stroke-opacity:1" />
      <path
         style="opacity:0.95999995;fill:none;fill-opacity:1;fill-rule:evenodd;stroke:#000000;stroke-width:0.52916667;stroke-linejoin:round;stroke-miterlimit:4;stroke-dasharray:none;stroke-opacity:1"
         d="m 228.44497,486.3027 c -0.12642,0.073 -0.24562,0.17264 -0.35766,0.29393 -0.47039,0.44294 -0.7548,1.03566 -0.89517,2.23772 v 32.65001 h 2.50566 v -32.65001 c -0.14037,-1.20206 -0.42478,-1.79478 -0.89517,-2.23772 -0.11204,-0.12129 -0.23124,-0.22093 -0.35766,-0.29393 z"
         id="path1299"
         inkscape:connector-curvature="0" />
      <path
         inkscape:connector-curvature="0"
         id="path1301"
         d="m 223.15327,486.3027 c -0.12642,0.073 -0.24562,0.17264 -0.35766,0.29393 -0.47039,0.44294 -0.7548,1.03566 -0.89517,2.23772 v 32.65001 h 2.50566 v -32.65001 c -0.14037,-1.20206 -0.42478,-1.79478 -0.89517,-2.23772 -0.11204,-0.12129 -0.23124,-0.22093 -0.35766,-0.29393 z"
         style="opacity:0.95999995;fill:none;fill-opacity:1;fill-rule:evenodd;stroke:#000000;stroke-width:0.52916667;stroke-linejoin:round;stroke-miterlimit:4;stroke-dasharray:none;stroke-opacity:1" />
      <path
         inkscape:connector-curvature="0"
         id="path1303"
         d="m 231.79259,457.91543 c -3.07307,1.05363 -5.53815,2.87986 -7.59835,5.36154 -3.48432,3.81338 -5.58015,8.55645 -6.24034,12.21863 v 51.43425 h 27.67681 V 475.4956 c -0.66042,-3.66351 -2.75715,-8.40851 -6.24375,-12.22258 -2.05951,-2.47962 -4.52297,-4.30454 -7.59437,-5.35759 z"
         style="opacity:1;fill:none;fill-opacity:1;fill-rule:evenodd;stroke:#000000;stroke-width:0.52916667;stroke-linejoin:round;stroke-miterlimit:4;stroke-dasharray:none;stroke-opacity:1" />
    </g>
    <g
       id="g1189"
       style="stroke:#000000;stroke-opacity:1;stroke-width:0.26458333;stroke-miterlimit:4;stroke-dasharray:none"
       transform="translate(-290.68574,-77.478651)">
      <path
         inkscape:connector-curvature="0"
         id="path1098"
         d="m 325.34989,96.076306 c -5.99109,4.668364 -12.29764,15.011204 -12.92942,23.777874 v 65.68643 h 25.85837 v -65.68643 c -0.6318,-8.76667 -6.93783,-19.10951 -12.92895,-23.777874 z"
         style="fill:none;fill-rule:evenodd;stroke:#000000;stroke-width:0.26458333;stroke-linecap:butt;stroke-linejoin:miter;stroke-opacity:1;stroke-miterlimit:4;stroke-dasharray:none" />
      <path
         inkscape:connector-curvature="0"
         id="path1106"
         d="m 316.83028,114.0473 c -1.55003,1.44491 -2.07523,2.78473 -2.2066,5.98982 v 40.14225 h 4.51858 v -40.14225 c -0.13133,-3.20509 -0.65656,-4.54491 -2.20657,-5.98982 l -0.0527,0.14315 z"
         style="fill:none;fill-rule:evenodd;stroke:#000000;stroke-width:0.26458333;stroke-linecap:butt;stroke-linejoin:miter;stroke-opacity:1;stroke-miterlimit:4;stroke-dasharray:none" />
      <path
         inkscape:connector-curvature="0"
         style="fill:none;fill-rule:evenodd;stroke:#000000;stroke-width:0.26458333;stroke-linecap:butt;stroke-linejoin:miter;stroke-opacity:1;stroke-miterlimit:4;stroke-dasharray:none"
         d="m 322.12198,114.0473 c -1.55004,1.44491 -2.07523,2.78473 -2.2066,5.98982 v 40.14225 h 4.51858 v -40.14225 c -0.13134,-3.20509 -0.65656,-4.54491 -2.20657,-5.98982 l -0.0527,0.14315 z"
         id="path1116" />
      <path
         style="fill:none;fill-rule:evenodd;stroke:#000000;stroke-width:0.26458333;stroke-linecap:butt;stroke-linejoin:miter;stroke-opacity:1;stroke-miterlimit:4;stroke-dasharray:none"
         d="m 328.47195,114.0473 c -1.55003,1.44491 -2.07523,2.78473 -2.2066,5.98982 v 40.14225 h 4.51858 v -40.14225 c -0.13134,-3.20509 -0.65656,-4.54491 -2.20657,-5.98982 l -0.0527,0.14315 z"
         id="path1122"
         inkscape:connector-curvature="0" />
      <path
         id="path1124"
         d="m 333.76365,114.0473 c -1.55004,1.44491 -2.07523,2.78473 -2.2066,5.98982 v 40.14225 h 4.51858 v -40.14225 c -0.13134,-3.20509 -0.65656,-4.54491 -2.20657,-5.98982 l -0.0527,0.14315 z"
         style="fill:none;fill-rule:evenodd;stroke:#000000;stroke-width:0.26458333;stroke-linecap:butt;stroke-linejoin:miter;stroke-opacity:1;stroke-miterlimit:4;stroke-dasharray:none"
         inkscape:connector-curvature="0" />
      <g
         transform="translate(-0.42970802)"
         id="g1158"
         style="stroke:#000000;stroke-opacity:1;stroke-width:0.26458333;stroke-miterlimit:4;stroke-dasharray:none">
        <path
           style="fill:none;fill-rule:evenodd;stroke:#000000;stroke-width:1.00000001;stroke-linecap:butt;stroke-linejoin:miter;stroke-opacity:1;stroke-miterlimit:4;stroke-dasharray:none"
           d="m 1194.291,643.92969 c -1.4894,1.05913 -3.4748,2.71405 -3.5742,6.75195 v 38.93555 c 2.3835,0 4.7669,0 7.1504,0 v -38.93555 c -0.099,-4.0379 -2.0848,-5.69282 -3.5742,-6.75195 v 0.002 z"
           transform="scale(0.26458333)"
           id="path1108"
           inkscape:connector-curvature="0"
           sodipodi:nodetypes="cccccccc" />
        <path
           sodipodi:nodetypes="cccccccc"
           inkscape:connector-curvature="0"
           id="path1146"
           d="m 318.63534,170.37306 c -0.39407,0.28023 -0.91938,0.71809 -0.94568,1.78646 v 10.30169 c 0.63064,0 1.26124,0 1.89188,0 v -10.30169 c -0.0262,-1.06837 -0.5516,-1.50623 -0.94567,-1.78646 v 5.3e-4 z"
           style="fill:none;fill-rule:evenodd;stroke:#000000;stroke-width:0.26458333;stroke-linecap:butt;stroke-linejoin:miter;stroke-opacity:1;stroke-miterlimit:4;stroke-dasharray:none" />
      </g>
      <g
         transform="translate(4.861992)"
         id="g1154"
         style="stroke:#000000;stroke-opacity:1;stroke-width:0.26458333;stroke-miterlimit:4;stroke-dasharray:none">
        <path
           sodipodi:nodetypes="cccccccc"
           inkscape:connector-curvature="0"
           id="path1148"
           transform="scale(0.26458333)"
           d="m 1194.291,643.92969 c -1.4894,1.05913 -3.4748,2.71405 -3.5742,6.75195 v 38.93555 c 2.3835,0 4.7669,0 7.1504,0 v -38.93555 c -0.099,-4.0379 -2.0848,-5.69282 -3.5742,-6.75195 v 0.002 z"
           style="fill:none;fill-rule:evenodd;stroke:#000000;stroke-width:1.00000001;stroke-linecap:butt;stroke-linejoin:miter;stroke-opacity:1;stroke-miterlimit:4;stroke-dasharray:none" />
        <path
           style="fill:none;fill-rule:evenodd;stroke:#000000;stroke-width:0.26458333;stroke-linecap:butt;stroke-linejoin:miter;stroke-opacity:1;stroke-miterlimit:4;stroke-dasharray:none"
           d="m 318.63534,170.37306 c -0.39407,0.28023 -0.91938,0.71809 -0.94568,1.78646 v 10.30169 c 0.63064,0 1.26124,0 1.89188,0 v -10.30169 c -0.0262,-1.06837 -0.5516,-1.50623 -0.94567,-1.78646 v 5.3e-4 z"
           id="path1150"
           inkscape:connector-curvature="0"
           sodipodi:nodetypes="cccccccc" />
      </g>
      <g
         transform="translate(16.503662)"
         id="g1164"
         style="stroke:#000000;stroke-opacity:1;stroke-width:0.26458333;stroke-miterlimit:4;stroke-dasharray:none">
        <path
           sodipodi:nodetypes="cccccccc"
           inkscape:connector-curvature="0"
           id="path1160"
           transform="scale(0.26458333)"
           d="m 1194.291,643.92969 c -1.4894,1.05913 -3.4748,2.71405 -3.5742,6.75195 v 38.93555 c 2.3835,0 4.7669,0 7.1504,0 v -38.93555 c -0.099,-4.0379 -2.0848,-5.69282 -3.5742,-6.75195 v 0.002 z"
           style="fill:none;fill-rule:evenodd;stroke:#000000;stroke-width:1.00000001;stroke-linecap:butt;stroke-linejoin:miter;stroke-opacity:1;stroke-miterlimit:4;stroke-dasharray:none" />
        <path
           style="fill:none;fill-rule:evenodd;stroke:#000000;stroke-width:0.26458333;stroke-linecap:butt;stroke-linejoin:miter;stroke-opacity:1;stroke-miterlimit:4;stroke-dasharray:none"
           d="m 318.63534,170.37306 c -0.39407,0.28023 -0.91938,0.71809 -0.94568,1.78646 v 10.30169 c 0.63064,0 1.26124,0 1.89188,0 v -10.30169 c -0.0262,-1.06837 -0.5516,-1.50623 -0.94567,-1.78646 v 5.3e-4 z"
           id="path1162"
           inkscape:connector-curvature="0"
           sodipodi:nodetypes="cccccccc" />
      </g>
      <g
         transform="translate(11.211962)"
         id="g1170"
         style="stroke:#000000;stroke-opacity:1;stroke-width:0.26458333;stroke-miterlimit:4;stroke-dasharray:none">
        <path
           style="fill:none;fill-rule:evenodd;stroke:#000000;stroke-width:1.00000001;stroke-linecap:butt;stroke-linejoin:miter;stroke-opacity:1;stroke-miterlimit:4;stroke-dasharray:none"
           d="m 1194.291,643.92969 c -1.4894,1.05913 -3.4748,2.71405 -3.5742,6.75195 v 38.93555 c 2.3835,0 4.7669,0 7.1504,0 v -38.93555 c -0.099,-4.0379 -2.0848,-5.69282 -3.5742,-6.75195 v 0.002 z"
           transform="scale(0.26458333)"
           id="path1166"
           inkscape:connector-curvature="0"
           sodipodi:nodetypes="cccccccc" />
        <path
           sodipodi:nodetypes="cccccccc"
           inkscape:connector-curvature="0"
           id="path1168"
           d="m 318.63534,170.37306 c -0.39407,0.28023 -0.91938,0.71809 -0.94568,1.78646 v 10.30169 c 0.63064,0 1.26124,0 1.89188,0 v -10.30169 c -0.0262,-1.06837 -0.5516,-1.50623 -0.94567,-1.78646 v 5.3e-4 z"
           style="fill:none;fill-rule:evenodd;stroke:#000000;stroke-width:0.26458333;stroke-linecap:butt;stroke-linejoin:miter;stroke-opacity:1;stroke-miterlimit:4;stroke-dasharray:none" />
      </g>
    </g>
    <g
       id="g1479"
       transform="translate(-319.31066,6.2417184)"
       style="stroke-width:0.26458333;stroke-miterlimit:4;stroke-dasharray:none">
      <path
         sodipodi:nodetypes="ccccccccc"
         inkscape:connector-curvature="0"
         id="path1202"
         d="m 354.44994,127.29992 c -0.49343,0.37784 -0.53959,0.86208 0.07,1.58983 l 2.75077,2.70156 0.0479,-0.0276 0.66011,-0.38111 0.0479,-0.0276 -0.96423,-3.73303 c -0.32549,-0.89175 -0.76793,-1.09388 -1.34184,-0.8555 -0.9028,-0.89419 -1.64416,-0.38043 -1.27054,0.73354 z"
         style="fill:none;fill-rule:evenodd;stroke:#000000;stroke-width:0.26458333;stroke-linecap:butt;stroke-linejoin:miter;stroke-opacity:1;stroke-miterlimit:4;stroke-dasharray:none" />
      <path
         style="fill:none;fill-rule:evenodd;stroke:#000000;stroke-width:0.26458333;stroke-linecap:butt;stroke-linejoin:miter;stroke-opacity:1;stroke-miterlimit:4;stroke-dasharray:none"
         d="m 362.38837,141.04968 c -0.57393,0.2384 -1.01638,0.0363 -1.34184,-0.8555 l -0.96425,-3.73302 0.0479,-0.0276 0.66011,-0.38112 0.0479,-0.0276 2.75079,2.70157 c 0.60953,0.72775 0.56337,1.21199 0.07,1.58981 0.323,1.22895 -0.49261,1.61411 -1.27053,0.73355 z"
         id="path1207"
         inkscape:connector-curvature="0"
         sodipodi:nodetypes="ccccccccc" />
      <path
         style="fill:none;fill-rule:evenodd;stroke:#000000;stroke-width:0.26458333;stroke-linecap:butt;stroke-linejoin:miter;stroke-opacity:1;stroke-miterlimit:4;stroke-dasharray:none"
         d="m 351.81279,130.47409 c -0.23841,0.57393 -0.0363,1.01638 0.85553,1.34182 l 3.73302,0.96426 0.0277,-0.0479 0.38112,-0.66012 0.0277,-0.0479 -2.70156,-2.7508 c -0.72775,-0.60952 -1.21199,-0.56335 -1.58981,-0.07 -1.22896,-0.323 -1.61411,0.49261 -0.73355,1.27053 z"
         id="path1213"
         inkscape:connector-curvature="0"
         sodipodi:nodetypes="ccccccccc" />
      <path
         sodipodi:nodetypes="ccccccccc"
         inkscape:connector-curvature="0"
         id="path1215"
         d="m 365.56253,138.41251 c -0.37783,0.49343 -0.86206,0.53963 -1.58981,-0.07 l -2.70158,-2.75077 0.0276,-0.0479 0.38112,-0.66011 0.0277,-0.0479 3.73304,0.96423 c 0.89174,0.32548 1.09389,0.76793 0.85552,1.34182 0.89421,0.9028 0.38045,1.64416 -0.73354,1.27054 z"
         style="fill:none;fill-rule:evenodd;stroke:#000000;stroke-width:0.26458333;stroke-linecap:butt;stroke-linejoin:miter;stroke-opacity:1;stroke-miterlimit:4;stroke-dasharray:none" />
      <path
         sodipodi:nodetypes="ccccccccc"
         inkscape:connector-curvature="0"
         id="path1219"
         d="m 351.11184,134.54574 c 0.0805,0.61624 0.47675,0.89835 1.4118,0.73432 l 3.71502,-1.03145 -5e-5,-0.0553 -10e-6,-0.76224 -4e-5,-0.0553 -3.71502,-1.03147 c -0.93502,-0.16399 -1.3313,0.11811 -1.41182,0.73428 -1.2258,0.33476 -1.15155,1.23368 0,1.46709 z"
         style="fill:none;fill-rule:evenodd;stroke:#000000;stroke-width:0.26458333;stroke-linecap:butt;stroke-linejoin:miter;stroke-opacity:1;stroke-miterlimit:4;stroke-dasharray:none" />
      <path
         style="fill:none;fill-rule:evenodd;stroke:#000000;stroke-width:0.26458333;stroke-linecap:butt;stroke-linejoin:miter;stroke-opacity:1;stroke-miterlimit:4;stroke-dasharray:none"
         d="m 366.98868,134.54575 c -0.0805,0.61624 -0.47679,0.89834 -1.41182,0.73429 l -3.71502,-1.03145 4e-5,-0.0553 v -0.76222 l -5e-5,-0.0553 3.71502,-1.03147 c 0.93502,-0.16398 1.3313,0.11812 1.4118,0.73433 1.2258,0.33475 1.15155,1.23367 0,1.46708 z"
         id="path1221"
         inkscape:connector-curvature="0"
         sodipodi:nodetypes="ccccccccc" />
      <path
         style="fill:none;fill-rule:evenodd;stroke:#000000;stroke-width:0.26458333;stroke-linecap:butt;stroke-linejoin:miter;stroke-opacity:1;stroke-miterlimit:4;stroke-dasharray:none"
         d="m 352.53796,138.41252 c 0.37784,0.49343 0.86209,0.53959 1.58983,-0.07 l 2.70157,-2.75077 -0.0276,-0.0479 -0.38112,-0.66011 -0.0276,-0.0479 -3.73303,0.96423 c -0.89174,0.32549 -1.09388,0.76793 -0.8555,1.34184 -0.89419,0.9028 -0.38043,1.64416 0.73354,1.27054 z"
         id="path1225"
         inkscape:connector-curvature="0"
         sodipodi:nodetypes="ccccccccc" />
      <path
         sodipodi:nodetypes="ccccccccc"
         inkscape:connector-curvature="0"
         id="path1227"
         d="m 366.28772,130.47409 c 0.23841,0.57393 0.0363,1.01638 -0.85549,1.34184 l -3.73303,0.96425 -0.0276,-0.0479 -0.38112,-0.66011 -0.0276,-0.0479 2.70157,-2.75079 c 0.72776,-0.60953 1.212,-0.56337 1.58982,-0.07 1.22894,-0.323 1.6141,0.49261 0.73354,1.27053 z"
         style="fill:none;fill-rule:evenodd;stroke:#000000;stroke-width:0.26458333;stroke-linecap:butt;stroke-linejoin:miter;stroke-opacity:1;stroke-miterlimit:4;stroke-dasharray:none" />
      <path
         sodipodi:nodetypes="ccccccccc"
         inkscape:connector-curvature="0"
         id="path1231"
         d="m 355.71213,141.04967 c 0.57393,0.2384 1.01638,0.0363 1.34182,-0.85553 l 0.96425,-3.73304 -0.0478,-0.0277 -0.66012,-0.38111 -0.0478,-0.0277 -2.7508,2.70156 c -0.60952,0.72775 -0.56336,1.212 -0.07,1.58982 -0.323,1.22895 0.49261,1.61411 1.27053,0.73354 z"
         style="fill:none;fill-rule:evenodd;stroke:#000000;stroke-width:0.26458333;stroke-linecap:butt;stroke-linejoin:miter;stroke-opacity:1;stroke-miterlimit:4;stroke-dasharray:none" />
      <path
         style="fill:none;fill-rule:evenodd;stroke:#000000;stroke-width:0.26458333;stroke-linecap:butt;stroke-linejoin:miter;stroke-opacity:1;stroke-miterlimit:4;stroke-dasharray:none"
         d="m 363.65055,127.29993 c 0.49343,0.37784 0.53962,0.86206 -0.07,1.58981 l -2.75077,2.70158 -0.0479,-0.0277 -0.6601,-0.38111 -0.0479,-0.0277 0.96423,-3.73302 c 0.32549,-0.89175 0.76793,-1.0939 1.34182,-0.85553 0.9028,-0.89421 1.64416,-0.38044 1.27053,0.73354 z"
         id="path1233"
         inkscape:connector-curvature="0"
         sodipodi:nodetypes="ccccccccc" />
      <path
         style="fill:none;fill-rule:evenodd;stroke:#000000;stroke-width:0.26458333;stroke-linecap:butt;stroke-linejoin:miter;stroke-opacity:1;stroke-miterlimit:4;stroke-dasharray:none"
         d="m 359.78377,141.75065 c 0.61624,-0.0805 0.89837,-0.47676 0.73434,-1.4118 l -1.03146,-3.71502 -0.0553,4e-5 h -0.76223 l -0.0553,5e-5 -1.03148,3.71502 c -0.16399,0.93501 0.11811,1.33129 0.73428,1.41182 0.33475,1.2258 1.23367,1.15155 1.46709,0 z"
         id="path1237"
         inkscape:connector-curvature="0"
         sodipodi:nodetypes="ccccccccc" />
      <path
         sodipodi:nodetypes="ccccccccc"
         inkscape:connector-curvature="0"
         id="path1239"
         d="m 359.78378,125.8738 c 0.61624,0.0805 0.89834,0.47677 0.73428,1.41181 l -1.03144,3.71503 -0.0553,4e-5 h -0.76224 l -0.0553,5e-5 -1.03147,-3.71502 c -0.16399,-0.93502 0.11811,-1.3313 0.73432,-1.4118 0.33475,-1.2258 1.23367,-1.15154 1.4671,0 z"
         style="fill:none;fill-rule:evenodd;stroke:#000000;stroke-width:0.26458333;stroke-linecap:butt;stroke-linejoin:miter;stroke-opacity:1;stroke-miterlimit:4;stroke-dasharray:none" />
      <circle
         transform="rotate(-15)"
         r="2"
         cx="312.1824"
         cy="222.18073"
         id="path1269"
         style="opacity:0.95999995;fill:none;fill-opacity:1;fill-rule:evenodd;stroke:#000000;stroke-width:0.26458333;stroke-linejoin:round;stroke-miterlimit:4;stroke-dasharray:none;stroke-opacity:1" />
      <path
         style="fill:none;fill-rule:evenodd;stroke:#000000;stroke-width:0.26458333;stroke-linecap:butt;stroke-linejoin:miter;stroke-opacity:1;stroke-miterlimit:4;stroke-dasharray:none"
         d="m 355.96988,148.98498 c 1.02099,0.38589 1.47016,0.14207 1.78186,-0.90766 l 0.0803,-5.48302 -0.75471,-0.20222 -0.60897,-0.16318 -0.75472,-0.20222 -2.67196,4.78859 c -0.25491,1.06494 0.0117,1.50055 1.08881,1.67685 -0.0917,0.68694 -0.23604,1.67241 0.48577,1.86582 0.72183,0.19341 1.08957,-0.73219 1.3536,-1.37296 z"
         id="path1306"
         inkscape:connector-curvature="0"
         sodipodi:nodetypes="cccccccccc" />
      <path
         sodipodi:nodetypes="cccccccccc"
         inkscape:connector-curvature="0"
         id="path1308"
         d="m 363.96939,119.13043 c 1.07714,0.1763 1.34422,0.61204 1.0893,1.67698 l -2.67195,4.7886 -0.75471,-0.20223 -0.60897,-0.16317 -0.75472,-0.20223 0.0803,-5.48302 c 0.31171,-1.04972 0.76039,-1.29368 1.78136,-0.90779 0.26404,-0.64077 0.63179,-1.56637 1.3536,-1.37296 0.72183,0.19341 0.5775,1.17888 0.48578,1.86582 z"
         style="fill:none;fill-rule:evenodd;stroke:#000000;stroke-width:0.26458333;stroke-linecap:butt;stroke-linejoin:miter;stroke-opacity:1;stroke-miterlimit:4;stroke-dasharray:none" />
      <path
         sodipodi:nodetypes="cccccccccc"
         inkscape:connector-curvature="0"
         id="path1271"
         d="m 354.13082,119.13048 c -1.07715,0.1763 -1.34423,0.61204 -1.08931,1.67698 l 2.67195,4.7886 0.75471,-0.20223 0.60897,-0.16317 0.75472,-0.20223 -0.0803,-5.48302 c -0.31171,-1.04972 -0.76039,-1.29368 -1.78136,-0.90779 -0.26404,-0.64077 -0.63178,-1.56637 -1.3536,-1.37296 -0.72183,0.19342 -0.5775,1.17888 -0.48577,1.86582 z"
         style="fill:none;fill-rule:evenodd;stroke:#000000;stroke-width:0.26458333;stroke-linecap:butt;stroke-linejoin:miter;stroke-opacity:1;stroke-miterlimit:4;stroke-dasharray:none" />
      <path
         style="fill:none;fill-rule:evenodd;stroke:#000000;stroke-width:0.26458333;stroke-linecap:butt;stroke-linejoin:miter;stroke-opacity:1;stroke-miterlimit:4;stroke-dasharray:none"
         d="m 362.13032,148.98503 c -1.02098,0.38589 -1.47016,0.14207 -1.78186,-0.90766 l -0.0803,-5.48302 0.75471,-0.20222 0.60897,-0.16318 0.75472,-0.20222 2.67196,4.78859 c 0.25492,1.06494 -0.0117,1.50055 -1.08881,1.67685 0.0917,0.68694 0.23605,1.67241 -0.48577,1.86582 -0.72183,0.19341 -1.08957,-0.73219 -1.3536,-1.37296 z"
         id="path1276"
         inkscape:connector-curvature="0"
         sodipodi:nodetypes="cccccccccc" />
      <path
         style="fill:none;fill-rule:evenodd;stroke:#000000;stroke-width:0.26458333;stroke-linecap:butt;stroke-linejoin:miter;stroke-opacity:1;stroke-miterlimit:4;stroke-dasharray:none"
         d="m 347.44943,123.55694 c -0.84468,0.69126 -0.85811,1.20216 -0.10488,1.99696 l 4.70827,2.81108 0.5525,-0.55249 0.44579,-0.44579 0.55249,-0.55249 -2.81106,-4.70829 c -0.79481,-0.75323 -1.30535,-0.74017 -1.9966,0.10451 -0.54905,-0.4229 -1.33033,-1.04062 -1.85873,-0.51222 -0.52841,0.52842 0.0893,1.30969 0.51223,1.85873 z"
         id="path1282"
         inkscape:connector-curvature="0"
         sodipodi:nodetypes="cccccccccc" />
      <path
         sodipodi:nodetypes="cccccccccc"
         inkscape:connector-curvature="0"
         id="path1284"
         d="m 369.30447,145.412 c -0.69125,0.84468 -1.20215,0.85811 -1.99696,0.10487 l -2.81107,-4.70827 0.55249,-0.55249 0.4458,-0.4458 0.55249,-0.55249 4.70828,2.81106 c 0.75323,0.79481 0.74017,1.30536 -0.10451,1.9966 0.4229,0.54904 1.04062,1.33033 0.51223,1.85873 -0.52842,0.52841 -1.30969,-0.0893 -1.85874,-0.51222 z"
         style="fill:none;fill-rule:evenodd;stroke:#000000;stroke-width:0.26458333;stroke-linecap:butt;stroke-linejoin:miter;stroke-opacity:1;stroke-miterlimit:4;stroke-dasharray:none" />
      <path
         sodipodi:nodetypes="cccccccccc"
         inkscape:connector-curvature="0"
         id="path1288"
         d="m 343.87646,130.73107 c -0.38589,1.02098 -0.14206,1.47016 0.90766,1.78186 l 5.48302,0.0803 0.20222,-0.75471 0.16318,-0.60897 0.20223,-0.75471 -4.7886,-2.67197 c -1.06494,-0.25491 -1.50055,0.0117 -1.67685,1.08881 -0.68694,-0.0917 -1.67241,-0.23604 -1.86582,0.48576 -0.19341,0.72183 0.73219,1.08958 1.37296,1.3536 z"
         style="fill:none;fill-rule:evenodd;stroke:#000000;stroke-width:0.26458333;stroke-linecap:butt;stroke-linejoin:miter;stroke-opacity:1;stroke-miterlimit:4;stroke-dasharray:none" />
      <path
         style="fill:none;fill-rule:evenodd;stroke:#000000;stroke-width:0.26458333;stroke-linecap:butt;stroke-linejoin:miter;stroke-opacity:1;stroke-miterlimit:4;stroke-dasharray:none"
         d="m 373.73102,138.73058 c -0.17631,1.07714 -0.61205,1.34422 -1.67698,1.0893 l -4.7886,-2.67194 0.20222,-0.75472 0.16317,-0.60897 0.20223,-0.75472 5.48302,0.0803 c 1.04973,0.31171 1.29369,0.76039 0.90779,1.78136 0.64077,0.26405 1.56637,0.63178 1.37297,1.35361 -0.19342,0.72182 -1.17889,0.57749 -1.86583,0.48576 z"
         id="path1290"
         inkscape:connector-curvature="0"
         sodipodi:nodetypes="cccccccccc" />
      <path
         style="fill:none;fill-rule:evenodd;stroke:#000000;stroke-width:0.26458333;stroke-linecap:butt;stroke-linejoin:miter;stroke-opacity:1;stroke-miterlimit:4;stroke-dasharray:none"
         d="m 344.36925,138.73062 c 0.1763,1.07715 0.61205,1.34423 1.67698,1.08931 l 4.7886,-2.67195 -0.20222,-0.75472 -0.16318,-0.60896 -0.20222,-0.75472 -5.48303,0.0803 c -1.04972,0.31171 -1.29368,0.76039 -0.90779,1.78136 -0.64076,0.26404 -1.56636,0.63178 -1.37295,1.3536 0.19341,0.72183 1.17887,0.5775 1.86581,0.48577 z"
         id="path1294"
         inkscape:connector-curvature="0"
         sodipodi:nodetypes="cccccccccc" />
      <path
         sodipodi:nodetypes="cccccccccc"
         inkscape:connector-curvature="0"
         id="path1296"
         d="m 374.22381,130.73112 c 0.38588,1.02098 0.14206,1.47016 -0.90766,1.78185 l -5.48302,0.0803 -0.20223,-0.75471 -0.16317,-0.60897 -0.20223,-0.75472 4.78859,-2.67196 c 1.06495,-0.25492 1.50056,0.0117 1.67686,1.08881 0.68694,-0.0917 1.6724,-0.23605 1.86581,0.48577 0.19341,0.72183 -0.73219,1.08957 -1.37295,1.3536 z"
         style="fill:none;fill-rule:evenodd;stroke:#000000;stroke-width:0.26458333;stroke-linecap:butt;stroke-linejoin:miter;stroke-opacity:1;stroke-miterlimit:4;stroke-dasharray:none" />
      <path
         sodipodi:nodetypes="cccccccccc"
         inkscape:connector-curvature="0"
         id="path1300"
         d="m 348.79572,145.41203 c 0.69126,0.84468 1.20216,0.85812 1.99696,0.10487 l 2.81108,-4.70827 -0.55249,-0.55249 -0.44579,-0.44579 -0.55249,-0.55249 -4.70829,2.81106 c -0.75323,0.79481 -0.74017,1.30536 0.10451,1.9966 -0.42291,0.54905 -1.04062,1.33033 -0.51222,1.85873 0.52842,0.52841 1.30969,-0.0893 1.85873,-0.51223 z"
         style="fill:none;fill-rule:evenodd;stroke:#000000;stroke-width:0.26458333;stroke-linecap:butt;stroke-linejoin:miter;stroke-opacity:1;stroke-miterlimit:4;stroke-dasharray:none" />
      <path
         style="fill:none;fill-rule:evenodd;stroke:#000000;stroke-width:0.26458333;stroke-linecap:butt;stroke-linejoin:miter;stroke-opacity:1;stroke-miterlimit:4;stroke-dasharray:none"
         d="m 370.65077,123.55699 c 0.84469,0.69125 0.85812,1.20215 0.10488,1.99696 l -4.70827,2.81107 -0.55249,-0.55249 -0.4458,-0.4458 -0.55249,-0.55249 2.81106,-4.70828 c 0.79481,-0.75323 1.30535,-0.74016 1.9966,0.10451 0.54904,-0.4229 1.33032,-1.04062 1.85872,-0.51223 0.52842,0.52841 -0.0893,1.30968 -0.51221,1.85873 z"
         id="path1302"
         inkscape:connector-curvature="0"
         sodipodi:nodetypes="cccccccccc" />
      <path
         sodipodi:nodetypes="cccccccccc"
         inkscape:connector-curvature="0"
         id="path1312"
         d="m 355.96985,148.985 c 1.02098,0.38589 1.47015,0.14205 1.78185,-0.90767 l 0.0803,-5.48302 -0.75472,-0.20222 -0.60897,-0.16317 -0.75471,-0.20223 -2.67196,4.78859 c -0.25492,1.06494 0.0117,1.50055 1.0888,1.67686 -0.0917,0.68693 -0.23604,1.6724 0.48576,1.86581 0.72183,0.19342 1.08957,-0.73219 1.3536,-1.37295 z"
         style="fill:none;fill-rule:evenodd;stroke:#000000;stroke-width:0.26458333;stroke-linecap:butt;stroke-linejoin:miter;stroke-opacity:1;stroke-miterlimit:4;stroke-dasharray:none" />
      <path
         style="fill:none;fill-rule:evenodd;stroke:#000000;stroke-width:0.26458333;stroke-linecap:butt;stroke-linejoin:miter;stroke-opacity:1;stroke-miterlimit:4;stroke-dasharray:none"
         d="m 363.96935,119.13043 c 1.07715,0.17631 1.34423,0.61205 1.08931,1.67699 l -2.67196,4.7886 -0.75471,-0.20222 -0.60896,-0.16318 -0.75472,-0.20223 0.0803,-5.48302 c 0.31172,-1.04973 0.7604,-1.29368 1.78137,-0.9078 0.26403,-0.64076 0.63178,-1.56636 1.3536,-1.37294 0.72182,0.1934 0.5775,1.17887 0.48576,1.86581 z"
         id="path1314"
         inkscape:connector-curvature="0"
         sodipodi:nodetypes="cccccccccc" />
      <circle
         transform="rotate(-15)"
         r="18"
         cy="222.18073"
         cx="312.1824"
         id="path1344"
         style="opacity:0.95999995;fill:none;fill-opacity:1;fill-rule:evenodd;stroke:#000000;stroke-width:0.26458333;stroke-linejoin:round;stroke-miterlimit:4;stroke-dasharray:none;stroke-opacity:1" />
      <path
         sodipodi:nodetypes="cccccccccsccc"
         inkscape:connector-curvature="0"
         id="path1350"
         d="m 358.99357,116.69033 c -0.25869,0 -0.28858,0.42882 -0.43307,0.64337 -0.17513,0.19922 -0.57915,0.29112 -0.52554,0.5979 0.0536,0.30678 0.35041,0.39816 0.52554,0.59738 l -0.34158,1.18236 h 0.37518 0.9121 0.37515 l -0.34158,-1.18236 c 0.17516,-0.19922 0.47194,-0.2906 0.52555,-0.59738 0.0536,-0.30678 -0.35039,-0.39868 -0.52555,-0.5979 -0.14449,-0.21455 -0.17489,-0.64337 -0.43357,-0.64337 z"
         style="fill:none;fill-rule:evenodd;stroke:#000000;stroke-width:0.26458333;stroke-linecap:butt;stroke-linejoin:miter;stroke-opacity:1;stroke-miterlimit:4;stroke-dasharray:none" />
      <path
         style="fill:none;fill-rule:evenodd;stroke:#000000;stroke-width:0.26458333;stroke-linecap:butt;stroke-linejoin:miter;stroke-opacity:1;stroke-miterlimit:4;stroke-dasharray:none"
         d="m 358.99357,150.93237 c -0.25869,0 -0.28858,-0.42882 -0.43307,-0.64337 -0.17513,-0.19922 -0.57915,-0.29112 -0.52554,-0.5979 0.0536,-0.30678 0.35041,-0.39816 0.52554,-0.59738 l -0.34158,-1.18236 h 0.37518 0.9121 0.37515 l -0.34158,1.18236 c 0.17516,0.19922 0.47194,0.2906 0.52555,0.59738 0.0536,0.30678 -0.35039,0.39868 -0.52555,0.5979 -0.14449,0.21455 -0.17489,0.64337 -0.43357,0.64337 z"
         id="path1355"
         inkscape:connector-curvature="0"
         sodipodi:nodetypes="cccccccccsccc" />
      <path
         style="fill:none;fill-rule:evenodd;stroke:#000000;stroke-width:0.26458333;stroke-linecap:butt;stroke-linejoin:miter;stroke-opacity:1;stroke-miterlimit:4;stroke-dasharray:none"
         d="m 350.44064,119.01239 c -0.22403,0.12935 -0.0355,0.51566 -0.0534,0.77371 -0.0521,0.2601 -0.356,0.5417 -0.15618,0.78057 0.19981,0.23888 0.50255,0.16961 0.75382,0.25458 l 0.29537,1.19474 0.32491,-0.18759 0.7899,-0.45605 0.32489,-0.18757 -0.88699,-0.85317 c 0.0521,-0.26011 0.26341,-0.48764 0.15645,-0.78012 -0.10698,-0.29248 -0.50279,-0.17007 -0.75409,-0.25502 -0.23241,-0.11356 -0.47315,-0.46973 -0.69717,-0.34039 z"
         id="path1361"
         inkscape:connector-curvature="0"
         sodipodi:nodetypes="cccccccccsccc" />
      <path
         sodipodi:nodetypes="cccccccccsccc"
         inkscape:connector-curvature="0"
         id="path1363"
         d="m 367.56166,148.66687 c -0.22403,0.12935 -0.46433,-0.22708 -0.69674,-0.34064 -0.25127,-0.085 -0.64712,0.0375 -0.75408,-0.25503 -0.10697,-0.29248 0.10439,-0.52002 0.15644,-0.78011 l -0.88699,-0.85317 0.32491,-0.18759 0.7899,-0.45605 0.32489,-0.18757 0.29537,1.19474 c 0.2513,0.085 0.55401,0.0157 0.75383,0.25457 0.1998,0.23888 -0.10411,0.52047 -0.15619,0.78058 -0.0179,0.25805 0.17022,0.64462 -0.0538,0.77396 z"
         style="fill:none;fill-rule:evenodd;stroke:#000000;stroke-width:0.26458333;stroke-linecap:butt;stroke-linejoin:miter;stroke-opacity:1;stroke-miterlimit:4;stroke-dasharray:none" />
      <path
         sodipodi:nodetypes="cccccccccsccc"
         inkscape:connector-curvature="0"
         id="path1367"
         d="m 344.19456,125.29985 c -0.12935,0.22403 0.22708,0.46432 0.34064,0.69673 0.085,0.25128 -0.0375,0.64712 0.25502,0.75408 0.29248,0.10697 0.52002,-0.10438 0.78012,-0.15644 l 0.85316,0.887 0.18759,-0.32492 0.45605,-0.7899 0.18758,-0.32489 -1.19475,-0.29536 c -0.085,-0.2513 -0.0157,-0.55401 -0.25457,-0.75383 -0.23888,-0.19981 -0.52046,0.10411 -0.78057,0.15619 -0.25805,0.0179 -0.64462,-0.17023 -0.77396,0.0538 z"
         style="fill:none;fill-rule:evenodd;stroke:#000000;stroke-width:0.26458333;stroke-linecap:butt;stroke-linejoin:miter;stroke-opacity:1;stroke-miterlimit:4;stroke-dasharray:none" />
      <path
         style="fill:none;fill-rule:evenodd;stroke:#000000;stroke-width:0.26458333;stroke-linecap:butt;stroke-linejoin:miter;stroke-opacity:1;stroke-miterlimit:4;stroke-dasharray:none"
         d="m 373.84903,142.42087 c -0.12934,0.22403 -0.51566,0.0355 -0.77371,0.0534 -0.26009,0.0521 -0.54169,0.356 -0.78056,0.15618 -0.23888,-0.19981 -0.16961,-0.50254 -0.25458,-0.75382 l -1.19474,-0.29536 0.18759,-0.32492 0.45605,-0.7899 0.18757,-0.32489 0.85317,0.887 c 0.26011,-0.0521 0.48763,-0.26341 0.78012,-0.15645 0.29248,0.10697 0.17007,0.50279 0.25502,0.75409 0.11356,0.23241 0.46973,0.47314 0.34039,0.69717 z"
         id="path1369"
         inkscape:connector-curvature="0"
         sodipodi:nodetypes="cccccccccsccc" />
      <path
         style="fill:none;fill-rule:evenodd;stroke:#000000;stroke-width:0.26458333;stroke-linecap:butt;stroke-linejoin:miter;stroke-opacity:1;stroke-miterlimit:4;stroke-dasharray:none"
         d="m 341.92904,133.86788 c 0,0.25869 0.42882,0.28858 0.64337,0.43307 0.19922,0.17513 0.29112,0.57915 0.5979,0.52554 0.30678,-0.0536 0.39816,-0.35041 0.59738,-0.52554 l 1.18236,0.34158 v -0.37518 -0.9121 -0.37515 l -1.18236,0.34158 c -0.19922,-0.17516 -0.2906,-0.47194 -0.59738,-0.52555 -0.30678,-0.0536 -0.39868,0.35039 -0.5979,0.52555 -0.21455,0.14449 -0.64337,0.17489 -0.64337,0.43357 z"
         id="path1373"
         inkscape:connector-curvature="0"
         sodipodi:nodetypes="cccccccccsccc" />
      <path
         sodipodi:nodetypes="cccccccccsccc"
         inkscape:connector-curvature="0"
         id="path1375"
         d="m 376.17108,133.86788 c 0,0.25869 -0.42882,0.28858 -0.64337,0.43307 -0.19922,0.17513 -0.29112,0.57915 -0.5979,0.52554 -0.30678,-0.0536 -0.39816,-0.35041 -0.59738,-0.52554 l -1.18236,0.34158 v -0.37518 -0.9121 -0.37515 l 1.18236,0.34158 c 0.19922,-0.17516 0.2906,-0.47194 0.59738,-0.52555 0.30678,-0.0536 0.39868,0.35039 0.5979,0.52555 0.21455,0.14449 0.64337,0.17489 0.64337,0.43357 z"
         style="fill:none;fill-rule:evenodd;stroke:#000000;stroke-width:0.26458333;stroke-linecap:butt;stroke-linejoin:miter;stroke-opacity:1;stroke-miterlimit:4;stroke-dasharray:none" />
      <path
         sodipodi:nodetypes="cccccccccsccc"
         inkscape:connector-curvature="0"
         id="path1379"
         d="m 344.2511,142.4208 c 0.12935,0.22404 0.51566,0.0355 0.77371,0.0534 0.2601,0.0521 0.5417,0.356 0.78057,0.15618 0.23888,-0.19981 0.16961,-0.50255 0.25458,-0.75382 l 1.19474,-0.29537 -0.18759,-0.32491 -0.45605,-0.7899 -0.18757,-0.32489 -0.85317,0.88699 c -0.26011,-0.0521 -0.48764,-0.26341 -0.78012,-0.15644 -0.29248,0.10697 -0.17007,0.50278 -0.25502,0.75408 -0.11356,0.23241 -0.46973,0.47315 -0.34039,0.69717 z"
         style="fill:none;fill-rule:evenodd;stroke:#000000;stroke-width:0.26458333;stroke-linecap:butt;stroke-linejoin:miter;stroke-opacity:1;stroke-miterlimit:4;stroke-dasharray:none" />
      <path
         style="fill:none;fill-rule:evenodd;stroke:#000000;stroke-width:0.26458333;stroke-linecap:butt;stroke-linejoin:miter;stroke-opacity:1;stroke-miterlimit:4;stroke-dasharray:none"
         d="m 373.90558,125.29978 c 0.12935,0.22404 -0.22708,0.46433 -0.34064,0.69674 -0.085,0.25127 0.0375,0.64712 -0.25503,0.75408 -0.29248,0.10697 -0.52002,-0.10439 -0.78011,-0.15644 l -0.85317,0.88699 -0.18759,-0.32491 -0.45605,-0.7899 -0.18757,-0.32489 1.19474,-0.29537 c 0.0849,-0.2513 0.0157,-0.55401 0.25457,-0.75382 0.23888,-0.19981 0.52047,0.1041 0.78058,0.15618 0.25805,0.0179 0.64462,-0.17022 0.77396,0.0538 z"
         id="path1381"
         inkscape:connector-curvature="0"
         sodipodi:nodetypes="cccccccccsccc" />
      <path
         style="fill:none;fill-rule:evenodd;stroke:#000000;stroke-width:0.26458333;stroke-linecap:butt;stroke-linejoin:miter;stroke-opacity:1;stroke-miterlimit:4;stroke-dasharray:none"
         d="m 350.53855,148.66689 c 0.22403,0.12935 0.46433,-0.22708 0.69673,-0.34064 0.25128,-0.085 0.64712,0.0375 0.75408,-0.25502 0.10697,-0.29248 -0.10438,-0.52002 -0.15644,-0.78012 l 0.887,-0.85316 -0.32492,-0.18759 -0.7899,-0.45605 -0.32489,-0.18758 -0.29536,1.19475 c -0.2513,0.0849 -0.55401,0.0157 -0.75383,0.25457 -0.19981,0.23888 0.10411,0.52046 0.15619,0.78057 0.0179,0.25805 -0.17023,0.64462 0.0538,0.77396 z"
         id="path1385"
         inkscape:connector-curvature="0"
         sodipodi:nodetypes="cccccccccsccc" />
      <path
         sodipodi:nodetypes="cccccccccsccc"
         inkscape:connector-curvature="0"
         id="path1387"
         d="m 367.65957,119.01242 c 0.22403,0.12934 0.0355,0.51566 0.0534,0.77371 0.0521,0.26009 0.356,0.54169 0.15618,0.78056 -0.19981,0.23888 -0.50254,0.16962 -0.75382,0.25458 l -0.29536,1.19474 -0.32492,-0.18759 -0.7899,-0.45605 -0.32489,-0.18757 0.887,-0.85317 c -0.0521,-0.2601 -0.26341,-0.48763 -0.15645,-0.78012 0.10697,-0.29248 0.50279,-0.17007 0.75409,-0.25502 0.23241,-0.11356 0.47314,-0.46973 0.69717,-0.34039 z"
         style="fill:none;fill-rule:evenodd;stroke:#000000;stroke-width:0.26458333;stroke-linecap:butt;stroke-linejoin:miter;stroke-opacity:1;stroke-miterlimit:4;stroke-dasharray:none" />
      <path
         sodipodi:nodetypes="cccccccccsccc"
         inkscape:connector-curvature="0"
         id="path1391"
         d="m 350.53855,148.66689 c 0.22403,0.12935 0.46433,-0.22708 0.69673,-0.34064 0.25128,-0.085 0.64712,0.0375 0.75408,-0.25502 0.10697,-0.29248 -0.10438,-0.52002 -0.15644,-0.78012 l 0.887,-0.85316 -0.32492,-0.18759 -0.7899,-0.45605 -0.32489,-0.18758 -0.29536,1.19475 c -0.2513,0.0849 -0.55401,0.0157 -0.75383,0.25457 -0.19981,0.23888 0.10411,0.52046 0.15619,0.78057 0.0179,0.25805 -0.17023,0.64462 0.0538,0.77396 z"
         style="fill:none;fill-rule:evenodd;stroke:#000000;stroke-width:0.26458333;stroke-linecap:butt;stroke-linejoin:miter;stroke-opacity:1;stroke-miterlimit:4;stroke-dasharray:none" />
      <path
         style="fill:none;fill-rule:evenodd;stroke:#000000;stroke-width:0.26458333;stroke-linecap:butt;stroke-linejoin:miter;stroke-opacity:1;stroke-miterlimit:4;stroke-dasharray:none"
         d="m 367.65957,119.01242 c 0.22403,0.12934 0.0355,0.51566 0.0534,0.77371 0.0521,0.26009 0.356,0.54169 0.15618,0.78056 -0.19981,0.23888 -0.50254,0.16962 -0.75382,0.25458 l -0.29536,1.19474 -0.32492,-0.18759 -0.7899,-0.45605 -0.32489,-0.18757 0.887,-0.85317 c -0.0521,-0.2601 -0.26341,-0.48763 -0.15645,-0.78012 0.10697,-0.29248 0.50279,-0.17007 0.75409,-0.25502 0.23241,-0.11356 0.47314,-0.46973 0.69717,-0.34039 z"
         id="path1393"
         inkscape:connector-curvature="0"
         sodipodi:nodetypes="cccccccccsccc" />
    </g>
    <g
       id="g1564"
       transform="translate(-229.9033,28.80351)"
       style="stroke-width:0.26458333;stroke-miterlimit:4;stroke-dasharray:none">
      <path
         inkscape:connector-curvature="0"
         id="path1481"
         d="m 314.1586,121.46874 c -0.15375,3e-4 -0.29581,0.0675 -0.42088,0.1491 -0.49987,0.1995 -1.00242,0.39324 -1.50063,0.59634 -0.17,0.09 -0.33584,0.18885 -0.51324,0.26249 -0.32774,0.1828 -0.43392,0.65317 -0.21574,0.95887 0.0894,0.14825 0.2464,0.22774 0.40042,0.28956 0.18087,0.0966 0.35708,0.20322 0.55255,0.2685 0.43492,0.1721 0.86985,0.3442 1.30477,0.51629 0.25448,0.20857 0.66344,0.17279 0.87434,-0.0815 0.26448,-0.28466 0.20918,-0.79001 -0.11792,-1.00442 -0.14555,-0.13886 -0.40601,-0.0421 -0.46718,-0.26854 -0.096,-0.11597 0.0411,-0.32082 0.15357,-0.35074 0.37314,-0.0206 0.65891,-0.40535 0.59285,-0.76882 -0.0408,-0.31239 -0.32414,-0.57251 -0.64291,-0.56716 z"
         style="opacity:0.95999995;fill:none;fill-opacity:1;fill-rule:evenodd;stroke:#000000;stroke-width:0.26458333;stroke-linejoin:round;stroke-miterlimit:4;stroke-dasharray:none;stroke-opacity:1" />
      <path
         style="opacity:0.95999995;fill:none;fill-opacity:1;fill-rule:evenodd;stroke:#000000;stroke-width:0.26458333;stroke-linejoin:round;stroke-miterlimit:4;stroke-dasharray:none;stroke-opacity:1"
         d="m 305.16477,121.46874 c 0.15375,3e-4 0.29581,0.0675 0.42088,0.1491 0.49987,0.1995 1.00242,0.39324 1.50063,0.59634 0.17,0.09 0.33584,0.18885 0.51324,0.26249 0.32774,0.1828 0.43392,0.65317 0.21574,0.95887 -0.0894,0.14825 -0.2464,0.22774 -0.40042,0.28956 -0.18087,0.0966 -0.35708,0.20322 -0.55255,0.2685 -0.43492,0.1721 -0.86985,0.3442 -1.30477,0.51629 -0.25448,0.20857 -0.66344,0.17279 -0.87434,-0.0815 -0.26448,-0.28466 -0.20918,-0.79001 0.11792,-1.00442 0.14555,-0.13886 0.40601,-0.0421 0.46718,-0.26854 0.096,-0.11597 -0.0411,-0.32082 -0.15357,-0.35074 -0.37314,-0.0206 -0.65891,-0.40535 -0.59285,-0.76882 0.0408,-0.31239 0.32414,-0.57251 0.64291,-0.56716 z"
         id="path1494"
         inkscape:connector-curvature="0" />
      <path
         style="opacity:0.95999995;fill:none;fill-opacity:1;fill-rule:evenodd;stroke:#000000;stroke-width:0.26458333;stroke-linejoin:round;stroke-miterlimit:4;stroke-dasharray:none;stroke-opacity:1"
         d="m 310.53385,118.36938 c -0.0766,0.1333 -0.0894,0.28993 -0.0813,0.43904 -0.0772,0.53265 -0.16066,1.06474 -0.23387,1.59775 -0.007,0.19223 -0.004,0.38527 -0.0293,0.57573 -0.006,0.37523 0.3487,0.70237 0.72254,0.66627 0.17309,-0.003 0.32043,-0.0995 0.45097,-0.202 0.1741,-0.10833 0.35454,-0.20763 0.50881,-0.34427 0.3665,-0.2906 0.73301,-0.58121 1.0995,-0.87182 0.30787,-0.1161 0.48136,-0.48816 0.36659,-0.79795 -0.11428,-0.37137 -0.57958,-0.57616 -0.92881,-0.40009 -0.19303,0.0566 -0.23947,0.33057 -0.46615,0.27032 -0.14844,0.0252 -0.25729,-0.196 -0.22697,-0.30836 0.16873,-0.33345 -0.0216,-0.77331 -0.36939,-0.89783 -0.29094,-0.12087 -0.65788,-0.006 -0.81263,0.27319 z"
         id="path1500"
         inkscape:connector-curvature="0" />
      <path
         inkscape:connector-curvature="0"
         id="path1502"
         d="m 306.03694,126.15826 c 0.0771,-0.133 0.20636,-0.22243 0.33956,-0.28994 0.42271,-0.33315 0.84177,-0.6715 1.26676,-1.00141 0.16295,-0.10223 0.33147,-0.19643 0.48395,-0.31324 0.32218,-0.19243 0.78262,-0.0492 0.93827,0.2926 0.0837,0.15155 0.074,0.32726 0.0506,0.49155 -0.007,0.20494 -0.003,0.41085 -0.0437,0.61278 -0.0684,0.4627 -0.13684,0.92541 -0.20526,1.38811 0.0534,0.32467 -0.18208,0.66095 -0.50775,0.71645 -0.37877,0.0867 -0.78876,-0.21385 -0.8109,-0.60434 -0.0475,-0.19548 0.16655,-0.37266 10e-4,-0.53886 -0.0524,-0.14112 -0.29839,-0.12481 -0.38053,-0.0424 -0.20441,0.31285 -0.6805,0.36796 -0.96225,0.12901 -0.25013,-0.19153 -0.33373,-0.56697 -0.16972,-0.84035 z"
         style="opacity:0.95999995;fill:none;fill-opacity:1;fill-rule:evenodd;stroke:#000000;stroke-width:0.26458333;stroke-linejoin:round;stroke-miterlimit:4;stroke-dasharray:none;stroke-opacity:1" />
      <path
         inkscape:connector-curvature="0"
         id="path1506"
         d="m 306.03652,119.95881 c 0.0771,0.133 0.20636,0.22243 0.33956,0.28995 0.42271,0.33315 0.84177,0.6715 1.26676,1.00141 0.16294,0.10222 0.33147,0.19642 0.48394,0.31323 0.32218,0.19243 0.78263,0.0492 0.93828,-0.2926 0.0837,-0.15154 0.074,-0.32725 0.0506,-0.49155 -0.007,-0.20494 -0.003,-0.41085 -0.0437,-0.61277 -0.0684,-0.4627 -0.13684,-0.92541 -0.20527,-1.38811 0.0534,-0.32467 -0.18207,-0.66095 -0.50775,-0.71645 -0.37876,-0.0867 -0.78875,0.21385 -0.81089,0.60433 -0.0475,0.19548 0.16655,0.37267 0.001,0.53886 -0.0524,0.14112 -0.29839,0.12482 -0.38054,0.0424 -0.20441,-0.31284 -0.6805,-0.36795 -0.96224,-0.12901 -0.25014,0.19153 -0.33374,0.56697 -0.16972,0.84036 z"
         style="opacity:0.95999995;fill:none;fill-opacity:1;fill-rule:evenodd;stroke:#000000;stroke-width:0.26458333;stroke-linejoin:round;stroke-miterlimit:4;stroke-dasharray:none;stroke-opacity:1" />
      <path
         style="opacity:0.95999995;fill:none;fill-opacity:1;fill-rule:evenodd;stroke:#000000;stroke-width:0.26458333;stroke-linejoin:round;stroke-miterlimit:4;stroke-dasharray:none;stroke-opacity:1"
         d="m 310.53343,127.7477 c -0.0766,-0.1333 -0.0894,-0.28993 -0.0813,-0.43904 -0.0772,-0.53265 -0.16066,-1.06475 -0.23387,-1.59776 -0.007,-0.19222 -0.004,-0.38527 -0.0293,-0.57572 -0.006,-0.37523 0.3487,-0.70237 0.72254,-0.66627 0.17308,0.003 0.32042,0.0995 0.45097,0.20199 0.17409,0.10834 0.35454,0.20763 0.5088,0.34427 0.36651,0.2906 0.73302,0.58122 1.09951,0.87182 0.30787,0.1161 0.48136,0.48816 0.36659,0.79795 -0.11428,0.37138 -0.57958,0.57616 -0.92881,0.40009 -0.19304,-0.0566 -0.23947,-0.33056 -0.46616,-0.27032 -0.14843,-0.0251 -0.25729,0.196 -0.22696,0.30837 0.16873,0.33345 -0.0216,0.7733 -0.36939,0.89783 -0.29094,0.12086 -0.65788,0.006 -0.81263,-0.2732 z"
         id="path1508"
         inkscape:connector-curvature="0" />
      <circle
         r="1"
         cy="123.05854"
         cx="309.66168"
         id="path1512"
         style="opacity:0.95999995;fill:none;fill-opacity:1;fill-rule:evenodd;stroke:#000000;stroke-width:0.26458333;stroke-linejoin:round;stroke-miterlimit:4;stroke-dasharray:none;stroke-opacity:1" />
      <ellipse
         ry="6.1952767"
         rx="6.678267"
         cy="123.05854"
         cx="309.66168"
         id="path1548"
         style="opacity:0.95999995;fill:none;fill-opacity:1;fill-rule:evenodd;stroke:#000000;stroke-width:0.26458333;stroke-linejoin:round;stroke-miterlimit:4;stroke-dasharray:none;stroke-opacity:1" />
    </g>
    <g
       id="g942"
       transform="translate(-3.1174579,-12.170835)"
       style="stroke-width:0.26458333;stroke-miterlimit:4;stroke-dasharray:none">
      <g
         id="g967"
         transform="matrix(0.25863848,0,0,0.25863848,20.28317,135.76082)"
         style="stroke-width:1.02298519;stroke-miterlimit:4;stroke-dasharray:none">
        <rect
           rx="3.4000001"
           y="182.56433"
           x="17.286451"
           height="46.132225"
           width="65.257652"
           id="rect923"
           style="opacity:0.95999995;fill:none;fill-opacity:1;fill-rule:evenodd;stroke:#000000;stroke-width:1.02298519;stroke-linejoin:round;stroke-miterlimit:4;stroke-dasharray:none;stroke-opacity:1" />
        <g
           id="g956"
           style="stroke-width:1.02298519;stroke-miterlimit:4;stroke-dasharray:none">
          <rect
             style="opacity:0.95999995;fill:none;fill-opacity:1;fill-rule:evenodd;stroke:#000000;stroke-width:1.02298519;stroke-linejoin:round;stroke-miterlimit:4;stroke-dasharray:none;stroke-opacity:1"
             id="rect925"
             width="18.17967"
             height="19.335604"
             x="21.332212"
             y="185.71519"
             rx="3.4000015" />
          <rect
             rx="3.4000015"
             y="185.61011"
             x="40.825439"
             height="19.335604"
             width="18.17967"
             id="rect927"
             style="opacity:0.95999995;fill:none;fill-opacity:1;fill-rule:evenodd;stroke:#000000;stroke-width:1.02298519;stroke-linejoin:round;stroke-miterlimit:4;stroke-dasharray:none;stroke-opacity:1" />
          <rect
             style="opacity:0.95999995;fill:none;fill-opacity:1;fill-rule:evenodd;stroke:#000000;stroke-width:1.02298519;stroke-linejoin:round;stroke-miterlimit:4;stroke-dasharray:none;stroke-opacity:1"
             id="rect929"
             width="18.17967"
             height="19.335604"
             x="60.318672"
             y="185.61011"
             rx="3.4000015" />
          <rect
             style="opacity:0.95999995;fill:none;fill-opacity:1;fill-rule:evenodd;stroke:#000000;stroke-width:1.02298519;stroke-linejoin:round;stroke-miterlimit:4;stroke-dasharray:none;stroke-opacity:1"
             id="rect936"
             width="18.17967"
             height="19.335604"
             x="21.332212"
             y="206.31519"
             rx="3.4000015" />
          <rect
             rx="3.4000015"
             y="206.2101"
             x="40.825439"
             height="19.335604"
             width="18.17967"
             id="rect938"
             style="opacity:0.95999995;fill:none;fill-opacity:1;fill-rule:evenodd;stroke:#000000;stroke-width:1.02298519;stroke-linejoin:round;stroke-miterlimit:4;stroke-dasharray:none;stroke-opacity:1" />
          <rect
             style="opacity:0.95999995;fill:none;fill-opacity:1;fill-rule:evenodd;stroke:#000000;stroke-width:1.02298519;stroke-linejoin:round;stroke-miterlimit:4;stroke-dasharray:none;stroke-opacity:1"
             id="rect940"
             width="18.17967"
             height="19.335604"
             x="60.318672"
             y="206.2101"
             rx="3.4000015" />
        </g>
      </g>
    </g>
  </g>
</svg>
